<svg width="1080" height="1080" viewBox="0 0 1080 1080" fill="none" xmlns="http://www.w3.org/2000/svg">
<g clip-path="url(#clip0_10045_2209)">
<path d="M52.3534 298.409C123.7 204.048 228.067 318.665 272.201 373.009L207.481 476.263C126.294 445.962 -39.5376 419.942 52.3534 298.409Z" fill="#FFBDA1"/>
<path d="M11.3479 521.593C30.1783 419.471 157.184 468.312 213.205 493.575L203.075 600.065C127.448 608.252 -12.9046 653.121 11.3479 521.593Z" fill="#FFBDA1"/>
<path d="M46.5332 745.462C5.57363 655.252 130.998 631.57 188.035 617.497L236.032 700.365C182.024 752.046 83.6204 827.143 46.5332 745.462Z" fill="#FFBDA1"/>
<path d="M1027.46 298.409C956.112 204.048 851.746 318.665 807.612 373.009L872.331 476.263C953.518 445.962 1119.35 419.942 1027.46 298.409Z" fill="#FFBDA1"/>
<path d="M1068.46 521.593C1049.63 419.471 922.628 468.312 866.607 493.575L876.737 600.065C952.364 608.252 1092.72 653.121 1068.46 521.593Z" fill="#FFBDA1"/>
<path d="M1033.28 745.462C1074.24 655.252 948.814 631.57 891.777 617.497L843.781 700.365C897.789 752.046 996.192 827.143 1033.28 745.462Z" fill="#FFBDA1"/>
<path d="M947.195 609.548C947.195 609.548 947.195 609.25 947.177 608.748C947.123 592.625 945.631 576.856 942.83 561.534C933.843 499.836 906.284 390.087 821.679 301.263C700.238 173.753 539.704 182.112 539.704 182.112C539.704 182.112 379.153 173.753 257.711 301.263C173.124 390.087 145.547 499.836 136.561 561.534C133.76 576.856 132.268 592.644 132.214 608.785C132.214 609.269 132.195 609.529 132.195 609.529C132.195 711.813 190.06 800.246 274.101 842.451C274.101 842.451 365.055 897 539.686 897C714.317 897 805.271 842.451 805.271 842.451C889.331 800.264 947.195 711.832 947.195 609.548Z" fill="#FFBDA1"/>
<path d="M350.711 650.464C350.711 676.03 330.003 696.741 304.453 696.741C278.903 696.741 258.195 676.03 258.195 650.464C258.195 624.927 278.903 604.219 304.453 604.219C330.003 604.219 350.711 624.927 350.711 650.464Z" fill="#EA8F5E"/>
<path d="M819.685 650.464C819.685 676.03 798.977 696.741 773.427 696.741C747.877 696.741 727.169 676.03 727.169 650.464C727.169 624.927 747.877 604.219 773.427 604.219C798.977 604.219 819.685 624.927 819.685 650.464Z" fill="#EA8F5E"/>
<mask id="mask0_10045_2209" style="mask-type:alpha" maskUnits="userSpaceOnUse" x="326" y="493" width="103" height="122">
<path d="M377.188 493.515C405.126 493.515 427.863 520.446 427.863 553.786C427.863 587.125 405.126 614.056 377.188 614.056C349.251 614.056 326.514 587.126 326.514 553.786C326.514 520.446 349.251 493.515 377.188 493.515Z" fill="#FCD53F" stroke="black" stroke-width="0.636014"/>
</mask>
<g mask="url(#mask0_10045_2209)">
<ellipse cx="377.188" cy="553.785" rx="50.993" ry="60.5885" fill="white"/>
<ellipse cx="377.417" cy="576.802" rx="40.6699" ry="43.244" fill="#313234"/>
</g>
<mask id="mask1_10045_2209" style="mask-type:alpha" maskUnits="userSpaceOnUse" x="651" y="493" width="103" height="122">
<path d="M702.267 493.515C730.204 493.515 752.941 520.446 752.941 553.786C752.941 587.125 730.204 614.056 702.267 614.056C674.329 614.056 651.592 587.126 651.592 553.786C651.592 520.446 674.329 493.515 702.267 493.515Z" fill="#FCD53F" stroke="black" stroke-width="0.636014"/>
</mask>
<g mask="url(#mask1_10045_2209)">
<ellipse cx="702.266" cy="553.785" rx="50.993" ry="60.5885" fill="white"/>
<ellipse cx="702.494" cy="576.802" rx="40.6699" ry="43.244" fill="#313234"/>
</g>
<path d="M590.943 604.458C590.943 632.834 567.719 655.838 539.069 655.838C510.42 655.838 487.195 632.834 487.195 604.458" stroke="#313234" stroke-width="20" stroke-linecap="round"/>
</g>
<defs>
<clipPath id="clip0_10045_2209">
<rect width="1080" height="1080" fill="white"/>
</clipPath>
</defs>
</svg>
