<svg width="1080" height="1080" viewBox="0 0 1080 1080" fill="none" xmlns="http://www.w3.org/2000/svg">
<circle cx="221" cy="271" r="160" fill="#EA8F5E"/>
<circle cx="221" cy="271" r="94" fill="#FCDC7E"/>
<circle cx="859" cy="271" r="160" fill="#EA8F5E"/>
<circle cx="859" cy="271" r="94" fill="#FCDC7E"/>
<path d="M1015.57 643.387C1015.57 643.387 1015.57 643.05 1015.55 642.48C1015.48 624.213 1013.75 606.347 1010.51 588.987C1000.09 519.082 968.128 394.734 870.021 294.096C729.199 149.625 543.047 159.096 543.047 159.096C543.047 159.096 356.874 149.625 216.052 294.096C117.966 394.734 85.9877 519.082 75.5674 588.987C72.3189 606.347 70.5893 624.234 70.526 642.523C70.526 643.071 70.5049 643.366 70.5049 643.366C70.5049 759.255 137.604 859.451 235.057 907.27C235.057 907.27 340.526 969.075 543.026 969.075C745.526 969.075 850.995 907.27 850.995 907.27C948.469 859.472 1015.57 759.276 1015.57 643.387Z" fill="#EA8F5E"/>
<path d="M259.632 650.802C259.632 676.677 238.674 697.638 212.816 697.638C186.958 697.638 166 676.677 166 650.802C166 624.958 186.958 604 212.816 604C238.674 604 259.632 624.958 259.632 650.802Z" fill="#FFBDA1"/>
<path d="M913.632 650.802C913.632 676.677 892.674 697.638 866.816 697.638C840.958 697.638 820 676.677 820 650.802C820 624.958 840.958 604 866.816 604C892.674 604 913.632 624.958 913.632 650.802Z" fill="#FFBDA1"/>
<path d="M630.792 885.232H440.205C390.165 885.232 351.042 841.766 356.511 792L372.076 698.179C379.017 636.654 419.171 586.048 473.669 564C473.669 565.05 474.3 566.31 474.721 567.36C477.245 573.029 482.272 577.859 488.603 580.799L535.509 602.007L582.414 580.799C588.724 577.859 593.772 573.029 596.296 567.36C596.717 566.31 597.348 565.05 597.348 564C615.016 571.139 631.212 581.429 645.284 594.028C674.332 620.065 694.314 656.602 698.941 698.179L714.485 792C719.975 841.766 680.852 885.232 630.792 885.232Z" fill="#FCDC7E"/>
<mask id="mask0_10044_19583" style="mask-type:alpha" maskUnits="userSpaceOnUse" x="311" y="473" width="104" height="123">
<path d="M362.608 473.318C390.886 473.318 413.898 500.576 413.898 534.319C413.898 568.063 390.886 595.321 362.608 595.321C334.331 595.321 311.318 568.063 311.318 534.319C311.318 500.576 334.331 473.318 362.608 473.318Z" fill="#FCD53F" stroke="black" stroke-width="0.636014"/>
</mask>
<g mask="url(#mask0_10044_19583)">
<ellipse cx="362.608" cy="534.32" rx="51.6083" ry="61.3196" fill="white"/>
<ellipse cx="362.839" cy="557.614" rx="41.1607" ry="43.7658" fill="#313234"/>
</g>
<mask id="mask1_10044_19583" style="mask-type:alpha" maskUnits="userSpaceOnUse" x="640" y="473" width="104" height="123">
<path d="M691.608 473.318C719.886 473.318 742.898 500.576 742.898 534.319C742.898 568.063 719.886 595.321 691.608 595.321C663.331 595.321 640.318 568.063 640.318 534.319C640.318 500.576 663.331 473.318 691.608 473.318Z" fill="#FCD53F" stroke="black" stroke-width="0.636014"/>
</mask>
<g mask="url(#mask1_10044_19583)">
<ellipse cx="691.608" cy="534.32" rx="51.6083" ry="61.3196" fill="white"/>
<ellipse cx="691.839" cy="557.614" rx="41.1607" ry="43.7658" fill="#313234"/>
</g>
<path d="M494.128 606.919C505.778 620.971 521.661 629.533 538.851 628.046C568.377 625.53 583.296 604.713 591.515 585.203C596.09 574.369 598.525 561.673 592.054 551.052C586.45 541.836 575.926 537.195 565.648 535.578C553.54 533.682 541.187 533.649 529.03 534.663C517.233 535.659 502.543 536.575 493.147 540.561C481.252 545.611 472.02 553.83 477.739 576.64C480.533 587.784 486.922 598.209 494.128 606.919Z" fill="#313234"/>
<path d="M536.829 628C536.414 641.502 538.5 669 571.62 671C575 671 584 668.5 589 659.5" stroke="#313234" stroke-width="20" stroke-linecap="round"/>
<path d="M535.172 628C535.586 641.502 533.5 669 500.381 671C497 671 488 668.5 483 659.5" stroke="#313234" stroke-width="20" stroke-linecap="round"/>
</svg>
