<svg width="1080" height="1080" viewBox="0 0 1080 1080" fill="none" xmlns="http://www.w3.org/2000/svg">
<circle cx="197.884" cy="476.884" r="95.8842" fill="#EA8F5E"/>
<circle cx="197.884" cy="476.884" r="68.4887" fill="#313234"/>
<circle cx="882.653" cy="476.884" r="95.8842" fill="#EA8F5E"/>
<circle cx="882.653" cy="476.884" r="68.4887" fill="#313234"/>
<path d="M539.466 177C777.65 177 826.143 329.906 935.388 582.906C1044.63 835.881 784.006 986.971 539.534 986.999C539.511 986.999 539.489 987 539.466 987C294.994 986.972 34.373 835.881 143.612 582.906C252.847 329.93 301.341 177.029 539.466 177Z" fill="#EA8F5E"/>
<path d="M517.043 120.815C516.776 105.78 526.609 93.3301 539.005 93.0064C551.401 92.6828 561.666 104.608 561.933 119.643L562.312 140.978L568.274 121.111C572.515 106.98 585.397 99.6941 597.049 104.837C608.7 109.981 614.707 125.605 610.466 139.736L589.991 207.967C585.75 222.098 572.867 229.384 561.216 224.24C557.486 222.594 554.334 219.873 551.912 216.47C548.766 218.653 545.138 219.942 541.26 220.043C538.081 220.126 535.043 219.404 532.278 218.03C530.209 225.71 525.355 232.2 518.61 235.177C506.959 240.32 494.076 233.034 489.836 218.903L469.36 150.673C465.119 136.542 471.127 120.917 482.778 115.774C494.429 110.631 507.312 117.917 511.553 132.047L517.6 152.199L517.043 120.815Z" fill="#EA8F5E"/>
<mask id="mask0_10035_3714" style="mask-type:alpha" maskUnits="userSpaceOnUse" x="362" y="450" width="104" height="123">
<path d="M413.608 450.318C441.886 450.318 464.898 477.576 464.898 511.319C464.898 545.063 441.886 572.321 413.608 572.321C385.331 572.321 362.318 545.063 362.318 511.319C362.318 477.576 385.331 450.318 413.608 450.318Z" fill="#FCD53F" stroke="black" stroke-width="0.636014"/>
</mask>
<g mask="url(#mask0_10035_3714)">
<ellipse cx="413.608" cy="511.32" rx="51.6083" ry="61.3196" fill="white"/>
<ellipse cx="428.839" cy="488.614" rx="43.8393" ry="46.614" fill="#313234"/>
</g>
<mask id="mask1_10035_3714" style="mask-type:alpha" maskUnits="userSpaceOnUse" x="615" y="450" width="104" height="123">
<path d="M666.608 450.318C694.886 450.318 717.898 477.576 717.898 511.319C717.898 545.063 694.886 572.321 666.608 572.321C638.331 572.321 615.318 545.063 615.318 511.319C615.318 477.576 638.331 450.318 666.608 450.318Z" fill="#FCD53F" stroke="black" stroke-width="0.636014"/>
</mask>
<g mask="url(#mask1_10035_3714)">
<ellipse cx="666.608" cy="511.32" rx="51.6083" ry="61.3196" fill="white"/>
<ellipse cx="681.839" cy="488.614" rx="43.8393" ry="46.614" fill="#313234"/>
</g>
<path d="M572.909 967.762H508.044C490.097 967.762 474.807 954.727 471.971 937.006L455 831H625.953L608.982 937.006C606.146 954.727 590.857 967.762 572.909 967.762Z" fill="white"/>
<path d="M684.934 550H395.065C290.095 550 205 635.066 205 740.001C205 844.936 290.095 930 395.065 930C453.159 930 505.136 903.913 540 862.853C574.863 903.913 626.838 930 684.934 930C789.905 930 875 844.936 875 740.001C875 635.069 789.905 550 684.934 550Z" fill="#FFBDA1"/>
<path d="M425 708.5C372 698 200.5 657 151.5 643.5" stroke="#313234" stroke-width="33.8304" stroke-linecap="round" stroke-linejoin="round"/>
<path d="M420.001 745C324.001 738.5 204.501 732 170.501 724" stroke="#313234" stroke-width="33.8304" stroke-linecap="round" stroke-linejoin="round"/>
<path d="M658 708.177C711 697.677 882.5 656.677 931.5 643.177" stroke="#313234" stroke-width="33.8304" stroke-linecap="round" stroke-linejoin="round"/>
<path d="M662.999 744.677C758.999 738.177 878.499 731.677 912.499 723.677" stroke="#313234" stroke-width="33.8304" stroke-linecap="round" stroke-linejoin="round"/>
<path d="M613.307 559.375C613.307 582.029 581.45 600.393 542.153 600.393C502.856 600.393 471 582.029 471 559.375C471 536.721 502.856 503 542.153 503C581.45 503 613.307 536.721 613.307 559.375Z" fill="#313234"/>
<path d="M311.632 534.802C311.632 560.677 290.674 581.638 264.816 581.638C238.958 581.638 218 560.677 218 534.802C218 508.958 238.958 488 264.816 488C290.674 488 311.632 508.958 311.632 534.802Z" fill="#FFBDA1"/>
<path d="M865.632 534.802C865.632 560.677 844.674 581.638 818.816 581.638C792.958 581.638 772 560.677 772 534.802C772 508.958 792.958 488 818.816 488C844.674 488 865.632 508.958 865.632 534.802Z" fill="#FFBDA1"/>
</svg>
