<svg width="1080" height="1080" viewBox="0 0 1080 1080" fill="none" xmlns="http://www.w3.org/2000/svg">
<path d="M992.9 434.617C854.466 230.142 649.656 483.447 605.477 622.963L680.6 760.869C860.897 721.876 1109.88 607.402 992.9 434.617Z" fill="#FEFAEE"/>
<path d="M86.1333 434.617C224.567 230.142 429.377 483.447 473.557 622.963L398.433 760.869C218.136 721.876 -30.8451 607.402 86.1333 434.617Z" fill="#FEFAEE"/>
<path d="M539.917 201.261C769.185 191.701 829.935 447.4 831.457 578.43C841.231 853.41 670.718 922.866 544.948 924.644C544.843 924.645 544.737 924.646 544.632 924.647C544.169 924.654 543.707 924.659 543.245 924.663C543.161 924.664 543.077 924.664 542.993 924.665C542.491 924.669 541.989 924.673 541.489 924.675C541.453 924.675 541.417 924.676 541.381 924.676C540.893 924.678 540.405 924.679 539.918 924.679C539.431 924.679 538.943 924.678 538.455 924.676C538.419 924.676 538.383 924.675 538.347 924.675C537.847 924.673 537.346 924.669 536.844 924.665C536.76 924.664 536.675 924.664 536.59 924.663C536.128 924.659 535.666 924.654 535.203 924.647C535.097 924.646 534.992 924.645 534.887 924.644C409.117 922.865 238.605 853.409 248.379 578.43C249.901 447.4 310.651 191.702 539.917 201.261Z" fill="#FCDC7E"/>
<mask id="mask0_10038_2122" style="mask-type:alpha" maskUnits="userSpaceOnUse" x="247" y="201" width="585" height="724">
<path d="M248.38 578.43C249.902 447.4 310.651 191.701 539.918 201.261C769.186 191.701 829.935 447.4 831.457 578.43C841.232 853.445 670.675 922.882 544.9 924.643C544.887 924.643 544.873 924.643 544.86 924.644C544.33 924.651 543.8 924.657 543.272 924.662C542.973 924.665 542.673 924.667 542.374 924.669C542.16 924.67 541.946 924.673 541.732 924.674C541.343 924.676 540.953 924.676 540.563 924.677C540.348 924.677 540.133 924.678 539.918 924.678C539.703 924.678 539.488 924.677 539.273 924.677C538.883 924.676 538.493 924.676 538.104 924.674C537.89 924.673 537.676 924.67 537.462 924.669C537.163 924.667 536.863 924.665 536.564 924.662C536.036 924.657 535.507 924.651 534.978 924.644C534.964 924.643 534.949 924.643 534.935 924.643C409.16 922.881 238.605 853.444 248.38 578.43Z" fill="#D9D9D9"/>
</mask>
<g mask="url(#mask0_10038_2122)">
<path d="M837.456 512C872.869 541.871 922.446 619.105 837.456 689.077C759.379 753.358 616.533 761.271 539.351 756.587C462.168 761.271 319.323 753.358 241.246 689.077C156.256 619.105 205.833 541.871 241.246 512C226.312 556.033 278.231 622.598 539.351 625.648C800.471 622.598 852.391 556.034 837.456 512Z" fill="#EA8F5E"/>
<path d="M837.456 715.907C872.869 745.778 922.446 823.012 837.456 892.984C759.379 957.265 616.533 965.179 539.351 960.494C462.168 965.179 319.323 957.265 241.246 892.984C156.256 823.012 205.833 745.778 241.246 715.907C226.312 759.941 278.231 826.505 539.351 829.556C800.471 826.505 852.391 759.941 837.456 715.907Z" fill="#EA8F5E"/>
</g>
<path d="M400.978 200.5C412.811 216.667 439.278 258.5 450.478 296.5" stroke="#EA8F5E" stroke-width="30" stroke-linecap="round"/>
<circle cx="394.978" cy="197" r="42" fill="#EA8F5E"/>
<path d="M649.478 200.5C637.645 216.667 611.178 258.5 599.978 296.5" stroke="#EA8F5E" stroke-width="30" stroke-linecap="round"/>
<circle cx="42" cy="42" r="42" transform="matrix(-1 0 0 1 697.478 155)" fill="#EA8F5E"/>
<path d="M421.61 521.802C421.61 547.677 400.652 568.638 374.794 568.638C348.936 568.638 327.978 547.677 327.978 521.802C327.978 495.958 348.936 475 374.794 475C400.652 475 421.61 495.958 421.61 521.802Z" fill="#FFBDA1"/>
<path d="M752.61 521.802C752.61 547.677 731.652 568.638 705.794 568.638C679.936 568.638 658.978 547.677 658.978 521.802C658.978 495.958 679.936 475 705.794 475C731.652 475 752.61 495.958 752.61 521.802Z" fill="#FFBDA1"/>
<path d="M576.978 476C576.978 496.08 560.636 512.358 540.478 512.358C520.32 512.358 503.978 496.08 503.978 476" stroke="#313234" stroke-width="20" stroke-linecap="round"/>
<mask id="mask1_10038_2122" style="mask-type:alpha" maskUnits="userSpaceOnUse" x="382" y="359" width="105" height="123">
<path d="M434.586 359.318C462.864 359.318 485.876 386.576 485.876 420.319C485.876 454.063 462.864 481.321 434.586 481.321C406.309 481.321 383.296 454.063 383.296 420.319C383.296 386.576 406.309 359.318 434.586 359.318Z" fill="#FCD53F" stroke="black" stroke-width="0.636014"/>
</mask>
<g mask="url(#mask1_10038_2122)">
<ellipse cx="434.586" cy="420.32" rx="51.6083" ry="61.3196" fill="white"/>
<ellipse cx="434.817" cy="443.614" rx="41.1607" ry="43.7658" fill="#313234"/>
</g>
<mask id="mask2_10038_2122" style="mask-type:alpha" maskUnits="userSpaceOnUse" x="594" y="359" width="105" height="123">
<path d="M646.586 359.318C674.864 359.318 697.876 386.576 697.876 420.319C697.876 454.063 674.864 481.321 646.586 481.321C618.309 481.321 595.296 454.063 595.296 420.319C595.296 386.576 618.309 359.318 646.586 359.318Z" fill="#FCD53F" stroke="black" stroke-width="0.636014"/>
</mask>
<g mask="url(#mask2_10038_2122)">
<ellipse cx="646.586" cy="420.32" rx="51.6083" ry="61.3196" fill="white"/>
<ellipse cx="646.817" cy="443.614" rx="41.1607" ry="43.7658" fill="#313234"/>
</g>
</svg>
