<svg width="1080" height="1080" viewBox="0 0 1080 1080" fill="none" xmlns="http://www.w3.org/2000/svg">
<path d="M233.629 135C315.229 144.6 348.129 220.833 354.629 256.5C361.029 327.3 292.296 342.333 257.129 341C76.629 340 82.629 209.5 83.129 168C83.529 134.8 101.629 135 120.129 135H233.629Z" fill="#EA8F5E"/>
<path d="M227.338 187C266.825 187 300.575 213.325 311.037 249.437C299.562 260.912 290.112 274.075 282.35 288.25H233.412C185.15 288.25 146 249.1 146 200.838V194.088C146 190.038 149.038 187 153.088 187H227.338Z" fill="#FFBDA1"/>
<path d="M846.418 135C764.818 144.6 731.918 220.833 725.418 256.5C719.018 327.3 787.751 342.333 822.918 341C1003.42 340 997.418 209.5 996.918 168C996.518 134.8 978.418 135 959.918 135H846.418Z" fill="#EA8F5E"/>
<path d="M852.709 187C813.222 187 779.472 213.325 769.009 249.437C780.484 260.912 789.934 274.075 797.697 288.25H846.634C894.897 288.25 934.047 249.1 934.047 200.838V194.088C934.047 190.038 931.009 187 926.959 187H852.709Z" fill="#FFBDA1"/>
<path d="M540.466 135C778.65 135 827.143 287.906 936.388 540.906C1045.63 793.881 785.006 944.971 540.534 944.999C540.511 944.999 540.489 945 540.466 945C295.994 944.972 35.373 793.881 144.612 540.906C253.847 287.93 302.341 135.029 540.466 135Z" fill="#EA8F5E"/>
<path d="M352.632 702.802C352.632 728.677 331.674 749.638 305.816 749.638C279.958 749.638 259 728.677 259 702.802C259 676.958 279.958 656 305.816 656C331.674 656 352.632 676.958 352.632 702.802Z" fill="#FFBDA1"/>
<path d="M827.128 702.802C827.128 728.677 806.171 749.638 780.312 749.638C754.454 749.638 733.496 728.677 733.496 702.802C733.496 676.958 754.454 656 780.312 656C806.171 656 827.128 676.958 827.128 702.802Z" fill="#FFBDA1"/>
<path d="M745.999 821C727.611 801.83 734.191 783.967 740.102 776.955C740.362 776.646 740.578 776.323 740.751 775.958C748.527 759.558 772.394 732.127 807.999 698.5C846.919 661.741 836.499 761.5 826.999 801C817.499 840.5 769.499 845.5 745.999 821Z" fill="white"/>
<path d="M348.805 821C367.193 801.83 360.613 783.967 354.702 776.955C354.441 776.646 354.225 776.323 354.052 775.958C346.277 759.558 322.41 732.127 286.805 698.5C247.885 661.741 258.305 761.5 267.805 801C277.305 840.5 325.305 845.5 348.805 821Z" fill="white"/>
<mask id="mask0_10035_3581" style="mask-type:alpha" maskUnits="userSpaceOnUse" x="331" y="510" width="104" height="123">
<path d="M382.608 510.318C410.886 510.318 433.898 537.576 433.898 571.319C433.898 605.063 410.886 632.321 382.608 632.321C354.331 632.321 331.318 605.063 331.318 571.319C331.318 537.576 354.331 510.318 382.608 510.318Z" fill="#FCD53F" stroke="black" stroke-width="0.636014"/>
</mask>
<g mask="url(#mask0_10035_3581)">
<ellipse cx="382.608" cy="571.32" rx="51.6083" ry="61.3196" fill="white"/>
<ellipse cx="382.839" cy="594.614" rx="41.1607" ry="43.7658" fill="#313234"/>
</g>
<mask id="mask1_10035_3581" style="mask-type:alpha" maskUnits="userSpaceOnUse" x="660" y="510" width="104" height="123">
<path d="M711.608 510.318C739.886 510.318 762.898 537.576 762.898 571.319C762.898 605.063 739.886 632.321 711.608 632.321C683.331 632.321 660.318 605.063 660.318 571.319C660.318 537.576 683.331 510.318 711.608 510.318Z" fill="#FCD53F" stroke="black" stroke-width="0.636014"/>
</mask>
<g mask="url(#mask1_10035_3581)">
<ellipse cx="711.608" cy="571.32" rx="51.6083" ry="61.3196" fill="white"/>
<ellipse cx="711.839" cy="594.614" rx="41.1607" ry="43.7658" fill="#313234"/>
</g>
<path d="M547 657.041C602.736 655.435 673.185 700.557 704.015 795.658C727.315 867.531 644.989 906.269 547 905.998C449.01 906.269 366.685 867.531 389.985 795.658C420.815 700.557 491.263 655.435 547 657.041Z" fill="#FFBDA1"/>
<path d="M491.728 762.086C504.929 759.115 520.005 776.143 525.402 800.12C530.799 824.096 524.473 845.942 511.272 848.914C498.071 851.885 482.995 834.857 477.598 810.88C472.201 786.904 478.527 765.058 491.728 762.086ZM571.772 800.12C577.169 776.143 592.245 759.115 605.446 762.086C618.646 765.058 624.973 786.904 619.576 810.88C614.179 834.857 599.102 851.885 585.902 848.914C572.701 845.942 566.375 824.096 571.772 800.12Z" fill="#313234"/>
</svg>
