<svg width="1080" height="1080" viewBox="0 0 1080 1080" fill="none" xmlns="http://www.w3.org/2000/svg">
<path d="M540.466 194C778.65 194 827.143 336.334 936.388 571.843C1045.63 807.329 785.006 947.973 540.534 947.999C540.511 947.999 540.489 948 540.466 948C295.994 947.974 35.373 807.329 144.612 571.843C253.847 336.357 302.341 194.027 540.466 194Z" fill="#FEFAEE"/>
<path d="M191.871 166.96C129.583 216.913 204.583 380.298 230.803 432.443C234.522 439.839 244.714 440.183 249.35 433.316C307.599 347.022 353.411 303.585 439.882 251.227C446.722 247.086 447.154 237.397 440.433 233.076C394.904 203.804 251.78 118.915 191.871 166.96Z" fill="#FEFAEE"/>
<path d="M243.889 234.118C199.903 269.495 271.895 400.996 271.895 400.996C311.213 340.769 339.22 314.149 399.101 278.898C399.101 278.898 286.248 200.05 243.889 234.118Z" fill="#FFBDA1"/>
<path d="M888.679 166.96C950.967 216.913 875.967 380.298 849.747 432.443C846.028 439.839 835.836 440.183 831.201 433.316C772.951 347.022 727.14 303.585 640.668 251.227C633.829 247.086 633.397 237.397 640.118 233.076C685.646 203.804 828.771 118.915 888.679 166.96Z" fill="#FEFAEE"/>
<path d="M836.661 234.118C880.648 269.495 808.655 400.996 808.655 400.996C769.337 340.769 741.33 314.149 681.449 278.898C681.449 278.898 794.302 200.05 836.661 234.118Z" fill="#FFBDA1"/>
<path d="M858.918 589.991L1005.08 514.189" stroke="#313234" stroke-width="20" stroke-linecap="round"/>
<path d="M858.999 648.978L1009.05 716.761" stroke="#313234" stroke-width="20" stroke-linecap="round"/>
<path d="M221.129 589.991L74.9677 514.189" stroke="#313234" stroke-width="20" stroke-linecap="round"/>
<path d="M221.048 648.978L70.9999 716.761" stroke="#313234" stroke-width="20" stroke-linecap="round"/>
<path d="M578.304 599H507.909C492.875 599 485.346 617.177 495.976 627.807L531.174 663.005C537.764 669.595 548.449 669.595 555.039 663.005L590.237 627.807C600.867 617.177 593.338 599 578.304 599Z" fill="#313234"/>
<path d="M544.347 668C543.837 684.642 546.408 718.535 587.229 721C591.397 721 602.49 717.919 608.652 706.826" stroke="#313234" stroke-width="20" stroke-linecap="round"/>
<path d="M542.305 668C542.815 684.642 540.244 718.535 499.423 721C495.256 721 484.163 717.919 478 706.826" stroke="#313234" stroke-width="20" stroke-linecap="round"/>
<mask id="mask0_10044_21116" style="mask-type:alpha" maskUnits="userSpaceOnUse" x="321" y="525" width="105" height="123">
<path d="M373.607 525.318C401.885 525.318 424.897 552.576 424.897 586.319C424.897 620.063 401.885 647.321 373.607 647.321C345.33 647.321 322.317 620.063 322.317 586.319C322.317 552.576 345.33 525.318 373.607 525.318Z" fill="#FCD53F" stroke="black" stroke-width="0.636014"/>
</mask>
<g mask="url(#mask0_10044_21116)">
<ellipse cx="373.607" cy="586.32" rx="51.6083" ry="61.3196" fill="white"/>
<ellipse cx="373.838" cy="609.614" rx="41.1607" ry="43.7658" fill="#313234"/>
</g>
<mask id="mask1_10044_21116" style="mask-type:alpha" maskUnits="userSpaceOnUse" x="660" y="525" width="105" height="123">
<path d="M712.607 525.318C740.885 525.318 763.897 552.576 763.897 586.319C763.897 620.063 740.885 647.321 712.607 647.321C684.329 647.321 661.317 620.063 661.317 586.319C661.317 552.576 684.33 525.318 712.607 525.318Z" fill="#FCD53F" stroke="black" stroke-width="0.636014"/>
</mask>
<g mask="url(#mask1_10044_21116)">
<ellipse cx="712.607" cy="586.32" rx="51.6083" ry="61.3196" fill="white"/>
<ellipse cx="712.838" cy="609.614" rx="41.1607" ry="43.7658" fill="#313234"/>
</g>
<path d="M352.631 694.802C352.631 720.677 331.673 741.638 305.815 741.638C279.957 741.638 258.999 720.677 258.999 694.802C258.999 668.958 279.957 648 305.815 648C331.673 648 352.631 668.958 352.631 694.802Z" fill="#FFBDA1"/>
<path d="M827.127 694.802C827.127 720.677 806.17 741.638 780.311 741.638C754.453 741.638 733.495 720.677 733.495 694.802C733.495 668.958 754.453 648 780.311 648C806.17 648 827.127 668.958 827.127 694.802Z" fill="#FFBDA1"/>
</svg>
