<svg width="1080" height="1080" viewBox="0 0 1080 1080" fill="none" xmlns="http://www.w3.org/2000/svg">
<path d="M540.467 225C771.305 225 818.302 360.727 924.178 585.304C1030.05 809.859 777.465 943.974 540.533 943.999C540.511 943.999 540.489 944 540.467 944C303.535 943.975 50.9522 809.859 156.822 585.304C262.688 360.749 309.687 225.026 540.467 225Z" fill="#FCDC7E"/>
<path d="M570.302 214.006L554.53 172.249C543.722 143.635 506.979 135.721 485.351 157.35C463.721 178.979 471.635 215.723 500.249 226.531L542.005 242.302C559.684 248.981 576.98 231.686 570.302 214.006Z" fill="#FCDC7E"/>
<path d="M579.424 247.109L616.123 221.701C641.272 204.29 640.059 166.724 613.839 150.972C587.618 135.219 553.882 151.79 550.32 182.169L545.122 226.501C542.92 245.27 563.885 257.867 579.424 247.109Z" fill="#FCDC7E"/>
<mask id="mask0_10038_1920" style="mask-type:alpha" maskUnits="userSpaceOnUse" x="351" y="457" width="104" height="123">
<path d="M402.608 457.318C430.886 457.318 453.898 484.576 453.898 518.319C453.898 552.063 430.886 579.321 402.608 579.321C374.331 579.321 351.318 552.063 351.318 518.319C351.318 484.576 374.331 457.318 402.608 457.318Z" fill="#FCD53F" stroke="black" stroke-width="0.636014"/>
</mask>
<g mask="url(#mask0_10038_1920)">
<ellipse cx="402.608" cy="518.32" rx="51.6083" ry="61.3196" fill="white"/>
<ellipse cx="402.839" cy="541.614" rx="41.1607" ry="43.7658" fill="#313234"/>
</g>
<mask id="mask1_10038_1920" style="mask-type:alpha" maskUnits="userSpaceOnUse" x="628" y="457" width="104" height="123">
<path d="M679.608 457.318C707.886 457.318 730.898 484.576 730.898 518.319C730.898 552.063 707.886 579.321 679.608 579.321C651.331 579.321 628.318 552.063 628.318 518.319C628.318 484.576 651.331 457.318 679.608 457.318Z" fill="#FCD53F" stroke="black" stroke-width="0.636014"/>
</mask>
<g mask="url(#mask1_10038_1920)">
<ellipse cx="679.608" cy="518.32" rx="51.6083" ry="61.3196" fill="white"/>
<ellipse cx="679.839" cy="541.614" rx="41.1607" ry="43.7658" fill="#313234"/>
</g>
<path d="M570.119 643.955L604.125 590.181C611.858 577.956 603.081 562 588.628 562H493.371C478.916 562 470.143 577.956 477.874 590.181L511.882 643.955C525.41 665.348 556.589 665.348 570.119 643.955Z" fill="#EA8F5E"/>
<path d="M506.145 513.157L465.441 577.354C456.185 591.95 466.69 611 483.991 611H598.009C615.311 611 625.815 591.951 616.559 577.354L575.855 513.157C559.658 487.614 522.342 487.614 506.145 513.157Z" fill="#EA8F5E"/>
<path d="M350.632 608.802C350.632 634.677 329.674 655.638 303.816 655.638C277.958 655.638 257 634.677 257 608.802C257 582.958 277.958 562 303.816 562C329.674 562 350.632 582.958 350.632 608.802Z" fill="#FFBDA1"/>
<path d="M825.128 608.802C825.128 634.677 804.171 655.638 778.312 655.638C752.454 655.638 731.496 634.677 731.496 608.802C731.496 582.958 752.454 562 778.312 562C804.171 562 825.128 582.958 825.128 608.802Z" fill="#FFBDA1"/>
</svg>
