<svg width="1080" height="1080" viewBox="0 0 1080 1080" fill="none" xmlns="http://www.w3.org/2000/svg">
<path d="M947.948 776.563C935.642 641.305 923.29 562.826 910.944 481.022C883.263 297.603 725.554 162 539.999 162C354.443 162 196.733 297.603 169.051 481.022C156.706 562.827 144.355 641.305 132.049 776.563C130.864 784.241 130.191 791.988 130.035 799.756C128.095 895.597 206.964 976.66 302.855 977.286C331.454 977.474 358.463 970.756 382.327 958.715C410.075 1017.96 470.238 1059 540 1059C609.763 1059 669.925 1017.96 697.674 958.715C721.51 970.743 748.486 977.459 777.048 977.288C872.969 976.713 951.884 895.672 949.966 799.801C949.81 792.018 949.134 784.256 947.948 776.563Z" fill="#FEFAEE"/>
<mask id="mask0_10045_2248" style="mask-type:alpha" maskUnits="userSpaceOnUse" x="350" y="439" width="104" height="123">
<path d="M401.608 439.318C429.886 439.318 452.898 466.576 452.898 500.319C452.898 534.063 429.886 561.321 401.608 561.321C373.331 561.321 350.318 534.063 350.318 500.319C350.318 466.576 373.331 439.318 401.608 439.318Z" fill="#FCD53F" stroke="black" stroke-width="0.636014"/>
</mask>
<g mask="url(#mask0_10045_2248)">
<ellipse cx="401.608" cy="500.32" rx="51.6083" ry="61.3196" fill="white"/>
<ellipse cx="401.839" cy="523.614" rx="41.1607" ry="43.7658" fill="#313234"/>
</g>
<mask id="mask1_10045_2248" style="mask-type:alpha" maskUnits="userSpaceOnUse" x="627" y="439" width="104" height="123">
<path d="M678.608 439.318C706.886 439.318 729.898 466.576 729.898 500.319C729.898 534.063 706.886 561.321 678.608 561.321C650.331 561.321 627.318 534.063 627.318 500.319C627.318 466.576 650.331 439.318 678.608 439.318Z" fill="#FCD53F" stroke="black" stroke-width="0.636014"/>
</mask>
<g mask="url(#mask1_10045_2248)">
<ellipse cx="678.608" cy="500.32" rx="51.6083" ry="61.3196" fill="white"/>
<ellipse cx="678.839" cy="523.614" rx="41.1607" ry="43.7658" fill="#313234"/>
</g>
<path d="M542.75 21C574.192 21.0001 600.492 43.0106 607.086 72.4639C631.78 60.1005 662.621 64.2185 683.221 84.8184C708.968 110.566 708.968 152.31 683.221 178.058L622.412 238.866C600.102 261.176 565.782 264.154 540.265 247.801C514.748 264.153 480.428 261.176 458.118 238.866L397.311 178.058C371.563 152.31 371.563 110.566 397.311 84.8184C419.173 62.9563 452.568 59.6583 477.911 74.9229C483.556 44.2439 510.438 21 542.75 21Z" fill="#EA8F5E"/>
<path d="M522.718 595L459.007 627.084C425.512 643.951 424.058 691.631 456.465 710.543C488.872 729.454 529.119 704.413 526.913 666.71L522.718 595Z" fill="#EA8F5E"/>
<path d="M557.328 595L621.716 627.084C655.569 643.951 657.036 691.631 624.285 710.543C591.534 729.454 550.859 704.413 553.088 666.71L557.328 595Z" fill="#EA8F5E"/>
<path d="M569.517 641.949L619.753 594.211C631.177 583.357 618.211 569.192 596.86 569.192H456.139C434.785 569.192 421.825 583.357 433.246 594.211L483.485 641.949C503.469 660.94 549.53 660.94 569.517 641.949Z" fill="#FCDC7E"/>
<path d="M477.306 516.73L419.856 572.147C406.793 584.747 421.619 601.192 446.038 601.192H606.962C631.381 601.192 646.207 584.749 633.144 572.147L575.694 516.73C552.833 494.68 500.167 494.68 477.306 516.73Z" fill="#FCDC7E"/>
<path d="M349.632 615.802C349.632 641.677 328.674 662.638 302.816 662.638C276.958 662.638 256 641.677 256 615.802C256 589.958 276.958 569 302.816 569C328.674 569 349.632 589.958 349.632 615.802Z" fill="#FFBDA1"/>
<path d="M824.128 615.802C824.128 641.677 803.171 662.638 777.312 662.638C751.454 662.638 730.496 641.677 730.496 615.802C730.496 589.958 751.454 569 777.312 569C803.171 569 824.128 589.958 824.128 615.802Z" fill="#FFBDA1"/>
</svg>
