<svg width="1080" height="1080" viewBox="0 0 1080 1080" fill="none" xmlns="http://www.w3.org/2000/svg">
<path d="M700.564 196.959C682.273 228.534 653.163 249.993 620.577 259.251V305.143C683.949 331.002 758.204 305.356 791.014 242.522C822.739 181.772 803.164 105.497 745.789 67.6966C738.027 62.2966 729.927 58.2466 721.489 54.8716C711.027 50.8216 700.902 61.6216 705.627 72.0841C723.852 110.559 723.514 157.134 700.564 196.959Z" fill="#FCDC7E"/>
<path d="M389.59 196.959C407.882 228.534 436.992 249.993 469.577 259.251V305.143C406.206 331.002 331.95 305.356 299.14 242.522C267.415 181.772 286.99 105.497 344.365 67.6966C352.128 62.2966 360.228 58.2466 368.665 54.8716C379.128 50.8216 389.253 61.6216 384.528 72.0841C366.303 110.559 366.64 157.134 389.59 196.959Z" fill="#FCDC7E"/>
<path d="M113.86 216.386C181.827 170.22 256.605 206.306 284.869 229.011C336.058 278.338 293.945 334.701 266.49 356.716C129.395 474.131 48.4936 371.558 21.7021 339.861C0.268874 314.503 14.0816 302.804 28.0658 290.693L113.86 216.386Z" fill="#716E6E"/>
<path d="M143.149 259.811C172.997 233.959 215.743 231.763 247.294 252.211C246.133 268.397 247.607 284.534 251.02 300.33L214.028 332.369C177.546 363.966 122.322 360.003 90.7248 323.522L86.3056 318.419C83.6541 315.358 83.9616 311.073 87.023 308.422L143.149 259.811Z" fill="#FFBDA1"/>
<path d="M965.697 216.386C897.73 170.22 822.952 206.306 794.688 229.011C743.499 278.338 785.612 334.701 813.068 356.716C950.162 474.131 1031.06 371.558 1057.86 339.861C1079.29 314.503 1065.48 302.804 1051.49 290.693L965.697 216.386Z" fill="#716E6E"/>
<path d="M936.409 259.811C906.56 233.959 863.814 231.763 832.263 252.211C833.424 268.397 831.95 284.534 828.538 300.33L865.529 332.369C902.011 363.966 957.236 360.003 988.832 323.522L993.252 318.419C995.903 315.358 995.596 311.073 992.534 308.422L936.409 259.811Z" fill="#FFBDA1"/>
<path d="M541.464 115C794.34 115 845.824 279.798 961.808 552.476C1077.79 825.127 801.088 987.969 541.536 987.999C541.512 987.999 541.488 988 541.464 988C281.912 987.97 5.21452 825.127 121.192 552.476C237.165 279.824 288.65 115.031 541.464 115Z" fill="white"/>
<mask id="mask0_10045_17706" style="mask-type:alpha" maskUnits="userSpaceOnUse" x="94" y="115" width="895" height="873">
<path d="M541.464 115C794.34 115 845.824 279.798 961.808 552.476C1077.79 825.127 801.088 987.969 541.536 987.999C541.512 987.999 541.488 988 541.464 988C281.912 987.97 5.21452 825.127 121.192 552.476C237.165 279.824 288.65 115.031 541.464 115Z" fill="white"/>
</mask>
<g mask="url(#mask0_10045_17706)">
<path d="M1064.25 689.244C1055.15 618.823 1048.73 559.878 1039.62 499.624C1023.37 392.122 971.805 296.616 901.276 222.473C810.182 181.275 700.842 202.791 636.358 281.682C559.097 376.204 575.507 517.219 673.011 596.647C674.12 597.551 675.234 598.439 676.35 599.319C723.139 636.061 760.465 683.117 788.133 735.735C806.034 769.782 831.071 800.981 862.973 826.967C911.939 866.85 969.705 888.447 1027.69 892.532C1059.53 832.091 1073.61 761.719 1064.25 689.244Z" fill="#716E6E"/>
<path d="M63.2794 587.435C53.165 654.345 55.9507 777.175 45.8452 854.345C95.4466 844.211 143.053 819.718 181.906 780.938C183.077 779.767 184.237 778.593 185.378 777.407C233.267 727.865 282.163 633.138 346.148 607.456C387.547 590.839 426.492 565.676 460.224 532.007C579.26 413.19 592.176 229.548 497.238 102.271C275.037 163.56 99.116 350.352 63.2794 587.435Z" fill="#716E6E"/>
</g>
<path d="M320.632 612.802C320.632 638.677 299.674 659.638 273.816 659.638C247.958 659.638 227 638.677 227 612.802C227 586.958 247.958 566 273.816 566C299.674 566 320.632 586.958 320.632 612.802Z" fill="#EA8F5E"/>
<path d="M854.264 612.802C854.264 638.677 833.307 659.638 807.449 659.638C781.59 659.638 760.632 638.677 760.632 612.802C760.632 586.958 781.59 566 807.449 566C833.307 566 854.264 586.958 854.264 612.802Z" fill="#EA8F5E"/>
<path d="M686.549 958C651.572 999.095 599.467 1025.16 541.274 1025.16C483.081 1025.16 430.977 999.095 396 958H686.549Z" fill="#EA8F5E"/>
<path d="M725.338 990.493L667.445 983.693C583.034 973.777 497.752 973.777 413.34 983.693L355.448 990.493C242.888 1003.71 144 915.763 144 802.429C144 681.687 255.487 591.785 373.487 617.375L484.06 641.356C521.183 649.406 559.6 649.406 596.723 641.356L707.295 617.375C825.295 591.785 936.783 681.687 936.783 802.429C936.786 915.763 837.898 1003.71 725.338 990.493Z" fill="#FFBDA1"/>
<mask id="mask1_10045_17706" style="mask-type:alpha" maskUnits="userSpaceOnUse" x="324" y="471" width="104" height="123">
<path d="M375.608 471.318C403.886 471.318 426.898 498.576 426.898 532.319C426.898 566.063 403.886 593.321 375.608 593.321C347.331 593.321 324.318 566.063 324.318 532.319C324.318 498.576 347.331 471.318 375.608 471.318Z" fill="#FCD53F" stroke="black" stroke-width="0.636014"/>
</mask>
<g mask="url(#mask1_10045_17706)">
<ellipse cx="375.608" cy="532.32" rx="51.6083" ry="61.3196" fill="white"/>
<ellipse cx="375.839" cy="555.614" rx="41.1607" ry="43.7658" fill="#313234"/>
</g>
<mask id="mask2_10045_17706" style="mask-type:alpha" maskUnits="userSpaceOnUse" x="653" y="471" width="104" height="123">
<path d="M704.608 471.318C732.886 471.318 755.898 498.576 755.898 532.319C755.898 566.063 732.886 593.321 704.608 593.321C676.331 593.321 653.318 566.063 653.318 532.319C653.318 498.576 676.331 471.318 704.608 471.318Z" fill="#FCD53F" stroke="black" stroke-width="0.636014"/>
</mask>
<g mask="url(#mask2_10045_17706)">
<ellipse cx="704.608" cy="532.32" rx="51.6083" ry="61.3196" fill="white"/>
<ellipse cx="704.839" cy="555.614" rx="41.1607" ry="43.7658" fill="#313234"/>
</g>
<path d="M439.75 766.5C458.39 766.5 473.5 751.39 473.5 732.75C473.5 714.11 458.39 699 439.75 699C421.11 699 406 714.11 406 732.75C406 751.39 421.11 766.5 439.75 766.5Z" fill="#313234"/>
<path d="M676 732.75C676 751.39 660.89 766.5 642.25 766.5C623.61 766.5 608.5 751.39 608.5 732.75C608.5 714.11 623.61 699 642.25 699C660.89 699 676 714.11 676 732.75Z" fill="#313234"/>
</svg>
