<svg width="1080" height="1080" viewBox="0 0 1080 1080" fill="none" xmlns="http://www.w3.org/2000/svg">
<path d="M539.504 350.206C596.308 347.952 688.472 359.084 757.505 416.5C861.504 503 881.005 582.501 886.005 649.5C890.97 716.042 852.042 902.424 539.504 880.971C226.967 902.423 188.039 716.042 193.005 649.5C198.005 582.501 217.505 503 321.505 416.5C390.537 359.084 482.7 347.952 539.504 350.206Z" fill="#EA8F5E"/>
<path d="M95.5042 778C93.5042 684.5 204.504 667.5 208.004 669L235.504 738.5C217.171 751.666 172.804 781.9 142.004 797.5C111.509 812.945 98.431 793.722 95.5866 781.854C97.0714 851.345 96.1591 810.97 95.5042 781.5C95.5307 781.617 95.5582 781.735 95.5866 781.854C95.56 780.605 95.5325 779.321 95.5042 778Z" fill="#EA8F5E"/>
<path d="M997.005 778C999.005 684.5 888.005 667.5 884.505 669L857.005 738.5C875.338 751.666 919.705 781.9 950.505 797.5C980.999 812.945 994.078 793.722 996.922 781.854C995.437 851.345 996.35 810.97 997.005 781.5C996.978 781.617 996.951 781.735 996.922 781.854C996.949 780.605 996.976 779.321 997.005 778Z" fill="#EA8F5E"/>
<path d="M221.504 864.5L277.504 809.5L213.504 723L159.004 801.5C146.671 819.333 128.604 860.9 155.004 884.5C181.404 908.1 208.004 878.5 221.504 864.5Z" fill="#EA8F5E"/>
<path d="M871.004 864.5L815.004 809.5L879.004 723L933.504 801.5C945.837 819.333 963.904 860.9 937.504 884.5C911.104 908.1 884.504 878.5 871.004 864.5Z" fill="#EA8F5E"/>
<path d="M253.004 453.5C113.557 516 66.9399 400.336 71.2733 327.836C76.7729 288.836 114.477 219.236 181.277 192.836C248.077 166.436 252.777 222.836 246.777 254.336C243.443 263.169 236.277 283.436 234.277 293.836C232.277 304.236 239.777 303.503 243.777 301.836L263.777 285.836C299.377 266.236 306.558 301.836 313.009 327.836C325.663 378.836 284.057 435.5 253.004 453.5Z" fill="#EA8F5E" stroke="#EA8F5E"/>
<path d="M174.504 409C161.838 446.667 165.204 545.1 264.004 561.5" stroke="#EA8F5E" stroke-width="80"/>
<path d="M826.338 453.5C965.785 516 1012.4 400.336 1008.07 327.836C1002.57 288.836 964.865 219.236 898.065 192.836C831.265 166.436 826.565 222.836 832.565 254.336C835.898 263.169 843.065 283.436 845.065 293.836C847.065 304.236 839.565 303.503 835.565 301.836L815.565 285.836C779.965 266.236 772.784 301.836 766.333 327.836C753.679 378.836 795.285 435.5 826.338 453.5Z" fill="#EA8F5E" stroke="#EA8F5E"/>
<path d="M904.837 409C917.503 446.667 914.137 545.1 815.337 561.5" stroke="#EA8F5E" stroke-width="80"/>
<mask id="mask0_10044_21376" style="mask-type:alpha" maskUnits="userSpaceOnUse" x="336" y="505" width="125" height="148">
<path d="M398.329 505.318C432.307 505.318 459.941 538.066 459.941 578.583C459.941 619.1 432.307 651.849 398.329 651.849C364.351 651.848 336.718 619.1 336.718 578.583C336.718 538.066 364.351 505.319 398.329 505.318Z" fill="#FCD53F" stroke="black" stroke-width="0.636014"/>
</mask>
<g mask="url(#mask0_10044_21376)">
<ellipse cx="398.329" cy="578.583" rx="61.93" ry="73.5835" fill="white"/>
<ellipse cx="398.607" cy="606.536" rx="49.3928" ry="52.5189" fill="#313234"/>
</g>
<mask id="mask1_10044_21376" style="mask-type:alpha" maskUnits="userSpaceOnUse" x="620" y="505" width="125" height="148">
<path d="M682.729 505.318C716.708 505.318 744.342 538.066 744.342 578.583C744.342 619.1 716.708 651.849 682.729 651.849C648.751 651.848 621.118 619.1 621.118 578.583C621.118 538.066 648.752 505.319 682.729 505.318Z" fill="#FCD53F" stroke="black" stroke-width="0.636014"/>
</mask>
<g mask="url(#mask1_10044_21376)">
<ellipse cx="682.73" cy="578.583" rx="61.93" ry="73.5835" fill="white"/>
<ellipse cx="683.007" cy="606.536" rx="49.3928" ry="52.5189" fill="#313234"/>
</g>
<path d="M368.423 669.199C368.423 692.528 349.526 711.427 326.211 711.427C302.897 711.427 284 692.528 284 669.199C284 645.897 302.897 627 326.211 627C349.526 627 368.423 645.897 368.423 669.199Z" fill="#FFBDA1"/>
<path d="M796.246 669.199C796.246 692.528 777.35 711.427 754.035 711.427C730.721 711.427 711.824 692.528 711.824 669.199C711.824 645.897 730.721 627 754.035 627C777.35 627 796.246 645.897 796.246 669.199Z" fill="#FFBDA1"/>
<path d="M587 609C587 629.08 570.658 645.358 550.5 645.358C530.342 645.358 514 629.08 514 609" stroke="#313234" stroke-width="20" stroke-linecap="round"/>
</svg>
