<svg width="1080" height="1080" viewBox="0 0 1080 1080" fill="none" xmlns="http://www.w3.org/2000/svg">
<path d="M727.922 149.071C813.813 149.071 883.442 218.7 883.442 304.592C883.442 309.226 883.238 313.812 882.841 318.344C953.567 363.942 1002.68 423.82 1018.58 491.552C1029.44 537.878 1040.33 582.934 1051.19 642.565C1056.63 672.29 1049.78 702.411 1031.33 729.888C1000.01 776.54 936.83 813.327 855.677 826.617C855.257 826.694 854.807 826.751 854.39 826.828C853.642 826.943 852.864 827.078 852.116 827.193C645.507 860.461 434.562 860.48 227.953 827.193C227.176 827.078 226.398 826.962 225.62 826.828L224.571 826.655C143.15 813.386 79.7618 776.445 48.5039 729.601C30.1731 702.229 23.3842 672.237 28.8213 642.642C39.7097 582.973 50.5677 537.897 61.4561 491.552C73.0365 442.209 102.25 397.039 144.604 358.516C138.394 341.716 134.999 323.55 134.999 304.592C134.999 218.7 204.628 149.071 290.52 149.071C351.39 149.071 404.091 184.043 429.631 234.99C465.177 229.647 502.143 226.831 540.005 226.831C557.61 226.831 575.021 227.44 592.185 228.628C618.81 181.154 669.619 149.071 727.922 149.071Z" fill="#6AAA7D"/>
<path d="M779.666 636.192C895.226 588.878 957.026 598.603 987.195 630.407C1002.26 646.291 1009.36 667.611 1011.35 689.861C1013.34 712.112 1010.24 735.336 1004.86 755.093L1004.83 755.208L1004.76 755.298C938.573 834.292 846.839 880.409 749.989 905.25L750.115 906.071L750.19 906.563L749.705 906.677C727.035 912.026 700.115 917.037 670.126 921.046C665.201 921.755 660.277 922.418 655.356 923.037C614.633 928.155 574.156 930.246 535.387 930.142C496.618 930.246 456.141 928.155 415.417 923.037C410.496 922.418 405.572 921.755 400.646 921.046C370.658 917.037 343.738 912.026 321.068 906.677L320.583 906.563L320.658 906.071L320.783 905.25C223.934 880.409 132.2 834.292 66.0176 755.298L65.9414 755.208L65.9111 755.093C60.5346 735.336 57.429 712.112 59.4219 689.861C61.4148 667.611 68.5099 646.291 83.5781 630.407C113.748 598.603 175.547 588.878 291.107 636.192C314.29 645.683 336.615 653.868 358.067 660.879L358.12 660.535L358.848 661.107C358.868 661.123 358.889 661.139 358.909 661.155C426.648 683.221 485.655 693.567 535.387 696.352C585.118 693.567 644.124 683.221 711.862 661.155C711.883 661.138 711.905 661.123 711.926 661.107L712.653 660.535L712.705 660.879C734.157 653.868 756.484 645.684 779.666 636.192Z" fill="#FCDC7E"/>
<mask id="mask0_10035_3887" style="mask-type:alpha" maskUnits="userSpaceOnUse" x="261" y="244" width="104" height="123">
<path d="M312.608 244.318C340.886 244.318 363.898 271.576 363.898 305.319C363.898 339.063 340.886 366.321 312.608 366.321C284.331 366.321 261.318 339.063 261.318 305.319C261.318 271.576 284.331 244.318 312.608 244.318Z" fill="#FCD53F" stroke="black" stroke-width="0.636014"/>
</mask>
<g mask="url(#mask0_10035_3887)">
<ellipse cx="312.608" cy="305.32" rx="51.6083" ry="61.3196" fill="white"/>
<ellipse cx="312.839" cy="328.614" rx="41.1607" ry="43.7658" fill="#313234"/>
</g>
<mask id="mask1_10035_3887" style="mask-type:alpha" maskUnits="userSpaceOnUse" x="666" y="244" width="104" height="123">
<path d="M717.608 244.318C745.886 244.318 768.898 271.576 768.898 305.319C768.898 339.063 745.886 366.321 717.608 366.321C689.331 366.321 666.318 339.063 666.318 305.319C666.318 271.576 689.331 244.318 717.608 244.318Z" fill="#FCD53F" stroke="black" stroke-width="0.636014"/>
</mask>
<g mask="url(#mask1_10035_3887)">
<ellipse cx="717.608" cy="305.32" rx="51.6083" ry="61.3196" fill="white"/>
<ellipse cx="717.839" cy="328.614" rx="41.1607" ry="43.7658" fill="#313234"/>
</g>
<path d="M410.5 803.5C388.1 798.7 370.167 757.167 364 737L446.5 725C443.833 753.167 432.9 808.3 410.5 803.5Z" fill="white"/>
<path d="M671 803.5C693.4 798.7 711.333 757.167 717.5 737L635 725C637.667 753.167 648.6 808.3 671 803.5Z" fill="white"/>
<path d="M327 647.394C329.167 575.56 357.7 451.194 454.5 528.394C467.833 522.894 504.6 512.294 545 513.894V514.142C580.942 514.587 612.389 523.791 624.5 528.787C721.3 451.587 749.833 575.954 752 647.787C752 671.287 743.1 723.087 707.5 742.287C673.238 760.766 584.048 728.854 539.062 708.601C493.802 728.87 405.541 760.253 371.5 741.894C335.9 722.694 327 670.894 327 647.394Z" fill="#6AAA7D"/>
<path d="M469.037 568C491.66 568 510 586.699 510 609.765C510 612.48 508.943 615.083 507.06 617.003C505.178 618.922 502.625 620 499.962 620C477.34 620 459 601.301 459 578.235C459 575.52 460.057 572.917 461.94 570.997C463.822 569.078 466.375 568 469.037 568Z" fill="#313234"/>
<path d="M609.963 568C587.339 568 569 586.699 569 609.765C569 612.48 570.057 615.083 571.94 617.003C573.822 618.922 576.376 620 579.037 620C601.661 620 620 601.301 620 578.235C619.999 575.52 618.942 572.917 617.059 570.997C615.177 569.078 612.624 568 609.963 568Z" fill="#313234"/>
<path d="M309.632 520.802C309.632 546.677 288.674 567.638 262.816 567.638C236.958 567.638 216 546.677 216 520.802C216 494.958 236.958 474 262.816 474C288.674 474 309.632 494.958 309.632 520.802Z" fill="#FFBDA1"/>
<path d="M863.632 520.802C863.632 546.677 842.674 567.638 816.816 567.638C790.958 567.638 770 546.677 770 520.802C770 494.958 790.958 474 816.816 474C842.674 474 863.632 494.958 863.632 520.802Z" fill="#FFBDA1"/>
</svg>
