<svg width="1080" height="1080" viewBox="0 0 1080 1080" fill="none" xmlns="http://www.w3.org/2000/svg">
<path d="M822.136 436.043L762.264 376.169L822.136 316.297C864.136 274.297 932.231 274.297 974.231 316.297L1006.73 348.802C1021.85 363.917 1021.85 388.421 1006.73 403.535L974.231 436.039C932.229 478.041 864.136 478.041 822.136 436.043Z" fill="#EA8F5E"/>
<path d="M850.577 413.647L813.102 376.172L850.577 338.696C876.866 312.407 919.491 312.407 945.78 338.696L966.128 359.042C975.588 368.503 975.588 383.843 966.128 393.304L945.78 413.651C919.491 439.938 876.868 439.938 850.577 413.647Z" fill="#FFBDA1"/>
<path d="M256.935 436.043L316.807 376.169L256.935 316.297C214.936 274.297 146.84 274.297 104.84 316.297L72.3364 348.804C57.2212 363.919 57.2212 388.423 72.3364 403.536L104.84 436.041C146.842 478.041 214.936 478.041 256.935 436.043Z" fill="#EA8F5E"/>
<path d="M228.49 413.647L265.966 376.172L228.49 338.696C202.2 312.407 159.577 312.407 133.288 338.696L112.941 359.042C103.481 368.503 103.481 383.843 112.941 393.304L133.288 413.651C159.577 439.938 202.2 439.938 228.49 413.647Z" fill="#FFBDA1"/>
<path d="M539.466 221.797C777.65 221.797 826.143 374.703 935.388 627.703C1044.63 880.679 784.006 1031.77 539.534 1031.8C539.511 1031.8 539.489 1031.8 539.466 1031.8C294.994 1031.77 34.373 880.678 143.612 627.703C252.847 374.727 301.341 221.826 539.466 221.797Z" fill="#EA8F5E"/>
<path d="M367.826 264.256C364.272 264.256 360.663 263.594 357.16 262.196C318.745 246.86 293.922 210.223 293.922 168.86V123.789C293.922 107.889 306.812 94.999 322.713 94.999C338.613 94.999 351.503 107.889 351.503 123.789V168.86C351.503 186.525 362.102 202.172 378.509 208.72C393.276 214.614 400.467 231.364 394.573 246.131C390.074 257.397 379.256 264.256 367.826 264.256Z" fill="#FFBDA1"/>
<path d="M417.816 302.131C414.034 302.136 410.289 301.394 406.796 299.947C403.302 298.5 400.129 296.378 397.458 293.7L380.988 277.228C368.957 265.198 352.96 258.572 335.947 258.572C264.645 258.572 198.577 220 163.523 157.908L125.724 90.9468C117.908 77.0998 122.794 59.5398 136.641 51.7238C150.483 43.9079 168.047 48.7955 175.864 62.6409L213.666 129.602C238.525 173.637 285.381 200.992 335.948 200.992C368.342 200.992 398.796 213.607 421.703 236.513L438.173 252.985C449.418 264.227 449.418 282.457 438.173 293.7C435.504 296.376 432.33 298.5 428.836 299.947C425.342 301.394 421.596 302.136 417.816 302.131Z" fill="#FFBDA1"/>
<path d="M712.172 264.256C715.727 264.256 719.337 263.594 722.839 262.196C761.253 246.86 786.076 210.223 786.076 168.86V123.789C786.076 107.889 773.186 94.999 757.286 94.999C741.385 94.999 728.495 107.889 728.495 123.789V168.86C728.495 186.525 717.896 202.172 701.49 208.72C686.722 214.614 679.531 231.364 685.426 246.131C689.924 257.397 700.742 264.256 712.172 264.256Z" fill="#FFBDA1"/>
<path d="M662.181 302.131C669.55 302.131 676.916 299.321 682.539 293.7L699.009 277.228C711.04 265.198 727.037 258.572 744.052 258.572C815.352 258.572 881.421 220 916.475 157.908L954.277 90.9468C962.092 77.0998 957.205 59.5398 943.358 51.7238C929.516 43.9079 911.953 48.7955 904.134 62.6409L866.333 129.602C841.474 173.637 794.617 200.992 744.052 200.992C711.657 200.992 681.203 213.607 658.296 236.513L641.825 252.985C630.58 264.227 630.58 282.457 641.825 293.7C644.495 296.378 647.669 298.5 651.162 299.947C654.654 301.394 658.401 302.136 662.181 302.131Z" fill="#FFBDA1"/>
<path d="M363.632 771.6C363.632 797.475 342.674 818.435 316.816 818.435C290.958 818.435 270 797.475 270 771.6C270 745.755 290.958 724.797 316.816 724.797C342.674 724.797 363.632 745.755 363.632 771.6Z" fill="#FFBDA1"/>
<path d="M838.128 771.6C838.128 797.475 817.171 818.435 791.312 818.435C765.454 818.435 744.496 797.475 744.496 771.6C744.496 745.755 765.454 724.797 791.312 724.797C817.171 724.797 838.128 745.755 838.128 771.6Z" fill="#FFBDA1"/>
<mask id="mask0_10044_20524" style="mask-type:alpha" maskUnits="userSpaceOnUse" x="347" y="601" width="104" height="124">
<path d="M398.608 602.116C426.886 602.116 449.898 629.373 449.898 663.117C449.898 696.86 426.886 724.119 398.608 724.119C370.331 724.119 347.318 696.861 347.318 663.117C347.318 629.373 370.331 602.116 398.608 602.116Z" fill="#FCD53F" stroke="black" stroke-width="0.636014"/>
</mask>
<g mask="url(#mask0_10044_20524)">
<ellipse cx="398.608" cy="663.117" rx="51.6083" ry="61.3196" fill="white"/>
<ellipse cx="409.161" cy="645.563" rx="41.1607" ry="43.7658" fill="#313234"/>
</g>
<mask id="mask1_10044_20524" style="mask-type:alpha" maskUnits="userSpaceOnUse" x="657" y="601" width="104" height="124">
<path d="M708.608 602.116C736.886 602.116 759.898 629.373 759.898 663.117C759.898 696.86 736.886 724.119 708.608 724.119C680.331 724.119 657.318 696.861 657.318 663.117C657.318 629.373 680.331 602.116 708.608 602.116Z" fill="#FCD53F" stroke="black" stroke-width="0.636014"/>
</mask>
<g mask="url(#mask1_10044_20524)">
<ellipse cx="708.608" cy="663.117" rx="51.6083" ry="61.3196" fill="white"/>
<ellipse cx="719.161" cy="645.563" rx="41.1607" ry="43.7658" fill="#313234"/>
</g>
<path d="M512.128 735.716C523.778 749.769 539.661 758.331 556.851 756.844C586.377 754.327 601.296 733.51 609.515 714C614.09 703.167 616.525 690.47 610.054 679.849C604.45 670.633 593.926 665.993 583.648 664.375C571.54 662.48 559.187 662.447 547.03 663.46C535.233 664.457 520.543 665.372 511.147 669.359C499.252 674.408 490.02 682.627 495.739 705.438C498.533 716.582 504.922 727.007 512.128 735.716Z" fill="#313234"/>
<path d="M591 782.797C591 802.878 574.658 819.156 554.5 819.156C534.342 819.156 518 802.878 518 782.797" stroke="#313234" stroke-width="20" stroke-linecap="round"/>
</svg>
