<svg width="1080" height="1080" viewBox="0 0 1080 1080" fill="none" xmlns="http://www.w3.org/2000/svg">
<path d="M546.466 177C784.65 177 833.143 329.906 942.388 582.906C1051.63 835.881 791.006 986.971 546.534 986.999C546.511 986.999 546.489 987 546.466 987C301.994 986.972 41.373 835.881 150.612 582.906C259.847 329.93 308.341 177.029 546.466 177Z" fill="#FCDC7E"/>
<path d="M600.929 95.5363C616.91 102.617 625.681 122.347 620.521 139.606L594.976 225.041C590.052 241.509 574.223 249.776 558.901 244.348C555.235 250.493 549.879 255.55 543.302 258.464C527.322 265.544 510.184 257.293 505.024 240.034L479.479 154.599C474.319 137.34 483.09 117.61 499.07 110.529C515.051 103.449 532.188 111.701 537.349 128.959L547.759 163.775L562.651 113.966C567.812 96.7074 584.949 88.4561 600.929 95.5363Z" fill="#FCDC7E"/>
<path d="M709 770.444C709 681.748 623.623 654 550.619 654C468.953 654 391 684.969 391 770.444C391 848.735 476.377 916 550.619 916C639.708 916 709 823.712 709 770.444Z" fill="white"/>
<path d="M353.031 255.783C426.802 343.533 392.542 572.126 287.896 581.043C183.251 589.96 64.3391 558.022 56.2092 462.746C48.0792 367.47 279.229 168.033 353.031 255.783Z" fill="#EA8F5E"/>
<path d="M726.218 255.783C652.447 343.533 686.706 572.126 791.352 581.043C895.997 589.96 1014.91 558.022 1023.04 462.746C1031.17 367.47 800.02 168.033 726.218 255.783Z" fill="#EA8F5E"/>
<path d="M355.632 726.802C355.632 752.677 334.674 773.638 308.816 773.638C282.958 773.638 262 752.677 262 726.802C262 700.958 282.958 680 308.816 680C334.674 680 355.632 700.958 355.632 726.802Z" fill="#EA8F5E"/>
<path d="M830.128 726.802C830.128 752.677 809.171 773.638 783.312 773.638C757.454 773.638 736.496 752.677 736.496 726.802C736.496 700.958 757.454 680 783.312 680C809.171 680 830.128 700.958 830.128 726.802Z" fill="#EA8F5E"/>
<mask id="mask0_10035_2705" style="mask-type:alpha" maskUnits="userSpaceOnUse" x="339" y="557" width="104" height="123">
<path d="M390.608 557.318C418.886 557.318 441.898 584.576 441.898 618.319C441.898 652.063 418.886 679.321 390.608 679.321C362.331 679.321 339.318 652.063 339.318 618.319C339.318 584.576 362.331 557.318 390.608 557.318Z" fill="#FCD53F" stroke="black" stroke-width="0.636014"/>
</mask>
<g mask="url(#mask0_10035_2705)">
<ellipse cx="390.608" cy="618.32" rx="51.6083" ry="61.3196" fill="white"/>
<ellipse cx="401.161" cy="600.766" rx="41.1607" ry="43.7658" fill="#313234"/>
</g>
<mask id="mask1_10035_2705" style="mask-type:alpha" maskUnits="userSpaceOnUse" x="649" y="557" width="104" height="123">
<path d="M700.608 557.318C728.886 557.318 751.898 584.576 751.898 618.319C751.898 652.063 728.886 679.321 700.608 679.321C672.331 679.321 649.318 652.063 649.318 618.319C649.318 584.576 672.331 557.318 700.608 557.318Z" fill="#FCD53F" stroke="black" stroke-width="0.636014"/>
</mask>
<g mask="url(#mask1_10035_2705)">
<ellipse cx="700.608" cy="618.32" rx="51.6083" ry="61.3196" fill="white"/>
<ellipse cx="711.161" cy="600.766" rx="41.1607" ry="43.7658" fill="#313234"/>
</g>
<path d="M581.196 631H510.8C495.766 631 488.237 649.177 498.868 659.807L534.066 695.005C540.656 701.595 551.34 701.595 557.931 695.005L593.128 659.807C603.759 649.177 596.23 631 581.196 631Z" fill="#313234"/>
<path d="M545.791 700C546.205 719.782 539.827 760.076 511 763" stroke="#313234" stroke-width="20" stroke-linecap="round"/>
<path d="M545.828 700C545.414 719.782 551.792 760.076 580.619 763" stroke="#313234" stroke-width="20" stroke-linecap="round"/>
</svg>
