<svg width="1080" height="1080" viewBox="0 0 1080 1080" fill="none" xmlns="http://www.w3.org/2000/svg">
<path d="M539.542 254.259C765.905 254.259 811.991 387.285 915.815 607.392C1019.63 827.478 771.946 958.924 539.606 958.949C539.585 958.949 539.564 958.949 539.542 958.949C307.203 958.925 59.5165 827.478 163.334 607.392C267.148 387.306 313.235 254.284 539.542 254.259Z" fill="#FCDC7E"/>
<path d="M569.302 236.006L553.53 194.249C542.722 165.635 505.979 157.721 484.351 179.35C462.721 200.979 470.635 237.723 499.249 248.531L541.005 264.302C558.684 270.981 575.98 253.686 569.302 236.006Z" fill="#FCDC7E"/>
<path d="M578.424 269.109L615.123 243.701C640.272 226.29 639.059 188.724 612.839 172.972C586.618 157.219 552.882 173.79 549.32 204.169L544.122 248.501C541.92 267.27 562.885 279.867 578.424 269.109Z" fill="#FCDC7E"/>
<mask id="mask0_10035_3221" style="mask-type:alpha" maskUnits="userSpaceOnUse" x="319" y="561" width="104" height="123">
<path d="M370.608 561.318C398.886 561.318 421.898 588.576 421.898 622.319C421.898 656.063 398.886 683.321 370.608 683.321C342.331 683.321 319.318 656.063 319.318 622.319C319.318 588.576 342.331 561.318 370.608 561.318Z" fill="#FCD53F" stroke="black" stroke-width="0.636014"/>
</mask>
<g mask="url(#mask0_10035_3221)">
<ellipse cx="370.608" cy="622.32" rx="51.6083" ry="61.3196" fill="white"/>
<ellipse cx="385.839" cy="599.614" rx="43.8393" ry="46.614" fill="#313234"/>
</g>
<mask id="mask1_10035_3221" style="mask-type:alpha" maskUnits="userSpaceOnUse" x="658" y="561" width="104" height="123">
<path d="M709.825 561.318C738.103 561.318 761.115 588.576 761.115 622.319C761.115 656.063 738.103 683.321 709.825 683.321C681.548 683.321 658.535 656.063 658.535 622.319C658.535 588.576 681.548 561.318 709.825 561.318Z" fill="#FCD53F" stroke="black" stroke-width="0.636014"/>
</mask>
<g mask="url(#mask1_10035_3221)">
<ellipse cx="709.825" cy="622.32" rx="51.6083" ry="61.3196" fill="white"/>
<ellipse cx="725.056" cy="599.614" rx="43.8393" ry="46.614" fill="#313234"/>
</g>
<path d="M349.632 748.802C349.632 774.677 328.674 795.638 302.816 795.638C276.958 795.638 256 774.677 256 748.802C256 722.958 276.958 702 302.816 702C328.674 702 349.632 722.958 349.632 748.802Z" fill="#EA8F5E"/>
<path d="M824.128 748.802C824.128 774.677 803.171 795.638 777.312 795.638C751.454 795.638 730.496 774.677 730.496 748.802C730.496 722.958 751.454 702 777.312 702C803.171 702 824.128 722.958 824.128 748.802Z" fill="#EA8F5E"/>
<path d="M461.829 689.494C430.946 711.479 406.29 679.748 394.635 700.987C391.605 706.508 393.242 712.546 395.837 716.927C397.553 719.834 441.589 796.388 537.804 796.388C634.034 796.388 681.524 720.064 683.272 717.142C686.876 711.101 687.056 705.697 684.599 700.987C672.945 679.748 648.289 711.479 617.405 689.494C586.53 667.508 569.833 653 539.613 653C509.401 653 492.712 667.508 461.829 689.494Z" fill="#EA8F5E"/>
<path d="M539.613 716.03C496.465 716.03 487.525 727.673 457.923 735.208C453.559 736.322 448.84 736.809 444.023 736.785C463.449 753.979 494.053 771.7 537.804 771.7C581.388 771.7 612.935 754.009 633.355 736.777C629.187 736.676 625.116 736.178 621.309 735.208C591.708 727.673 582.76 716.03 539.613 716.03Z" fill="#313234"/>
</svg>
