<svg width="1080" height="1080" viewBox="0 0 1080 1080" fill="none" xmlns="http://www.w3.org/2000/svg">
<path d="M539.633 147.298C800.516 147.298 853.63 300.67 973.287 554.44C1092.94 808.186 807.478 959.736 539.707 959.764C539.682 959.764 539.658 959.765 539.633 959.765C271.862 959.737 -13.5968 808.186 106.053 554.44C225.698 300.694 278.814 147.327 539.633 147.298Z" fill="#6AAA7D"/>
<path d="M529.462 145.006L513.69 103.249C502.883 74.6348 466.139 66.7213 444.511 88.3501C422.881 109.979 430.795 146.723 459.409 157.531L501.166 173.302C518.844 179.981 536.14 162.686 529.462 145.006Z" fill="#6AAA7D"/>
<path d="M538.584 178.109L575.283 152.701C600.432 135.29 599.219 97.7238 572.999 81.9723C546.779 66.2193 513.042 82.7903 509.48 113.169L504.282 157.501C502.08 176.27 523.046 188.867 538.584 178.109Z" fill="#6AAA7D"/>
<mask id="mask0_10035_3177" style="mask-type:alpha" maskUnits="userSpaceOnUse" x="319" y="506" width="104" height="123">
<path d="M370.769 506.318C399.046 506.318 422.058 533.576 422.059 567.319C422.059 601.063 399.046 628.321 370.769 628.321C342.491 628.321 319.479 601.063 319.479 567.319C319.479 533.576 342.491 506.318 370.769 506.318Z" fill="#FCD53F" stroke="black" stroke-width="0.636014"/>
</mask>
<g mask="url(#mask0_10035_3177)">
<ellipse cx="370.768" cy="567.32" rx="51.6083" ry="61.3196" fill="white"/>
<ellipse cx="385.999" cy="544.614" rx="43.8393" ry="46.614" fill="#313234"/>
</g>
<mask id="mask1_10035_3177" style="mask-type:alpha" maskUnits="userSpaceOnUse" x="658" y="506" width="104" height="123">
<path d="M709.985 506.318C738.263 506.318 761.275 533.576 761.275 567.319C761.275 601.063 738.263 628.321 709.985 628.321C681.708 628.321 658.695 601.063 658.695 567.319C658.695 533.576 681.708 506.318 709.985 506.318Z" fill="#FCD53F" stroke="black" stroke-width="0.636014"/>
</mask>
<g mask="url(#mask1_10035_3177)">
<ellipse cx="709.985" cy="567.32" rx="51.6083" ry="61.3196" fill="white"/>
<ellipse cx="725.216" cy="544.614" rx="43.8393" ry="46.614" fill="#313234"/>
</g>
<path d="M615.581 676.333H615.577C604.716 676.333 594.104 672.291 586.47 664.564C575.95 653.918 558.923 647 539.699 647C520.473 647 503.447 653.918 492.927 664.564C485.292 672.291 474.683 676.333 463.82 676.333H463.816C450.863 676.333 439.696 685.43 437.081 698.116C423.185 765.527 408.339 837.534 393.49 914.678C386.39 951.561 408.354 987.761 444.291 998.681C505.247 1017.2 574.137 1017.2 635.101 998.683C671.039 987.763 693.005 951.562 685.906 914.679C671.056 837.534 656.208 765.527 642.313 698.116C641.044 691.964 637.693 686.436 632.823 682.468C627.954 678.5 621.864 676.333 615.581 676.333Z" fill="#FCDC7E"/>
<path d="M589.56 736.206C573.501 736.206 560.48 723.187 560.48 707.127C560.48 705.237 561.231 703.424 562.567 702.088C563.904 700.751 565.715 700 567.605 700C583.666 700 596.686 713.018 596.686 729.081C596.686 730.969 595.935 732.782 594.598 734.119C593.262 735.455 591.45 736.206 589.56 736.206Z" fill="#EA8F5E"/>
<path d="M490.285 736.206C506.346 736.206 519.366 723.187 519.366 707.127C519.366 705.237 518.615 703.424 517.278 702.088C515.942 700.751 514.129 700 512.241 700C496.18 700 483.16 713.018 483.16 729.081C483.16 730.971 483.911 732.782 485.247 734.119C486.584 735.455 488.397 736.206 490.285 736.206Z" fill="#EA8F5E"/>
<path d="M355.793 699.802C355.793 725.677 334.835 746.638 308.976 746.638C283.118 746.638 262.16 725.677 262.16 699.802C262.16 673.958 283.118 653 308.976 653C334.835 653 355.793 673.958 355.793 699.802Z" fill="#EA8F5E"/>
<path d="M830.288 699.802C830.288 725.677 809.331 746.638 783.472 746.638C757.614 746.638 736.656 725.677 736.656 699.802C736.656 673.958 757.614 653 783.472 653C809.331 653 830.288 673.958 830.288 699.802Z" fill="#EA8F5E"/>
</svg>
