<svg width="1080" height="1080" viewBox="0 0 1080 1080" fill="none" xmlns="http://www.w3.org/2000/svg">
<path d="M539.549 236.259C765.912 236.259 811.998 369.285 915.822 589.392C1019.64 809.478 771.953 940.924 539.613 940.949C539.592 940.949 539.571 940.949 539.549 940.949C307.21 940.925 59.5234 809.478 163.341 589.392C267.155 369.306 313.242 236.284 539.549 236.259Z" fill="#FCDC7E"/>
<path d="M569.308 218.006L553.536 176.249C542.729 147.635 505.985 139.721 484.357 161.35C462.727 182.979 470.642 219.723 499.255 230.531L541.012 246.302C558.69 252.981 575.986 235.686 569.308 218.006Z" fill="#FCDC7E"/>
<path d="M578.431 251.109L615.129 225.701C640.278 208.29 639.065 170.724 612.845 154.972C586.625 139.219 552.888 155.79 549.326 186.169L544.128 230.501C541.926 249.27 562.892 261.867 578.431 251.109Z" fill="#FCDC7E"/>
<mask id="mask0_10044_21054" style="mask-type:alpha" maskUnits="userSpaceOnUse" x="319" y="543" width="104" height="123">
<path d="M370.615 543.318C398.892 543.318 421.905 570.576 421.905 604.319C421.905 638.063 398.892 665.321 370.615 665.321C342.337 665.321 319.325 638.063 319.325 604.319C319.325 570.576 342.337 543.318 370.615 543.318Z" fill="#FCD53F" stroke="black" stroke-width="0.636014"/>
</mask>
<g mask="url(#mask0_10044_21054)">
<ellipse cx="370.615" cy="604.32" rx="51.6083" ry="61.3196" fill="white"/>
<ellipse cx="385.846" cy="581.614" rx="43.8393" ry="46.614" fill="#313234"/>
</g>
<mask id="mask1_10044_21054" style="mask-type:alpha" maskUnits="userSpaceOnUse" x="658" y="543" width="104" height="123">
<path d="M709.832 543.318C738.109 543.318 761.121 570.576 761.122 604.319C761.122 638.063 738.109 665.321 709.832 665.321C681.554 665.321 658.542 638.063 658.542 604.319C658.542 570.576 681.554 543.318 709.832 543.318Z" fill="#FCD53F" stroke="black" stroke-width="0.636014"/>
</mask>
<g mask="url(#mask1_10044_21054)">
<ellipse cx="709.831" cy="604.32" rx="51.6083" ry="61.3196" fill="white"/>
<ellipse cx="725.062" cy="581.614" rx="43.8393" ry="46.614" fill="#313234"/>
</g>
<path d="M349.639 730.802C349.639 756.677 328.681 777.638 302.823 777.638C276.964 777.638 256.006 756.677 256.006 730.802C256.006 704.958 276.964 684 302.823 684C328.681 684 349.639 704.958 349.639 730.802Z" fill="#EA8F5E"/>
<path d="M824.135 730.802C824.135 756.677 803.177 777.638 777.319 777.638C751.46 777.638 730.502 756.677 730.502 730.802C730.502 704.958 751.46 684 777.319 684C803.177 684 824.135 704.958 824.135 730.802Z" fill="#EA8F5E"/>
<path d="M461.835 671.494C430.952 693.479 406.296 661.748 394.642 682.987C391.611 688.508 393.249 694.546 395.843 698.927C397.56 701.834 441.596 778.388 537.811 778.388C634.041 778.388 681.53 702.064 683.279 699.142C686.882 693.101 687.063 687.697 684.605 682.987C672.952 661.748 648.295 693.479 617.412 671.494C586.536 649.508 569.839 635 539.62 635C509.407 635 492.718 649.508 461.835 671.494Z" fill="#EA8F5E"/>
<path d="M539.619 698.031C496.472 698.031 487.532 709.673 457.93 717.209C453.566 718.323 448.847 718.809 444.03 718.785C463.456 735.979 494.06 753.7 537.81 753.7C581.395 753.7 612.941 736.009 633.362 718.777C629.193 718.677 625.123 718.179 621.316 717.209C591.715 709.673 582.767 698.031 539.619 698.031Z" fill="#313234"/>
</svg>
