<svg width="1080" height="1080" viewBox="0 0 1080 1080" fill="none" xmlns="http://www.w3.org/2000/svg">
<path d="M1022.39 865.003L991.963 766.101C961.734 667.877 946.368 565.7 946.368 462.922C946.368 448.873 945.651 434.999 944.275 421.319C941.117 390.276 934.121 360.454 924.413 331.873C916.992 310.054 908.117 288.932 897.266 268.935C878.469 234.346 854.829 202.78 827.197 175.168C808.808 156.759 788.636 140.114 766.972 125.484C756.159 118.179 744.959 111.358 733.43 105.099C698.841 86.3028 661.191 72.3898 621.467 64.2707C594.959 58.8257 567.54 55.9966 539.443 55.9966C511.345 55.9966 483.926 58.8257 457.437 64.2707C417.694 72.3898 380.064 86.3028 345.456 105.099C333.945 111.358 322.745 118.179 311.913 125.484C290.269 140.114 270.097 156.759 251.708 175.168C214.871 211.985 185.088 255.836 164.509 304.512C149.066 341.019 138.776 380.258 134.63 421.319C133.234 434.999 132.517 448.873 132.517 462.922C132.517 565.7 117.151 667.877 86.9417 766.101L56.4999 865.003C55.531 868.219 55.0078 871.552 55.0078 874.924C55.0078 893.526 70.0834 908.602 88.6857 908.602H132.517C183.092 908.602 226.304 876.242 242.019 831.092C246.456 818.885 248.782 805.902 248.782 792.338V908.602C248.782 940.09 273.914 966.366 305.383 966.734C381.071 967.548 442.556 906.587 442.556 831.092V923.755C442.556 974.369 479.508 1019.58 529.87 1024.42C587.634 1029.96 636.33 984.619 636.33 927.979V831.092C636.33 906.587 697.814 967.548 773.502 966.734C804.971 966.366 830.104 940.09 830.104 908.602V792.338C830.104 805.902 832.429 818.885 836.886 831.092C852.581 876.242 895.793 908.602 946.368 908.602H990.2C1008.8 908.602 1023.88 893.526 1023.88 874.924C1023.88 871.552 1023.37 868.219 1022.39 865.003Z" fill="#FEFAEE"/>
<path d="M538.479 733.213L388.44 583.174C380.864 575.597 380.864 563.331 388.44 555.774L416.131 528.084C484.223 459.972 594.654 459.972 662.766 528.084L689.468 554.786C697.045 562.362 697.045 574.628 689.468 582.205L538.479 733.213Z" fill="#FCDC7E"/>
<mask id="mask0_10045_2220" style="mask-type:alpha" maskUnits="userSpaceOnUse" x="330" y="354" width="104" height="123">
<path d="M381.608 354.318C409.886 354.318 432.898 381.576 432.898 415.319C432.898 449.063 409.886 476.321 381.608 476.321C353.331 476.321 330.318 449.063 330.318 415.319C330.318 381.576 353.331 354.318 381.608 354.318Z" fill="#FCD53F" stroke="black" stroke-width="0.636014"/>
</mask>
<g mask="url(#mask0_10045_2220)">
<ellipse cx="381.608" cy="415.32" rx="51.6083" ry="61.3196" fill="white"/>
<ellipse cx="381.84" cy="438.614" rx="41.1607" ry="43.7658" fill="#313234"/>
</g>
<mask id="mask1_10045_2220" style="mask-type:alpha" maskUnits="userSpaceOnUse" x="669" y="354" width="104" height="123">
<path d="M720.608 354.318C748.886 354.318 771.898 381.576 771.898 415.319C771.898 449.063 748.886 476.321 720.608 476.321C692.331 476.321 669.318 449.063 669.318 415.319C669.318 381.576 692.331 354.318 720.608 354.318Z" fill="#FCD53F" stroke="black" stroke-width="0.636014"/>
</mask>
<g mask="url(#mask1_10045_2220)">
<ellipse cx="720.608" cy="415.32" rx="51.6083" ry="61.3196" fill="white"/>
<ellipse cx="720.838" cy="438.614" rx="41.1607" ry="43.7658" fill="#313234"/>
</g>
<path d="M320.632 481.802C320.632 507.677 299.674 528.638 273.816 528.638C247.958 528.638 227 507.677 227 481.802C227 455.958 247.958 435 273.816 435C299.674 435 320.632 455.958 320.632 481.802Z" fill="#FFBDA1"/>
<path d="M874.632 481.802C874.632 507.677 853.674 528.638 827.816 528.638C801.958 528.638 781 507.677 781 481.802C781 455.958 801.958 435 827.816 435C853.674 435 874.632 455.958 874.632 481.802Z" fill="#FFBDA1"/>
</svg>
