<svg width="1080" height="1080" viewBox="0 0 1080 1080" fill="none" xmlns="http://www.w3.org/2000/svg">
<g clip-path="url(#clip0_10044_19513)">
<path d="M638.959 264.605C638.959 138.901 737.912 37 859.981 37C982.046 37 1081 138.901 1081 264.605C1081 297.115 1074.38 328.03 1062.45 356.003C1044.02 399.238 1033.82 445.6 1034.66 492.592C1034.68 493.718 1034.69 494.842 1034.69 495.968C1034.69 595.331 956.467 675.879 859.981 675.879C763.492 675.879 685.273 595.331 685.273 495.968C685.273 494.84 685.283 493.714 685.302 492.592C686.143 445.6 675.941 399.238 657.508 356.003C645.579 328.03 638.959 297.115 638.959 264.605Z" fill="#B5D2F2"/>
<path d="M708.558 293.523C708.558 207.405 776.354 137.59 859.98 137.59C943.606 137.59 1011.4 207.403 1011.4 293.523C1011.4 315.794 1006.87 336.977 998.695 356.142C986.066 385.762 979.075 417.525 979.651 449.72C979.666 450.492 979.672 451.262 979.672 452.036C979.672 520.11 926.083 575.293 859.98 575.293C793.876 575.293 740.287 520.108 740.287 452.036C740.287 451.262 740.293 450.49 740.308 449.72C740.884 417.527 733.893 385.762 721.265 356.142C713.094 336.977 708.558 315.794 708.558 293.523Z" fill="#FFBDA1"/>
<path d="M442.041 264.605C442.041 138.901 343.088 37 221.019 37C98.9541 37 0 138.901 0 264.605C0 297.115 6.62008 328.03 18.5477 356.003C36.981 399.238 47.1832 445.6 46.3426 492.592C46.3232 493.718 46.3133 494.842 46.3131 495.968C46.3131 595.331 124.533 675.879 221.019 675.879C317.508 675.879 395.727 595.331 395.727 495.968C395.727 494.84 395.717 493.714 395.698 492.592C394.857 445.6 405.059 399.238 423.492 356.003C435.421 328.03 442.041 297.115 442.041 264.605Z" fill="#B5D2F2"/>
<path d="M372.442 293.523C372.442 207.405 304.646 137.59 221.02 137.59C137.394 137.59 69.5989 207.403 69.5989 293.523C69.5989 315.794 74.1336 336.977 82.3055 356.142C94.9338 385.762 101.925 417.525 101.349 449.72C101.334 450.492 101.328 451.262 101.328 452.036C101.328 520.11 154.917 575.293 221.02 575.293C287.124 575.293 340.713 520.108 340.713 452.036C340.713 451.262 340.707 450.49 340.692 449.72C340.116 417.527 347.107 385.762 359.735 356.142C367.906 336.977 372.442 315.794 372.442 293.523Z" fill="#FFBDA1"/>
<path d="M541.467 138C777.886 138 826.02 289.773 934.456 540.899C1042.89 792.001 784.195 941.972 541.534 941.999C541.511 941.999 541.489 942 541.467 942C298.805 941.972 40.1148 792 148.545 540.899C256.97 289.797 305.105 138.029 541.467 138Z" fill="#B5D2F2"/>
<path d="M350.632 750.802C350.632 776.677 329.674 797.638 303.816 797.638C277.958 797.638 257 776.677 257 750.802C257 724.958 277.958 704 303.816 704C329.674 704 350.632 724.958 350.632 750.802Z" fill="#FFBDA1"/>
<path d="M825.128 750.802C825.128 776.677 804.171 797.638 778.312 797.638C752.454 797.638 731.496 776.677 731.496 750.802C731.496 724.958 752.454 704 778.312 704C804.171 704 825.128 724.958 825.128 750.802Z" fill="#FFBDA1"/>
<mask id="mask0_10044_19513" style="mask-type:alpha" maskUnits="userSpaceOnUse" x="628" y="553" width="104" height="123">
<path d="M679.609 553.318C707.886 553.318 730.899 580.576 730.899 614.319C730.899 648.063 707.886 675.321 679.609 675.321C651.331 675.321 628.319 648.063 628.319 614.319C628.319 580.576 651.331 553.318 679.609 553.318Z" fill="#FCD53F" stroke="black" stroke-width="0.636014"/>
</mask>
<g mask="url(#mask0_10044_19513)">
<ellipse cx="679.609" cy="614.32" rx="51.6083" ry="61.3196" fill="white"/>
<ellipse cx="679.839" cy="637.614" rx="41.1607" ry="43.7658" fill="#313234"/>
</g>
<mask id="mask1_10044_19513" style="mask-type:alpha" maskUnits="userSpaceOnUse" x="351" y="553" width="104" height="123">
<path d="M402.608 553.318C430.886 553.318 453.898 580.576 453.898 614.319C453.898 648.063 430.886 675.321 402.608 675.321C374.331 675.321 351.318 648.063 351.318 614.319C351.318 580.576 374.331 553.318 402.608 553.318Z" fill="#FCD53F" stroke="black" stroke-width="0.636014"/>
</mask>
<g mask="url(#mask1_10044_19513)">
<ellipse cx="402.608" cy="614.32" rx="51.6083" ry="61.3196" fill="white"/>
<ellipse cx="402.839" cy="637.614" rx="41.1607" ry="43.7658" fill="#313234"/>
</g>
<path d="M857.35 918.073C660.563 897.701 661.122 850.185 665.733 676H419.585C396.812 1089.85 623.146 1067.18 856.097 1060.62C865.166 1060.36 871.951 1051.9 869.152 1043.27C861.526 1019.74 854.523 1023.51 854.614 994.274C854.704 965.034 862.077 963.035 869.784 935.418C872.106 927.098 865.942 918.962 857.35 918.073Z" fill="#B5D2F2"/>
<path d="M806.151 911.848C815.401 913.429 825.235 914.873 835.689 916.201C806.679 946.822 786.812 973.326 776.441 1007C774.465 1013.41 767.848 1016.67 761.662 1014.27C755.475 1011.88 752.062 1004.74 754.038 998.326C764.288 965.049 782.463 938.503 806.151 911.848ZM726.156 888.224C733.507 891.976 741.67 895.376 750.736 898.463C723.68 924.294 712.829 945.75 699.449 979.226C696.958 985.457 690.097 988.169 684.124 985.283C678.151 982.397 675.327 975.005 677.818 968.773C690.652 936.663 702.023 913.533 726.156 888.224ZM674.501 833C677.741 841.093 681.685 848.478 686.488 855.224C652.597 885.005 638.715 902.918 624.537 938.392C622.046 944.623 615.184 947.336 609.21 944.45C603.238 941.564 600.415 934.172 602.906 927.94C619.191 887.196 636.051 866.403 673.319 833.902C673.699 833.571 674.094 833.27 674.501 833Z" fill="#99B7D9"/>
</g>
<defs>
<clipPath id="clip0_10044_19513">
<rect width="1080" height="1080" fill="white"/>
</clipPath>
</defs>
</svg>
