<svg width="1080" height="1080" viewBox="0 0 1080 1080" fill="none" xmlns="http://www.w3.org/2000/svg">
<path d="M446.531 287.045C498.027 361.363 420.257 363.356 345.986 414.89C271.678 466.423 228.987 548.011 177.493 473.657C125.998 399.339 129.277 211.823 168.525 183.35C234.163 135.746 395.002 212.689 446.531 287.045Z" fill="#EA8F5E"/>
<path d="M392.012 328.175C421.782 371.189 376.789 372.354 333.802 402.147C290.848 431.977 266.123 479.208 236.318 436.191C206.512 393.175 189.328 293.905 232.319 264.04C275.307 234.248 362.206 285.159 392.012 328.175Z" fill="#FCDC7E"/>
<path d="M623.945 287.047C572.45 361.365 650.219 363.358 724.491 414.892C798.799 466.425 841.49 548.013 892.983 473.659C944.478 399.341 941.199 211.825 901.952 183.352C836.313 135.748 675.475 212.691 623.945 287.047Z" fill="#EA8F5E"/>
<path d="M678.464 328.177C648.695 371.191 693.687 372.356 736.675 402.148C779.628 431.979 804.353 479.21 834.159 436.193C863.965 393.177 881.149 293.907 838.157 264.042C795.17 234.25 708.27 285.161 678.464 328.177Z" fill="#FCDC7E"/>
<path d="M1033.45 748.658C967.758 696.922 944.856 609.342 902.482 531.532C898.283 523.823 894.446 515.932 890.846 507.927C829.991 372.559 694.269 281 539.97 281C385.547 281 249.731 372.707 188.949 508.255C185.349 516.284 181.504 524.201 177.303 531.931C135.071 609.645 112.134 697.007 46.5584 748.654C31.6341 760.408 34.7152 783.705 52.117 791.323C140.454 829.998 225.549 941.714 411.017 957.413C496.704 967.531 583.283 967.529 668.968 957.407C854.451 941.07 939.549 830 1027.89 791.323C1045.28 783.71 1048.37 760.402 1033.45 748.658Z" fill="#FCDC7E"/>
<path d="M587.929 169.536C603.91 176.617 612.681 196.347 607.521 213.606L581.976 299.041C577.052 315.509 561.223 323.776 545.901 318.348C542.235 324.493 536.879 329.55 530.302 332.464C514.322 339.544 497.184 331.293 492.024 314.034L466.479 228.599C461.319 211.34 470.09 191.61 486.07 184.529C502.051 177.449 519.188 185.701 524.349 202.959L534.759 237.775L549.651 187.966C554.812 170.707 571.949 162.456 587.929 169.536Z" fill="#EA8F5E"/>
<path fill-rule="evenodd" clip-rule="evenodd" d="M536.042 252.081C312.742 256.666 150.859 454.069 143.012 635.849C143.012 679.893 170.877 682.285 215.877 686.15C246.838 688.808 285.912 692.163 329.602 710.261C372.493 728.027 395.673 755.997 417.375 782.184C446.382 817.185 472.748 849 540.012 849C607.275 849 633.641 817.185 662.648 782.184C684.35 755.997 707.531 728.027 750.422 710.261C794.112 692.163 833.185 688.808 864.147 686.15C909.147 682.285 937.012 679.893 937.012 635.849C929.164 454.069 767.281 256.666 543.981 252.081L543.982 252C542.656 252 541.333 252.007 540.012 252.02C538.69 252.007 537.367 252 536.042 252L536.042 252.081Z" fill="#EA8F5E"/>
<path d="M498.128 853.919C509.778 867.971 525.661 876.533 542.851 875.046C572.377 872.53 587.296 851.713 595.515 832.203C600.09 821.369 602.525 808.673 596.054 798.052C590.45 788.836 579.926 784.195 569.648 782.578C557.54 780.682 545.187 780.649 533.03 781.663C521.233 782.659 506.543 783.575 497.147 787.561C485.252 792.611 476.02 800.83 481.739 823.64C484.533 834.784 490.922 845.209 498.128 853.919Z" fill="#313234"/>
<mask id="mask0_10044_20493" style="mask-type:alpha" maskUnits="userSpaceOnUse" x="367" y="575" width="104" height="123">
<path d="M418.608 575.318C446.886 575.318 469.898 602.576 469.898 636.319C469.898 670.063 446.886 697.321 418.608 697.321C390.331 697.321 367.318 670.063 367.318 636.319C367.318 602.576 390.331 575.318 418.608 575.318Z" fill="#FCD53F" stroke="black" stroke-width="0.636014"/>
</mask>
<g mask="url(#mask0_10044_20493)">
<ellipse cx="418.608" cy="636.32" rx="51.6083" ry="61.3196" fill="white"/>
<ellipse cx="433.839" cy="613.614" rx="43.8393" ry="46.614" fill="#313234"/>
</g>
<mask id="mask1_10044_20493" style="mask-type:alpha" maskUnits="userSpaceOnUse" x="620" y="575" width="104" height="123">
<path d="M671.608 575.318C699.886 575.318 722.898 602.576 722.898 636.319C722.898 670.063 699.886 697.321 671.608 697.321C643.331 697.321 620.318 670.063 620.318 636.319C620.318 602.576 643.331 575.318 671.608 575.318Z" fill="#FCD53F" stroke="black" stroke-width="0.636014"/>
</mask>
<g mask="url(#mask1_10044_20493)">
<ellipse cx="671.608" cy="636.32" rx="51.6083" ry="61.3196" fill="white"/>
<ellipse cx="686.839" cy="613.614" rx="43.8393" ry="46.614" fill="#313234"/>
</g>
<path d="M344.632 780.802C344.632 806.677 323.674 827.638 297.816 827.638C271.958 827.638 251 806.677 251 780.802C251 754.958 271.958 734 297.816 734C323.674 734 344.632 754.958 344.632 780.802Z" fill="#EA8F5E"/>
<path d="M819.128 780.802C819.128 806.677 798.171 827.638 772.312 827.638C746.454 827.638 725.496 806.677 725.496 780.802C725.496 754.958 746.454 734 772.312 734C798.171 734 819.128 754.958 819.128 780.802Z" fill="#EA8F5E"/>
</svg>
