<svg width="1080" height="1080" viewBox="0 0 1080 1080" fill="none" xmlns="http://www.w3.org/2000/svg">
<path d="M808.5 132C919.233 132 1009 218.185 1009 324.5C1009 358.885 999.607 391.163 983.154 419.102C1023.83 470.427 1047 529.559 1047 592.5C1047 789.39 820.232 949 540.5 949C260.768 949 34 789.39 34 592.5C34 528.965 57.6145 469.314 99.001 417.653C83.072 390.049 74 358.292 74 324.5C74 218.185 163.767 132 274.5 132C354.085 132 422.839 176.518 455.223 241.032C482.947 237.724 511.437 236 540.5 236C570.222 236 599.346 237.803 627.664 241.26C660 176.623 728.822 132 808.5 132Z" fill="#6AAA7D"/>
<path d="M593 451C593 479.719 569.495 503 540.5 503C511.505 503 488 479.719 488 451" stroke="#313234" stroke-width="20" stroke-linecap="round"/>
<path d="M607.708 345.58C585.715 345.58 567.885 327.75 567.885 305.757C567.885 303.17 568.913 300.687 570.744 298.858C572.574 297.028 575.055 296 577.644 296C599.637 296 617.467 313.828 617.467 335.821C617.465 338.41 616.437 340.891 614.607 342.721C612.778 344.552 610.295 345.58 607.708 345.58Z" fill="#313234"/>
<path d="M471.759 345.58C493.752 345.58 511.582 327.75 511.582 305.757C511.582 304.476 511.33 303.207 510.839 302.023C510.349 300.84 509.63 299.763 508.722 298.858C507.817 297.952 506.742 297.233 505.557 296.743C504.373 296.252 503.105 296 501.823 296C479.83 296 462 313.828 462 335.821C462.002 338.41 463.03 340.891 464.859 342.721C466.689 344.552 469.172 345.58 471.759 345.58Z" fill="#313234"/>
<mask id="mask0_10035_2948" style="mask-type:alpha" maskUnits="userSpaceOnUse" x="246" y="260" width="104" height="123">
<path d="M297.608 260.318C325.886 260.318 348.898 287.576 348.898 321.319C348.898 355.063 325.886 382.321 297.608 382.321C269.331 382.321 246.318 355.063 246.318 321.319C246.318 287.576 269.331 260.318 297.608 260.318Z" fill="#FCD53F" stroke="black" stroke-width="0.636014"/>
</mask>
<g mask="url(#mask0_10035_2948)">
<ellipse cx="297.608" cy="321.32" rx="51.6083" ry="61.3196" fill="white"/>
<ellipse cx="297.839" cy="344.614" rx="41.1607" ry="43.7658" fill="#313234"/>
</g>
<mask id="mask1_10035_2948" style="mask-type:alpha" maskUnits="userSpaceOnUse" x="732" y="260" width="104" height="123">
<path d="M783.608 260.318C811.886 260.318 834.898 287.576 834.898 321.319C834.898 355.063 811.886 382.321 783.608 382.321C755.331 382.321 732.318 355.063 732.318 321.319C732.318 287.576 755.331 260.318 783.608 260.318Z" fill="#FCD53F" stroke="black" stroke-width="0.636014"/>
</mask>
<g mask="url(#mask1_10035_2948)">
<ellipse cx="783.608" cy="321.32" rx="51.6083" ry="61.3196" fill="white"/>
<ellipse cx="783.839" cy="344.614" rx="41.1607" ry="43.7658" fill="#313234"/>
</g>
<path d="M349.632 476.802C349.632 502.677 328.674 523.638 302.816 523.638C276.958 523.638 256 502.677 256 476.802C256 450.958 276.958 430 302.816 430C328.674 430 349.632 450.958 349.632 476.802Z" fill="#EA8F5E"/>
<path d="M824.128 476.802C824.128 502.677 803.171 523.638 777.312 523.638C751.454 523.638 730.496 502.677 730.496 476.802C730.496 450.958 751.454 430 777.312 430C803.171 430 824.128 450.958 824.128 476.802Z" fill="#EA8F5E"/>
</svg>
