<svg width="1080" height="1080" viewBox="0 0 1080 1080" fill="none" xmlns="http://www.w3.org/2000/svg">
<path d="M51.2222 297.5C139.76 196.451 267.723 319.5 300.223 380.5C294.223 419 271.022 495.1 214.222 503.5C143.222 514 -40.7774 402.5 51.2222 297.5Z" fill="#FCDC7E"/>
<path d="M115.411 342.64C172.236 277.929 254.364 356.728 275.223 395.791C271.372 420.446 256.481 469.18 220.026 474.559C174.458 481.283 56.364 409.88 115.411 342.64Z" fill="#FFBDA1"/>
<path d="M1029.22 297.5C940.685 196.451 812.722 319.5 780.223 380.5C786.223 419 809.423 495.1 866.223 503.5C937.223 514 1121.22 402.5 1029.22 297.5Z" fill="#FCDC7E"/>
<path d="M965.035 342.64C908.21 277.929 826.081 356.728 805.223 395.791C809.074 420.446 823.964 469.18 860.419 474.559C905.988 481.283 1024.08 409.88 965.035 342.64Z" fill="#FFBDA1"/>
<path d="M529.689 257C767.872 257 816.365 402.355 925.611 642.861C1034.85 883.344 774.229 1026.97 529.756 1027C529.734 1027 529.711 1027 529.689 1027C285.217 1026.97 24.5957 883.344 133.835 642.861C243.07 402.378 291.564 257.027 529.689 257Z" fill="#FCDC7E"/>
<path d="M353.884 185.395L420.537 162.256L521.645 367.445L401.669 409.096L353.884 185.395Z" fill="#FCDC7E"/>
<circle cx="379.223" cy="128" r="75" fill="#EA8F5E"/>
<path d="M725.983 185.395L659.33 162.256L558.222 367.445L678.198 409.096L725.983 185.395Z" fill="#FCDC7E"/>
<circle cx="75" cy="75" r="75" transform="matrix(-1 0 0 1 775.645 53)" fill="#EA8F5E"/>
<mask id="mask0_10044_20636" style="mask-type:alpha" maskUnits="userSpaceOnUse" x="108" y="257" width="844" height="770">
<path d="M529.689 257C767.872 257 816.365 402.355 925.611 642.861C1034.85 883.344 774.229 1026.97 529.756 1027C529.734 1027 529.711 1027 529.689 1027C285.217 1026.97 24.5957 883.344 133.835 642.861C243.07 402.378 291.564 257.027 529.689 257Z" fill="#FCDC7E"/>
</mask>
<g mask="url(#mask0_10044_20636)">
<path d="M571.04 365.421C596.628 402.421 605.196 449.089 568.195 474.677C531.195 500.266 462.638 495.083 437.049 458.082C411.461 421.082 405.805 351.772 442.802 326.183C479.802 300.595 545.447 328.42 571.04 365.421Z" fill="#EA8F5E"/>
<path d="M566.697 318.745L660.12 327.132C671.319 328.137 682.128 331.777 691.657 337.752C701.185 343.727 709.169 351.869 714.954 361.515C735.038 395.007 778.308 406.138 812.066 386.5L889.975 341.172C817.506 296.236 735.781 263.97 647.488 247.872L628.631 244.434C592.385 237.825 556.21 234.173 520.376 233.282C512.578 233.09 505.1 236.408 499.876 242.201C496.094 246.385 493.72 251.65 493.086 257.254C492.456 262.86 493.595 268.521 496.346 273.444L496.646 273.971C511.095 299.523 537.45 316.121 566.697 318.745Z" fill="#EA8F5E"/>
<path d="M645.762 444.408C672.69 449.318 698.499 431.469 703.409 404.541C708.319 377.611 690.47 351.8 663.542 346.89C636.61 341.98 610.8 359.83 605.89 386.76C600.98 413.689 618.829 439.498 645.762 444.408Z" fill="#EA8F5E"/>
</g>
<path d="M298.855 726.802C298.855 752.677 277.897 773.638 252.039 773.638C226.181 773.638 205.223 752.677 205.223 726.802C205.223 700.958 226.181 680 252.039 680C277.897 680 298.855 700.958 298.855 726.802Z" fill="#FFBDA1"/>
<path d="M861.855 726.802C861.855 752.677 840.897 773.638 815.039 773.638C789.181 773.638 768.223 752.677 768.223 726.802C768.223 700.958 789.181 680 815.039 680C840.897 680 861.855 700.958 861.855 726.802Z" fill="#FFBDA1"/>
<mask id="mask1_10044_20636" style="mask-type:alpha" maskUnits="userSpaceOnUse" x="327" y="576" width="104" height="123">
<path d="M378.831 576.318C407.109 576.318 430.121 603.576 430.121 637.319C430.121 671.063 407.109 698.321 378.831 698.321C350.553 698.321 327.541 671.063 327.541 637.319C327.541 603.576 350.553 576.318 378.831 576.318Z" fill="#FCD53F" stroke="black" stroke-width="0.636014"/>
</mask>
<g mask="url(#mask1_10044_20636)">
<ellipse cx="378.831" cy="637.32" rx="51.6083" ry="61.3196" fill="white"/>
<ellipse cx="389.383" cy="619.766" rx="41.1607" ry="43.7658" fill="#313234"/>
</g>
<mask id="mask2_10044_20636" style="mask-type:alpha" maskUnits="userSpaceOnUse" x="637" y="576" width="104" height="123">
<path d="M688.831 576.318C717.109 576.318 740.121 603.576 740.121 637.319C740.121 671.063 717.109 698.321 688.831 698.321C660.553 698.321 637.541 671.063 637.541 637.319C637.541 603.576 660.553 576.318 688.831 576.318Z" fill="#FCD53F" stroke="black" stroke-width="0.636014"/>
</mask>
<g mask="url(#mask2_10044_20636)">
<ellipse cx="688.831" cy="637.32" rx="51.6083" ry="61.3196" fill="white"/>
<ellipse cx="699.383" cy="619.766" rx="41.1607" ry="43.7658" fill="#313234"/>
</g>
<path d="M779.767 790.713L779.615 789.147C778.865 781.419 775.457 774.179 769.904 768.766C714.331 714.599 629.694 680 534.878 680C439.12 680 353.749 715.294 298.21 770.394C292.77 775.791 289.426 782.958 288.689 790.595L288.678 790.714C284.234 836.788 312.686 880.006 357.506 894.573C474.126 932.475 594.31 932.476 710.938 894.573C755.759 880.006 784.212 836.787 779.767 790.713Z" fill="#EA8F5E"/>
<path d="M496.92 767.722C498.709 778.062 495.258 793.634 485.19 795.375C475.123 797.117 462.25 784.369 460.461 774.029C458.673 763.689 465.384 753.895 475.452 752.154C485.52 750.412 495.131 757.382 496.92 767.722Z" fill="#313234"/>
<path d="M570.526 767.722C568.738 778.062 572.188 793.634 582.256 795.375C592.324 797.117 605.196 784.369 606.985 774.029C608.774 763.689 602.062 753.895 591.994 752.154C581.927 750.412 572.315 757.382 570.526 767.722Z" fill="#313234"/>
</svg>
