<svg width="1080" height="1080" viewBox="0 0 1080 1080" fill="none" xmlns="http://www.w3.org/2000/svg">
<path d="M989 28.8382C989 36.3255 984.513 43.1302 977.677 46.5433C869.999 99.6584 792.445 204.822 777.917 328.971C776.208 342.858 775.353 357.15 775.353 371.634V390C771.081 385.926 766.808 381.894 762.107 378.033H761.894C756.125 373.148 749.93 368.434 743.52 364.381C740.529 362.248 737.538 360.328 734.333 358.622C727.924 354.782 721.301 351.369 714.464 348.382C710.832 346.484 707.2 344.969 703.568 343.711C701.859 342.858 699.936 342.196 698.227 341.556C693.954 340.063 689.681 338.591 685.195 337.525C684.34 337.077 683.485 336.863 682.631 336.672C678.144 335.37 673.658 334.304 669.171 333.45C661.907 331.957 654.643 330.677 647.166 330.037C640.115 329.397 633.065 328.971 625.801 328.971H607C628.151 148.721 781.549 9 967.635 9H969.131C980.027 9 989 17.9592 989 28.8382Z" fill="#EA8F5E"/>
<path d="M474 328.989H455.199C447.935 328.989 440.885 329.415 433.834 330.055C390.464 334.322 350.726 351.601 319.106 378.054H318.893C314.192 381.894 309.919 385.947 305.647 390V371.654C305.647 357.148 304.792 342.855 303.083 328.989C288.555 204.833 211.001 99.6635 103.323 46.5453C96.4866 43.1321 92 36.3057 92 28.8393C92 17.9597 100.973 9 111.869 9H113.365C299.451 9 452.849 148.728 474 328.989Z" fill="#EA8F5E"/>
<path d="M672.297 919C651.249 963.419 621.829 1002.39 585.235 1032.97L540.268 1070.49L495.302 1032.97C458.707 1002.39 429.048 963.419 408 919C425.46 924.257 443.877 927.124 463.012 927.124H617.524C636.42 927.124 654.837 924.257 672.297 919Z" fill="#FEFAEE"/>
<path d="M301.716 258.009V275.132C261.577 314.558 236.626 369.416 236.626 429.888V567.087C168.282 625.825 65.6562 622.791 1 558.201L301.716 258.009Z" fill="#FEFAEE"/>
<path d="M1079.76 558.192C1015.1 622.782 912.474 625.816 844.13 567.078V429.879C844.13 369.407 819.178 314.57 779.04 275.123V258L1079.76 558.192Z" fill="#FEFAEE"/>
<path d="M540.466 153C778.65 153 827.143 308.36 936.388 565.42C1045.63 822.456 785.006 975.971 540.534 975.999C540.511 975.999 540.489 976 540.466 976C295.994 975.972 35.373 822.456 144.612 565.42C253.847 308.384 302.341 153.029 540.466 153Z" fill="#FEFAEE"/>
<path d="M260.632 655.802C260.632 681.677 239.674 702.638 213.816 702.638C187.958 702.638 167 681.677 167 655.802C167 629.958 187.958 609 213.816 609C239.674 609 260.632 629.958 260.632 655.802Z" fill="#FFBDA1"/>
<path d="M914.632 655.802C914.632 681.677 893.674 702.638 867.816 702.638C841.958 702.638 821 681.677 821 655.802C821 629.958 841.958 609 867.816 609C893.674 609 914.632 629.958 914.632 655.802Z" fill="#FFBDA1"/>
<mask id="mask0_10044_21181" style="mask-type:alpha" maskUnits="userSpaceOnUse" x="324" y="533" width="104" height="123">
<path d="M375.608 533.318C403.886 533.318 426.898 560.576 426.898 594.319C426.898 628.063 403.886 655.321 375.608 655.321C347.331 655.321 324.318 628.063 324.318 594.319C324.318 560.576 347.331 533.318 375.608 533.318Z" fill="#FCD53F" stroke="black" stroke-width="0.636014"/>
</mask>
<g mask="url(#mask0_10044_21181)">
<ellipse cx="375.608" cy="594.32" rx="51.6083" ry="61.3196" fill="white"/>
<ellipse cx="375.839" cy="617.614" rx="41.1607" ry="43.7658" fill="#313234"/>
</g>
<mask id="mask1_10044_21181" style="mask-type:alpha" maskUnits="userSpaceOnUse" x="653" y="533" width="104" height="123">
<path d="M704.608 533.318C732.886 533.318 755.898 560.576 755.898 594.319C755.898 628.063 732.886 655.321 704.608 655.321C676.331 655.321 653.318 628.063 653.318 594.319C653.318 560.576 676.331 533.318 704.608 533.318Z" fill="#FCD53F" stroke="black" stroke-width="0.636014"/>
</mask>
<g mask="url(#mask1_10044_21181)">
<ellipse cx="704.608" cy="594.32" rx="51.6083" ry="61.3196" fill="white"/>
<ellipse cx="704.839" cy="617.614" rx="41.1607" ry="43.7658" fill="#313234"/>
</g>
<path d="M543.347 815C542.837 831.642 545.408 865.535 586.229 868C590.397 868 601.49 864.919 607.652 853.826" stroke="#313234" stroke-width="20" stroke-linecap="round"/>
<path d="M541.305 815C541.815 831.642 539.244 865.535 498.423 868C494.256 868 483.163 864.919 477 853.826" stroke="#313234" stroke-width="20" stroke-linecap="round"/>
<path d="M612.51 766.578C612.51 771.142 611.553 775.729 609.879 780.03C607.009 787.676 601.268 794.032 594.093 798.094L540.755 826.575L487.417 798.094C480.242 794.032 474.501 787.676 471.631 780.03C469.957 775.729 469 771.142 469 766.578C469 747.009 483.829 731 502.246 731H579.263C597.68 731 612.51 747.009 612.51 766.578Z" fill="#EA8F5E"/>
</svg>
