<svg width="1080" height="1080" viewBox="0 0 1080 1080" fill="none" xmlns="http://www.w3.org/2000/svg">
<circle cx="162.582" cy="508.582" r="140.582" fill="#313234"/>
<circle cx="162.582" cy="508.582" r="105.437" fill="#716E6E"/>
<circle cx="917.747" cy="508.582" r="140.582" fill="#313234"/>
<circle cx="917.749" cy="508.582" r="105.437" fill="#716E6E"/>
<path d="M540.463 140C798.425 140 850.945 305.742 969.261 579.982C1087.57 854.195 805.309 1017.97 540.537 1018C540.512 1018 540.488 1018 540.463 1018C275.691 1017.97 -6.57111 854.195 111.739 579.982C230.044 305.768 282.565 140.031 540.463 140Z" fill="#313234"/>
<path d="M517.043 89.8146C516.776 74.7802 526.609 62.3301 539.005 62.0064C551.401 61.6828 561.666 73.6082 561.933 88.6426L562.312 109.978L568.274 90.111C572.515 75.9801 585.397 68.6941 597.049 73.8373C608.7 78.9806 614.707 94.6054 610.466 108.736L589.991 176.967C585.75 191.098 572.867 198.384 561.216 193.24C557.486 191.594 554.334 188.873 551.912 185.47C548.766 187.653 545.138 188.942 541.26 189.043C538.081 189.126 535.043 188.404 532.278 187.03C530.209 194.71 525.355 201.2 518.61 204.177C506.959 209.32 494.076 202.034 489.836 187.903L469.36 119.673C465.119 105.542 471.127 89.917 482.778 84.7738C494.429 79.6305 507.312 86.9165 511.553 101.047L517.6 121.199L517.043 89.8146Z" fill="#313234"/>
<path d="M645.208 340C717.953 340 776.925 398.972 776.925 471.717C776.925 509.217 761.253 543.056 736.102 567.044C732.582 570.402 732.645 576.162 736.3 579.371C773.489 612.016 796.966 659.905 796.966 713.278C796.966 797.946 737.542 872.813 653.424 882.447C574.712 891.462 505.321 891.305 426.64 882.251C342.411 872.558 282.714 797.721 282.714 712.937C282.714 659.66 306.149 611.858 343.273 579.276C346.927 576.069 346.993 570.313 343.478 566.954C318.383 542.972 302.75 509.17 302.75 471.717C302.75 398.972 361.722 340 434.467 340C473.903 340 509.29 357.332 533.43 384.793C536.785 388.61 542.889 388.61 546.244 384.793C570.383 357.331 605.772 340 645.208 340Z" fill="#716E6E"/>
<path d="M577 782C577 802.08 560.658 818.358 540.5 818.358C520.342 818.358 504 802.08 504 782" stroke="#313234" stroke-width="20" stroke-linecap="round"/>
<mask id="mask0_10035_3487" style="mask-type:alpha" maskUnits="userSpaceOnUse" x="384" y="487" width="104" height="123">
<path d="M435.608 487.318C463.886 487.318 486.898 514.576 486.898 548.319C486.898 582.063 463.886 609.321 435.608 609.321C407.331 609.321 384.318 582.063 384.318 548.319C384.318 514.576 407.331 487.318 435.608 487.318Z" fill="#FCD53F" stroke="black" stroke-width="0.636014"/>
</mask>
<g mask="url(#mask0_10035_3487)">
<ellipse cx="435.608" cy="548.32" rx="51.6083" ry="61.3196" fill="white"/>
<ellipse cx="435.839" cy="571.614" rx="41.1607" ry="43.7658" fill="#313234"/>
</g>
<mask id="mask1_10035_3487" style="mask-type:alpha" maskUnits="userSpaceOnUse" x="593" y="487" width="104" height="123">
<path d="M644.825 487.318C673.102 487.318 696.115 514.576 696.115 548.319C696.115 582.063 673.102 609.321 644.825 609.321C616.547 609.321 593.535 582.063 593.535 548.319C593.535 514.576 616.547 487.318 644.825 487.318Z" fill="#FCD53F" stroke="black" stroke-width="0.636014"/>
</mask>
<g mask="url(#mask1_10035_3487)">
<ellipse cx="644.825" cy="548.32" rx="51.6083" ry="61.3196" fill="white"/>
<ellipse cx="645.056" cy="571.614" rx="41.1607" ry="43.7658" fill="#313234"/>
</g>
<path d="M400.632 695.802C400.632 721.677 379.674 742.638 353.816 742.638C327.958 742.638 307 721.677 307 695.802C307 669.958 327.958 649 353.816 649C379.674 649 400.632 669.958 400.632 695.802Z" fill="#FFBDA1"/>
<path d="M772.632 695.802C772.632 721.677 751.674 742.638 725.816 742.638C699.958 742.638 679 721.677 679 695.802C679 669.958 699.958 649 725.816 649C751.674 649 772.632 669.958 772.632 695.802Z" fill="#FFBDA1"/>
<path d="M607.708 707.58C585.715 707.58 567.885 689.75 567.885 667.757C567.885 665.17 568.913 662.687 570.744 660.858C572.574 659.028 575.055 658 577.644 658C599.637 658 617.467 675.828 617.467 697.821C617.465 700.41 616.437 702.891 614.607 704.721C612.778 706.552 610.295 707.58 607.708 707.58Z" fill="#313234"/>
<path d="M471.759 707.58C493.752 707.58 511.582 689.75 511.582 667.757C511.582 666.476 511.33 665.207 510.839 664.023C510.349 662.84 509.63 661.763 508.722 660.858C507.817 659.952 506.742 659.233 505.557 658.743C504.373 658.252 503.105 658 501.823 658C479.83 658 462 675.828 462 697.821C462.002 700.41 463.03 702.891 464.859 704.721C466.689 706.552 469.172 707.58 471.759 707.58Z" fill="#313234"/>
</svg>
