<svg width="1080" height="1080" viewBox="0 0 1080 1080" fill="none" xmlns="http://www.w3.org/2000/svg">
<path d="M98 709.602C98 637.846 171.107 516.122 244.5 426L445.474 268.102C479.308 254.631 513.586 247 547.283 247C579.055 247 610.649 253.131 641.484 264.097L843 426C913.894 516.897 989 638.953 989 709.602C989 906.863 802.769 986 697.432 986C637.831 986 608.798 972.712 586.555 962.531L586.555 962.531C572.744 956.21 561.55 951.087 547.283 951.087C534.271 951.087 523.39 955.348 509.23 960.893C482.858 971.22 445.114 986 361.052 986C249.313 986 98 876.605 98 709.602Z" fill="#FCDC7E"/>
<circle cx="773" cy="305" r="137" fill="#FCDC7E"/>
<circle cx="773.36" cy="304.64" r="103.471" fill="#EA8F5E"/>
<circle cx="307" cy="305" r="137" fill="#FCDC7E"/>
<circle cx="307.361" cy="304.64" r="103.471" fill="#EA8F5E"/>
<path d="M353.632 802.802C353.632 828.677 332.674 849.638 306.816 849.638C280.958 849.638 260 828.677 260 802.802C260 776.958 280.958 756 306.816 756C332.674 756 353.632 776.958 353.632 802.802Z" fill="#EA8F5E"/>
<path d="M827.632 802.802C827.632 828.677 806.674 849.638 780.816 849.638C754.958 849.638 734 828.677 734 802.802C734 776.958 754.958 756 780.816 756C806.674 756 827.632 776.958 827.632 802.802Z" fill="#EA8F5E"/>
<mask id="mask0_10035_3253" style="mask-type:alpha" maskUnits="userSpaceOnUse" x="328" y="589" width="104" height="123">
<path d="M379.608 589.318C407.886 589.318 430.898 616.576 430.898 650.319C430.898 684.063 407.886 711.321 379.608 711.321C351.331 711.321 328.318 684.063 328.318 650.319C328.318 616.576 351.331 589.318 379.608 589.318Z" fill="#FCD53F" stroke="black" stroke-width="0.636014"/>
</mask>
<g mask="url(#mask0_10035_3253)">
<ellipse cx="379.608" cy="650.32" rx="51.6083" ry="61.3196" fill="white"/>
<ellipse cx="379.839" cy="673.614" rx="41.1607" ry="43.7658" fill="#313234"/>
</g>
<mask id="mask1_10035_3253" style="mask-type:alpha" maskUnits="userSpaceOnUse" x="656" y="589" width="105" height="123">
<path d="M708.608 589.318C736.886 589.318 759.898 616.576 759.898 650.319C759.898 684.063 736.886 711.321 708.608 711.321C680.33 711.321 657.318 684.063 657.318 650.319C657.318 616.576 680.331 589.318 708.608 589.318Z" fill="#FCD53F" stroke="black" stroke-width="0.636014"/>
</mask>
<g mask="url(#mask1_10035_3253)">
<ellipse cx="708.608" cy="650.32" rx="51.6083" ry="61.3196" fill="white"/>
<ellipse cx="708.839" cy="673.614" rx="41.1607" ry="43.7658" fill="#313234"/>
</g>
<path d="M541.829 760C541.415 773.502 543.501 801 576.62 803C580.001 803 589.001 800.5 594.001 791.5" stroke="#313234" stroke-width="20" stroke-linecap="round"/>
<path d="M540.172 760C540.586 773.502 538.5 801 505.381 803C502 803 493 800.5 488 791.5" stroke="#313234" stroke-width="20" stroke-linecap="round"/>
<path d="M543.087 760C576.348 760 597 711.511 597 701.026C597 690.542 587.957 677 543.087 677C492.217 677 487 688.795 487 701.026C487 709.982 509.826 760 543.087 760Z" fill="#EA8F5E"/>
<path d="M353.632 805.802C353.632 831.677 332.674 852.638 306.816 852.638C280.958 852.638 260 831.677 260 805.802C260 779.958 280.958 759 306.816 759C332.674 759 353.632 779.958 353.632 805.802Z" fill="#EA8F5E"/>
<path d="M828.128 805.802C828.128 831.677 807.171 852.638 781.312 852.638C755.454 852.638 734.496 831.677 734.496 805.802C734.496 779.958 755.454 759 781.312 759C807.171 759 828.128 779.958 828.128 805.802Z" fill="#EA8F5E"/>
</svg>
