<svg width="1080" height="1080" viewBox="0 0 1080 1080" fill="none" xmlns="http://www.w3.org/2000/svg">
<path d="M75.2273 361.495C199.976 67.8506 370.589 10.9364 633.792 33.3939C794.011 51.7062 913.714 157.193 1005.77 373.888C1136.99 682.754 960.332 867.692 891.917 908.206C837.184 940.618 513.368 952 513.368 952C513.368 952 236.364 923.813 189.083 895.814C120.668 855.299 -55.9878 670.361 75.2273 361.495Z" fill="#EA8F5E"/>
<path d="M161.126 271.302C107.126 322.302 156.126 411.302 221.626 420.802C221.626 420.802 242.626 382.802 259.126 362.802C275.626 342.802 319.126 318.802 319.126 318.802C291.126 266.635 237.144 199.507 161.126 271.302Z" fill="#FCDC7E"/>
<path d="M189.713 297.117C152.148 332.658 186.235 394.681 231.8 401.302C231.8 401.302 246.409 374.82 257.887 360.882C269.365 346.945 299.626 330.219 299.626 330.219C280.148 293.865 242.595 247.084 189.713 297.117Z" fill="#EA8F5E"/>
<path d="M904 271.302C958 322.302 909 411.302 843.501 420.802C843.501 420.802 822.5 382.802 806 362.802C789.5 342.802 746 318.802 746 318.802C774 266.635 827.982 199.507 904 271.302Z" fill="#FCDC7E"/>
<path d="M875.413 297.117C912.978 332.658 878.891 394.681 833.326 401.302C833.326 401.302 818.718 374.82 807.24 360.882C795.761 346.945 765.5 330.219 765.5 330.219C784.979 293.865 822.531 247.084 875.413 297.117Z" fill="#EA8F5E"/>
<path d="M591.641 318.38C647.856 294.872 727.083 256.494 795.713 310.246C867.213 366.246 926.213 545.746 924.713 620.246C923.213 694.746 961.213 919.746 773.713 977.746C687.659 1004.37 602.646 1011.52 535.481 1010.49C468.31 1011.52 383.283 1004.37 297.213 977.746C109.714 919.746 147.713 694.746 146.213 620.246C144.714 545.746 203.714 366.246 275.213 310.246C343.843 256.494 423.069 294.872 479.285 318.38C494.808 323.629 514.771 328.335 535.463 329.04C556.155 328.335 576.118 323.629 591.641 318.38Z" fill="#FCDC7E"/>
<path d="M226.948 814.313C247.348 880.713 305.448 878.813 345.948 858.813C376.448 835.313 376.448 788.813 338.448 739.813C300.448 690.813 258.448 696.813 244.948 703.313C231.448 709.813 201.448 731.313 226.948 814.313Z" fill="#EA8F5E"/>
<path d="M843.462 814.313C823.062 880.713 764.962 878.813 724.462 858.813C693.962 835.313 693.962 788.813 731.962 739.813C769.962 690.813 811.962 696.813 825.462 703.313C838.962 709.813 868.962 731.313 843.462 814.313Z" fill="#EA8F5E"/>
<path d="M590 522.998C590 553.985 563.286 562.498 536.5 562.498C509.714 562.498 481 553.985 481 522.998C481 492.011 509.714 481.498 536.5 481.498C563.286 481.498 590 492.011 590 522.998Z" fill="#EA8F5E"/>
<path d="M590 574.998C590 594.881 565.6 610.998 535.5 610.998C505.4 610.998 481 594.881 481 574.998" stroke="#313234" stroke-width="20" stroke-linecap="round"/>
<path d="M349.632 567.801C349.632 593.675 328.674 614.636 302.816 614.636C276.958 614.636 256 593.675 256 567.801C256 541.956 276.958 520.998 302.816 520.998C328.674 520.998 349.632 541.956 349.632 567.801Z" fill="#FFBDA1"/>
<path d="M824.264 567.801C824.264 593.675 803.307 614.636 777.449 614.636C751.59 614.636 730.632 593.675 730.632 567.801C730.632 541.956 751.59 520.998 777.449 520.998C803.307 520.998 824.264 541.956 824.264 567.801Z" fill="#FFBDA1"/>
<mask id="mask0_10044_20770" style="mask-type:alpha" maskUnits="userSpaceOnUse" x="336" y="420" width="104" height="124">
<path d="M387.608 421.317C415.886 421.317 438.898 448.574 438.898 482.318C438.898 516.061 415.886 543.32 387.608 543.32C359.331 543.32 336.318 516.061 336.318 482.318C336.318 448.574 359.331 421.317 387.608 421.317Z" fill="#FCD53F" stroke="black" stroke-width="0.636014"/>
</mask>
<g mask="url(#mask0_10044_20770)">
<ellipse cx="387.608" cy="482.318" rx="51.6083" ry="61.3196" fill="white"/>
<ellipse cx="387.839" cy="505.612" rx="41.1607" ry="43.7658" fill="#313234"/>
</g>
<mask id="mask1_10044_20770" style="mask-type:alpha" maskUnits="userSpaceOnUse" x="630" y="420" width="104" height="124">
<path d="M681.608 421.317C709.886 421.317 732.898 448.574 732.898 482.318C732.898 516.061 709.886 543.32 681.608 543.32C653.331 543.32 630.318 516.061 630.318 482.318C630.318 448.574 653.331 421.317 681.608 421.317Z" fill="#FCD53F" stroke="black" stroke-width="0.636014"/>
</mask>
<g mask="url(#mask1_10044_20770)">
<ellipse cx="681.608" cy="482.318" rx="51.6083" ry="61.3196" fill="white"/>
<ellipse cx="681.839" cy="505.612" rx="41.1607" ry="43.7658" fill="#313234"/>
</g>
<path d="M276.031 961.19C298.031 933.59 397.865 974.69 445.031 998.69C433.031 1036.19 391.031 1051.69 327.531 1050.19C264.031 1048.69 248.531 995.69 276.031 961.19Z" fill="#FCDC7E"/>
<path d="M805.531 961.19C783.531 933.59 683.698 974.69 636.531 998.69C648.531 1036.19 690.531 1051.69 754.031 1050.19C817.531 1048.69 833.031 995.69 805.531 961.19Z" fill="#FCDC7E"/>
</svg>
