<svg width="1080" height="1080" viewBox="0 0 1080 1080" fill="none" xmlns="http://www.w3.org/2000/svg">
<path d="M746.403 58.6647C702.85 102.218 702.85 172.832 746.403 216.385L873.6 89.187C891.852 70.9365 884.677 39.6265 860.157 31.5731C821.455 18.863 777.175 27.893 746.403 58.6647Z" fill="#FFBDA1"/>
<path d="M356.432 58.6646C399.984 102.217 399.984 172.832 356.432 216.384L229.236 89.1886C210.985 70.9379 218.158 39.6281 242.679 31.5747C281.38 18.8628 325.659 27.8928 356.432 58.6646Z" fill="#FFBDA1"/>
<path d="M781.822 94.0833C809.515 66.3897 848.148 56.3156 883.811 63.8411C883.522 49.9319 875.045 36.4645 860.155 31.575C821.455 18.8649 777.175 27.8949 746.403 58.6667C702.85 102.22 702.85 172.834 746.403 216.387L754.809 207.98C742.024 169.243 751.009 124.896 781.822 94.0833Z" fill="#B5D2F2"/>
<path d="M321.017 94.0833C293.323 66.3897 254.69 56.3156 219.027 63.8411C219.316 49.9319 227.794 36.4645 242.683 31.575C281.384 18.8649 325.663 27.8949 356.436 58.6667C399.988 102.22 399.988 172.834 356.436 216.387L348.029 207.98C360.814 169.243 351.829 124.896 321.017 94.0833Z" fill="#B5D2F2"/>
<path d="M540.462 138C809.725 138 864.546 310.916 988.046 597.024C1111.54 883.105 816.911 1053.97 540.538 1054C540.513 1054 540.487 1054 540.462 1054C264.089 1053.97 -30.5392 883.105 92.954 597.024C216.443 310.943 271.265 138.033 540.462 138Z" fill="#B5D2F2"/>
<path d="M350.632 515.802C350.632 541.677 329.674 562.638 303.816 562.638C277.958 562.638 257 541.677 257 515.802C257 489.958 277.958 469 303.816 469C329.674 469 350.632 489.958 350.632 515.802Z" fill="#EA8F5E"/>
<path d="M825.128 515.802C825.128 541.677 804.171 562.638 778.312 562.638C752.454 562.638 731.496 541.677 731.496 515.802C731.496 489.958 752.454 469 778.312 469C804.171 469 825.128 489.958 825.128 515.802Z" fill="#EA8F5E"/>
<path d="M361.736 955.473H315.88C292.837 955.473 274.154 936.793 274.154 913.747V834.04H403.46V913.747C403.46 936.792 384.779 955.473 361.736 955.473Z" fill="white"/>
<path d="M766.515 955.473H720.66C697.617 955.473 678.934 936.793 678.934 913.747V834.04H808.24V913.747C808.24 936.792 789.558 955.473 766.515 955.473Z" fill="white"/>
<path d="M726.338 893.492L668.445 886.691C584.034 876.776 498.752 876.776 414.34 886.691L356.448 893.492C243.888 906.715 145 818.762 145 705.429C145 584.686 256.487 494.784 374.487 520.376L485.06 544.354C522.183 552.405 560.6 552.405 597.723 544.354L708.295 520.376C826.295 494.784 937.783 584.686 937.783 705.429C937.786 818.762 838.898 906.714 726.338 893.492Z" fill="#FFBDA1"/>
<path d="M416.196 666.857C398.618 700.501 360.551 715.301 331.171 699.917C301.792 684.532 292.226 644.786 309.805 611.143C327.383 577.499 365.448 562.699 394.829 578.083C424.207 593.468 433.774 633.214 416.196 666.857Z" fill="#313234"/>
<path d="M666.804 666.857C684.382 700.501 722.449 715.301 751.829 699.917C781.208 684.532 790.774 644.786 773.195 611.143C755.617 577.499 717.552 562.699 688.171 578.083C658.793 593.468 649.226 633.214 666.804 666.857Z" fill="#313234"/>
<mask id="mask0_10044_20702" style="mask-type:alpha" maskUnits="userSpaceOnUse" x="365" y="369" width="104" height="123">
<path d="M416.608 369.318C444.886 369.318 467.898 396.576 467.898 430.319C467.898 464.063 444.886 491.321 416.608 491.321C388.331 491.321 365.318 464.063 365.318 430.319C365.318 396.576 388.331 369.318 416.608 369.318Z" fill="#FCD53F" stroke="black" stroke-width="0.636014"/>
</mask>
<g mask="url(#mask0_10044_20702)">
<ellipse cx="416.608" cy="430.32" rx="51.6083" ry="61.3196" fill="white"/>
<ellipse cx="416.839" cy="453.614" rx="41.1607" ry="43.7658" fill="#313234"/>
</g>
<mask id="mask1_10044_20702" style="mask-type:alpha" maskUnits="userSpaceOnUse" x="613" y="369" width="105" height="123">
<path d="M665.608 369.318C693.886 369.318 716.898 396.576 716.898 430.319C716.898 464.063 693.886 491.321 665.608 491.321C637.331 491.321 614.318 464.063 614.318 430.319C614.318 396.576 637.331 369.318 665.608 369.318Z" fill="#FCD53F" stroke="black" stroke-width="0.636014"/>
</mask>
<g mask="url(#mask1_10044_20702)">
<ellipse cx="665.608" cy="430.32" rx="51.6083" ry="61.3196" fill="white"/>
<ellipse cx="665.839" cy="453.614" rx="41.1607" ry="43.7658" fill="#313234"/>
</g>
</svg>
