<svg width="1080" height="1080" viewBox="0 0 1080 1080" fill="none" xmlns="http://www.w3.org/2000/svg">
<path d="M540.469 173C756.049 173 799.94 325.906 898.819 578.906C997.691 831.881 761.803 982.971 540.531 982.999C540.51 982.999 540.49 983 540.469 983C319.197 982.972 83.3091 831.881 182.181 578.906C281.05 325.93 324.942 173.029 540.469 173Z" fill="#EA8F5E"/>
<path d="M282.884 282.849L359.162 319.606L395.919 243.328C421.703 189.821 399.229 125.541 345.721 99.7567L304.309 79.8009C285.053 70.5222 261.921 78.6101 252.642 97.8653L232.687 139.276C206.901 192.784 229.377 257.064 282.884 282.849Z" fill="#EA8F5E"/>
<path d="M294.644 248.613L342.39 271.622L365.398 223.875C381.538 190.383 367.47 150.148 333.976 134.007L308.056 121.517C296.003 115.709 281.523 120.771 275.715 132.824L263.224 158.745C247.084 192.239 261.152 232.474 294.644 248.613Z" fill="#FFBDA1"/>
<path d="M761.721 282.849L685.444 319.606L648.687 243.328C622.903 189.821 645.377 125.541 698.885 99.7567L740.297 79.8009C759.552 70.5222 782.684 78.6101 791.963 97.8653L811.918 139.276C837.705 192.784 815.229 257.064 761.721 282.849Z" fill="#EA8F5E"/>
<path d="M749.961 248.613L702.215 271.622L679.207 223.875C663.068 190.383 677.135 150.148 710.629 134.007L736.55 121.517C748.603 115.709 763.083 120.771 768.891 132.824L781.382 158.745C797.522 192.239 783.454 232.474 749.961 248.613Z" fill="#FFBDA1"/>
<path d="M583.728 103.432C567.297 83.309 544.324 71.3149 515.899 71.3149C487.473 71.3149 464.501 83.309 448.069 103.432C392.317 131.002 368.84 194.187 388.842 264.798C393.617 281.657 401.94 298.851 412.254 315.131C417.766 323.829 429.256 326.421 438.018 321.013C441.742 318.722 445.586 316.632 449.532 314.749C471.14 354.827 499.745 385.756 515.899 385.756C532.053 385.756 560.658 354.827 582.266 314.749C586.214 316.632 590.056 318.722 593.78 321.013C602.541 326.419 614.032 323.827 619.544 315.131C629.86 298.851 638.181 281.656 642.956 264.798C662.958 194.187 639.48 131.002 583.728 103.432Z" fill="#313234"/>
<path d="M607.668 247.348C594.046 313.923 540.509 385.756 515.891 385.756C491.273 385.756 437.738 313.925 424.114 247.348C404.74 152.664 441.829 71.3149 515.893 71.3149C589.954 71.3149 627.044 152.664 607.668 247.348Z" fill="#313234"/>
<path d="M272.632 730.802C272.632 756.677 251.674 777.638 225.816 777.638C199.958 777.638 179 756.677 179 730.802C179 704.958 199.958 684 225.816 684C251.674 684 272.632 704.958 272.632 730.802Z" fill="#FFBDA1"/>
<path d="M901.632 730.802C901.632 756.677 880.674 777.638 854.816 777.638C828.958 777.638 808 756.677 808 730.802C808 704.958 828.958 684 854.816 684C880.674 684 901.632 704.958 901.632 730.802Z" fill="#FFBDA1"/>
<mask id="mask0_10044_21150" style="mask-type:alpha" maskUnits="userSpaceOnUse" x="387" y="495" width="104" height="123">
<path d="M438.608 495.318C466.886 495.318 489.898 522.576 489.898 556.319C489.898 590.063 466.886 617.321 438.608 617.321C410.331 617.321 387.318 590.063 387.318 556.319C387.318 522.576 410.331 495.318 438.608 495.318Z" fill="#FCD53F" stroke="black" stroke-width="0.636014"/>
</mask>
<g mask="url(#mask0_10044_21150)">
<ellipse cx="438.608" cy="556.32" rx="51.6083" ry="61.3196" fill="white"/>
<ellipse cx="421.161" cy="538.766" rx="41.1607" ry="43.7658" fill="#313234"/>
</g>
<mask id="mask1_10044_21150" style="mask-type:alpha" maskUnits="userSpaceOnUse" x="591" y="495" width="104" height="123">
<path d="M642.608 495.318C670.886 495.318 693.898 522.576 693.898 556.319C693.898 590.063 670.886 617.321 642.608 617.321C614.331 617.321 591.318 590.063 591.318 556.319C591.318 522.576 614.331 495.318 642.608 495.318Z" fill="#FCD53F" stroke="black" stroke-width="0.636014"/>
</mask>
<g mask="url(#mask1_10044_21150)">
<ellipse cx="642.608" cy="556.32" rx="51.6083" ry="61.3196" fill="white"/>
<ellipse cx="625.161" cy="538.766" rx="41.1607" ry="43.7658" fill="#313234"/>
</g>
<path d="M671.576 1017.74H409.345C335.7 1017.74 276 958.042 276 884.397C276 799.369 354.51 736.062 437.606 754.081L501.39 767.914C527.138 773.499 553.781 773.499 579.529 767.914L643.313 754.081C726.41 736.06 804.919 799.369 804.919 884.397C804.921 958.042 745.221 1017.74 671.576 1017.74Z" fill="#FFBDA1"/>
<path d="M618.107 854.5C592.892 854.5 572.453 834.06 572.453 808.847C572.453 805.879 573.631 803.034 575.729 800.936C577.827 798.838 580.672 797.66 583.64 797.66C608.853 797.66 629.293 818.1 629.293 843.313C629.293 846.28 628.115 849.126 626.017 851.224C623.919 853.322 621.073 854.5 618.107 854.5Z" fill="#313234"/>
<path d="M462.247 854.5C487.462 854.5 507.902 834.06 507.902 808.847C507.902 805.879 506.724 803.034 504.626 800.936C502.528 798.838 499.681 797.66 496.715 797.66C471.5 797.66 451.06 818.1 451.06 843.313C451.061 846.28 452.24 849.126 454.338 851.224C456.436 853.322 459.281 854.5 462.247 854.5Z" fill="#313234"/>
</svg>
