<svg width="1080" height="1080" viewBox="0 0 1080 1080" fill="none" xmlns="http://www.w3.org/2000/svg">
<g clip-path="url(#clip0_10044_21377)">
<path d="M334.5 538V745C334.167 782.167 314.7 856.5 239.5 856.5C164.3 856.5 133.833 782.167 128 745" stroke="#B5D2F2" stroke-width="80" stroke-linecap="round"/>
<path d="M460.5 624V926C460.5 958 400.5 1071.5 247 1047" stroke="#B5D2F2" stroke-width="80" stroke-linecap="round"/>
<path d="M601 624V926C601 958 661 1071.5 814.5 1047" stroke="#B5D2F2" stroke-width="80" stroke-linecap="round"/>
<path d="M746 540V747C746.333 784.167 765.8 858.5 841 858.5C916.2 858.5 946.667 784.167 952.5 747" stroke="#B5D2F2" stroke-width="80" stroke-linecap="round"/>
<path d="M972.594 454.419C972.594 647.995 986.094 731 540.094 731C72.5938 731 107.594 647.995 107.594 454.419C107.594 260.843 301.23 30 540.094 30C778.957 30 972.594 260.843 972.594 454.419Z" fill="#B5D2F2"/>
<mask id="mask0_10044_21377" style="mask-type:alpha" maskUnits="userSpaceOnUse" x="365" y="371" width="102" height="123">
<path d="M415.763 371.318C443.568 371.319 466.207 398.57 466.207 432.319C466.207 466.068 443.569 493.321 415.763 493.321C387.957 493.321 365.318 466.068 365.318 432.319C365.318 398.57 387.957 371.318 415.763 371.318Z" fill="#FCD53F" stroke="black" stroke-width="0.636014"/>
</mask>
<g mask="url(#mask0_10044_21377)">
<ellipse cx="415.762" cy="432.32" rx="50.7623" ry="61.3196" fill="white"/>
<ellipse cx="430.744" cy="409.614" rx="43.1207" ry="46.614" fill="#313234"/>
</g>
<mask id="mask1_10044_21377" style="mask-type:alpha" maskUnits="userSpaceOnUse" x="613" y="371" width="103" height="123">
<path d="M664.287 371.318C692.093 371.319 714.731 398.57 714.731 432.319C714.731 466.068 692.093 493.321 664.287 493.321C636.481 493.321 613.843 466.068 613.843 432.319C613.843 398.57 636.481 371.318 664.287 371.318Z" fill="#FCD53F" stroke="black" stroke-width="0.636014"/>
</mask>
<g mask="url(#mask1_10044_21377)">
<ellipse cx="664.287" cy="432.32" rx="50.7623" ry="61.3196" fill="white"/>
<ellipse cx="679.268" cy="409.614" rx="43.1207" ry="46.614" fill="#313234"/>
</g>
<path d="M346.097 522.802C346.097 548.677 325.483 569.638 300.049 569.638C274.614 569.638 254 548.677 254 522.802C254 496.958 274.614 476 300.049 476C325.483 476 346.097 496.958 346.097 522.802Z" fill="#FFBDA1"/>
<path d="M826.097 522.802C826.097 548.677 805.483 569.638 780.049 569.638C754.614 569.638 734 548.677 734 522.802C734 496.958 754.614 476 780.049 476C805.483 476 826.097 496.958 826.097 522.802Z" fill="#FFBDA1"/>
<path d="M577 494C577 514.08 560.658 530.358 540.5 530.358C520.342 530.358 504 514.08 504 494" stroke="#313234" stroke-width="20" stroke-linecap="round"/>
</g>
<defs>
<clipPath id="clip0_10044_21377">
<rect width="1080" height="1080" fill="white"/>
</clipPath>
</defs>
</svg>
