<svg width="1080" height="1080" viewBox="0 0 1080 1080" fill="none" xmlns="http://www.w3.org/2000/svg">
<path d="M539.253 1011L501.339 1031.68C499.109 1032.8 497.715 1035.32 497.715 1037.83V1059.63C497.715 1066.34 503.291 1071.93 509.982 1071.93H569.083C575.773 1071.93 581.349 1066.34 581.349 1059.63V1037.83C581.349 1035.32 579.955 1032.8 577.725 1031.68L539.253 1011Z" fill="white"/>
<path d="M225.055 221.606C241.455 285.561 345.889 336.956 396.055 354.659C435.055 346.833 426.056 338.447 420.056 237.259C414.056 136.072 272.556 43.2696 250.056 18.1125C232.056 -2.01327 225.889 9.72673 225.055 18.1125C218.222 59.2957 208.655 157.651 225.055 221.606Z" fill="#EA8F5E"/>
<path d="M424.269 342.906L402.526 356.802C386.52 342.833 342.972 304.301 296.831 261.922C250.69 219.544 247.536 122.817 251.727 79.7512C331.346 118.813 399.93 271.463 424.269 342.906Z" fill="#FFBDA1"/>
<path d="M856.378 221.606C839.978 285.561 735.545 336.956 685.378 354.659C646.379 346.833 655.378 338.447 661.378 237.259C667.378 136.072 808.878 43.2696 831.378 18.1125C849.378 -2.01327 855.545 9.72673 856.378 18.1125C863.212 59.2957 872.778 157.651 856.378 221.606Z" fill="#EA8F5E"/>
<path d="M657.165 342.906L678.908 356.802C694.914 342.833 738.461 304.301 784.602 261.922C830.744 219.544 833.898 122.817 829.707 79.7512C750.087 118.813 681.504 271.463 657.165 342.906Z" fill="#FFBDA1"/>
<path d="M928.528 595.346C789.318 245.695 844.702 142.04 541.234 142H539.766C236.298 142.04 291.682 245.695 152.472 595.346C20.4589 926.91 305.783 1189.55 540.5 1017.84C775.217 1189.55 1060.54 926.91 928.528 595.346Z" fill="#EA8F5E"/>
<mask id="mask0_10044_20670" style="mask-type:alpha" maskUnits="userSpaceOnUse" x="318" y="622" width="104" height="123">
<path d="M369.608 622.318C397.886 622.318 420.898 649.576 420.898 683.319C420.898 717.063 397.886 744.321 369.608 744.321C341.331 744.321 318.318 717.063 318.318 683.319C318.318 649.576 341.331 622.318 369.608 622.318Z" fill="#FCD53F" stroke="black" stroke-width="0.636014"/>
</mask>
<g mask="url(#mask0_10044_20670)">
<ellipse cx="369.608" cy="683.32" rx="51.6083" ry="61.3196" fill="white"/>
<ellipse cx="369.839" cy="706.614" rx="41.1607" ry="43.7658" fill="#313234"/>
</g>
<mask id="mask1_10044_20670" style="mask-type:alpha" maskUnits="userSpaceOnUse" x="657" y="622" width="104" height="123">
<path d="M708.608 622.318C736.886 622.318 759.898 649.576 759.898 683.319C759.898 717.063 736.886 744.321 708.608 744.321C680.331 744.321 657.318 717.063 657.318 683.319C657.318 649.576 680.331 622.318 708.608 622.318Z" fill="#FCD53F" stroke="black" stroke-width="0.636014"/>
</mask>
<g mask="url(#mask1_10044_20670)">
<ellipse cx="708.608" cy="683.32" rx="51.6083" ry="61.3196" fill="white"/>
<ellipse cx="708.839" cy="706.614" rx="41.1607" ry="43.7658" fill="#313234"/>
</g>
<path d="M541.087 828C574.348 828 595 779.511 595 769.026C595 758.542 585.957 745 541.087 745C490.217 745 485 756.795 485 769.026C485 777.982 507.826 828 541.087 828Z" fill="#EA8F5E"/>
<path d="M546.473 813.143C602.123 812.826 681.745 825.704 657.191 881.306C626.59 950.606 576.227 966.931 546.474 966.393C516.721 966.931 466.357 950.606 435.755 881.306C411.202 825.704 490.823 812.827 546.473 813.143Z" fill="#313234"/>
<path d="M408.907 869.485C408.907 906.583 378.859 936.634 341.785 936.634C304.712 936.634 274.664 906.583 274.664 869.485C274.664 832.432 304.712 802.384 341.785 802.384C378.859 802.384 408.907 832.432 408.907 869.485Z" fill="#FFBDA1"/>
<path d="M819.184 869.485C819.184 906.583 789.136 936.634 752.063 936.634C714.989 936.634 684.941 906.583 684.941 869.485C684.941 832.432 714.989 802.384 752.063 802.384C789.136 802.384 819.184 832.432 819.184 869.485Z" fill="#FFBDA1"/>
</svg>
