<svg width="1080" height="1080" viewBox="0 0 1080 1080" fill="none" xmlns="http://www.w3.org/2000/svg">
<g clip-path="url(#clip0_10038_1963)">
<path d="M471.464 327.611C479.216 303.624 476.165 280.519 456.025 258.748C390.544 187.967 163.494 170.544 83.6489 253.943C3.80365 337.342 -2.10619 449.89 63.3739 520.67C78.1042 536.593 95.4825 548.416 114.481 556.229C120.28 580.808 131.86 601.495 149.364 615.797C168.985 631.828 193.521 637.77 219.951 634.831C223.446 656.369 232.042 673.919 246.028 685.346C293.62 724.232 385.601 677.488 451.473 580.94C517.346 484.393 532.165 374.602 484.573 335.717C480.512 332.399 476.127 329.704 471.464 327.611Z" fill="#B5D2F2"/>
<ellipse cx="265.257" cy="431.771" rx="147.567" ry="162.746" transform="rotate(-28.2132 265.257 431.771)" fill="white"/>
<path d="M608.615 327.611C600.863 303.624 603.915 280.519 624.055 258.748C689.535 187.967 916.585 170.544 996.43 253.943C1076.28 337.342 1082.19 449.89 1016.71 520.67C1001.97 536.593 984.597 548.416 965.598 556.229C959.799 580.808 948.219 601.495 930.715 615.797C911.094 631.828 886.558 637.77 860.128 634.831C856.633 656.369 848.037 673.919 834.051 685.346C786.459 724.232 694.478 677.488 628.606 580.94C562.733 484.393 547.914 374.602 595.506 335.717C599.567 332.399 603.952 329.704 608.615 327.611Z" fill="#B5D2F2"/>
<ellipse cx="147.567" cy="162.746" rx="147.567" ry="162.746" transform="matrix(-0.881195 -0.472753 -0.472753 0.881195 1021.8 358.123)" fill="white"/>
<path d="M967.872 724.681C967.872 731.688 967.671 738.474 967.071 745.301C962.466 809.565 936.839 867.222 897.599 910.065C854.154 957.512 794.091 986.741 727.622 986.741H367.249C240.918 986.741 137.411 880.435 127.801 745.301C127.2 738.474 127 731.688 127 724.681C127 709.666 127.601 694.851 129.002 680.237C135.008 610.567 155.429 545.302 187.062 488.446C204.681 456.214 225.903 426.785 250.128 400.358C261.74 387.746 274.153 375.734 287.166 364.523C323.003 333.492 363.445 309.068 407.29 292.451C409.092 291.851 410.894 291.05 412.696 290.449C434.719 282.041 457.743 275.835 481.167 272.031C489.776 270.429 498.585 269.228 507.394 268.227C520.608 266.626 534.022 266.025 547.436 266.025C560.85 266.025 574.264 266.626 587.477 268.227C596.286 269.228 605.095 270.429 613.704 272.031C637.129 275.835 660.153 282.041 682.175 290.449C683.977 291.05 685.779 291.851 687.581 292.451C731.426 309.068 771.868 333.492 807.706 364.523C820.719 375.734 833.132 387.746 844.744 400.358C868.969 426.785 890.191 456.214 907.809 488.446C939.442 545.302 959.863 610.567 965.869 680.237C967.271 694.851 967.872 709.666 967.872 724.681Z" fill="#B5D2F2"/>
<mask id="mask0_10038_1963" style="mask-type:alpha" maskUnits="userSpaceOnUse" x="291" y="601" width="104" height="123">
<path d="M342.608 601.343C370.886 601.343 393.898 628.601 393.898 662.344C393.898 696.088 370.886 723.346 342.608 723.346C314.331 723.346 291.318 696.088 291.318 662.344C291.318 628.601 314.331 601.343 342.608 601.343Z" fill="#FCD53F" stroke="black" stroke-width="0.636014"/>
</mask>
<g mask="url(#mask0_10038_1963)">
<ellipse cx="342.608" cy="662.344" rx="51.6083" ry="61.3196" fill="white"/>
<ellipse cx="342.839" cy="685.639" rx="41.1607" ry="43.7658" fill="#313234"/>
</g>
<mask id="mask1_10038_1963" style="mask-type:alpha" maskUnits="userSpaceOnUse" x="698" y="601" width="104" height="123">
<path d="M749.608 601.343C777.886 601.343 800.898 628.601 800.898 662.344C800.898 696.088 777.886 723.346 749.608 723.346C721.331 723.346 698.318 696.088 698.318 662.344C698.318 628.601 721.331 601.343 749.608 601.343Z" fill="#FCD53F" stroke="black" stroke-width="0.636014"/>
</mask>
<g mask="url(#mask1_10038_1963)">
<ellipse cx="749.608" cy="662.344" rx="51.6083" ry="61.3196" fill="white"/>
<ellipse cx="749.839" cy="685.639" rx="41.1607" ry="43.7658" fill="#313234"/>
</g>
<path d="M357.632 795.827C357.632 821.702 336.674 842.663 310.816 842.663C284.958 842.663 264 821.702 264 795.827C264 769.983 284.958 749.025 310.816 749.025C336.674 749.025 357.632 769.983 357.632 795.827Z" fill="#FFBDA1"/>
<path d="M832.128 795.827C832.128 821.702 811.171 842.663 785.312 842.663C759.454 842.663 738.496 821.702 738.496 795.827C738.496 769.983 759.454 749.025 785.312 749.025C811.171 749.025 832.128 769.983 832.128 795.827Z" fill="#FFBDA1"/>
<path d="M584 807.025C584 827.105 567.658 843.383 547.5 843.383C527.342 843.383 511 827.105 511 807.025" stroke="#313234" stroke-width="20" stroke-linecap="round"/>
<path d="M641.652 669.358C641.652 726.059 661.894 772.025 545.5 772.025C429.106 772.025 449.348 726.059 449.348 669.358C449.348 612.657 492.397 552.025 545.5 552.025C598.603 552.025 641.652 612.657 641.652 669.358Z" fill="#313234"/>
</g>
<defs>
<clipPath id="clip0_10038_1963">
<rect width="1080" height="1080" fill="white"/>
</clipPath>
</defs>
</svg>
