<svg width="1080" height="1080" viewBox="0 0 1080 1080" fill="none" xmlns="http://www.w3.org/2000/svg">
<path d="M576.868 24C642.007 24 697.56 65.0266 719.106 122.648C743.661 105.576 773.496 95.5684 805.669 95.5684C889.512 95.5685 957.479 163.536 957.479 247.379C957.479 263.722 954.895 279.461 950.116 294.212C1018.35 319.438 1067 385.078 1067 462.082C1067 525.673 1033.82 581.512 983.837 613.243C1024.11 646.051 1049.84 696.037 1049.84 752.034C1049.84 850.849 969.734 930.954 870.92 930.954C846.135 930.954 822.527 925.913 801.065 916.803C782.715 996.112 711.637 1055.23 626.749 1055.23C564.447 1055.23 509.585 1023.38 477.546 975.085C449.762 1010.66 406.467 1033.54 357.827 1033.54C273.984 1033.54 206.017 965.573 206.017 881.73C206.017 866.672 208.209 852.125 212.292 838.393C202.217 840.498 191.776 841.609 181.076 841.609C97.2336 841.609 29.2658 773.641 29.2656 689.799C29.2656 637.001 56.2192 590.5 97.1162 563.301C47.2506 538.417 13 486.9 13 427.383C13 343.54 80.9679 275.572 164.811 275.572C167.158 275.572 169.492 275.628 171.813 275.733C167.265 261.309 164.811 245.956 164.811 230.029C164.811 146.187 232.779 78.2179 316.621 78.2178C362.662 78.2178 403.915 98.7155 431.756 131.081C450.848 69.0703 508.594 24.0001 576.868 24ZM358.32 376.039C345.071 379.816 331.082 381.84 316.621 381.84C314.274 381.84 311.939 381.783 309.617 381.678C314.166 396.102 316.621 411.456 316.621 427.383C316.621 480.181 289.666 526.681 248.769 553.88C298.635 578.763 332.887 630.281 332.887 689.799C332.887 704.857 330.694 719.403 326.611 733.135C336.686 731.029 347.127 729.92 357.827 729.92C404.265 729.92 445.832 750.771 473.679 783.62C505.048 731.926 561.865 697.389 626.749 697.389C651.534 697.389 675.141 702.429 696.603 711.539C707.338 665.139 736.124 625.654 775.162 600.872C742.581 574.332 719.522 536.551 711.9 493.439C687.618 509.922 658.309 519.554 626.749 519.554C614.928 519.554 603.422 518.201 592.378 515.645C568.577 531.146 540.16 540.156 509.638 540.156C425.795 540.156 357.827 472.188 357.827 388.346C357.827 384.203 357.995 380.098 358.32 376.039Z" fill="#EA8F5E"/>
<path d="M336.241 209.426C375.326 209.489 410.015 229.968 429.382 261.028C491.231 321.047 589.311 321.047 651.161 261.028C670.527 229.968 704.852 209.489 744.3 209.426C753.622 209.441 762.668 210.611 771.302 212.8C799.39 219.992 823.393 238.173 838.182 262.468C848.169 279.017 853.909 298.432 853.909 319.217C853.909 323.968 853.612 328.643 853.035 333.224C849.501 360.351 836.13 384.417 816.58 401.561L900.754 517.208C928.202 554.903 942.841 600.65 942.841 647.128C942.841 769.363 844.028 868.176 721.793 868.176H358.749C236.514 868.176 137.702 769.363 137.702 647.128C137.702 600.65 152.341 554.903 179.788 517.208L263.962 401.561C241.272 381.433 226.633 352.155 226.633 319.217C226.633 310.215 227.71 301.469 229.742 293.102C239.619 253.19 271.463 221.691 311.302 212.299C319.31 210.432 327.658 209.44 336.241 209.426Z" fill="#FCDC7E"/>
<path d="M294.975 358.013C291.315 362.405 288.021 366.797 284.728 371.554C270.821 358.379 262.403 339.715 262.403 319.22C262.403 278.963 295.341 246.026 335.598 246.026C359.752 246.026 381.344 257.737 394.519 276.036C356.092 296.164 322.057 323.978 294.975 357.647V358.013Z" fill="#EA8F5E"/>
<path d="M787.26 362.297C786.151 360.89 785.032 359.469 783.913 358.014C756.831 324.344 722.795 296.164 684.368 276.402C697.909 258.103 719.501 246.392 743.656 246.392C783.913 246.392 816.85 279.33 816.85 319.587C816.85 340.081 808.067 358.746 794.526 371.921C792.239 368.618 789.777 365.492 787.26 362.297Z" fill="#EA8F5E"/>
<path d="M619.784 771.547L594.81 768.621C558.396 764.354 521.606 764.354 485.191 768.621L460.217 771.547C411.659 777.236 369 739.391 369 690.624C369 638.67 417.094 599.986 467.999 610.997L515.699 621.315C531.714 624.78 548.286 624.78 564.301 621.315L612.001 610.997C662.905 599.986 711 638.67 711 690.624C711.001 739.391 668.342 777.236 619.784 771.547Z" fill="#FFBDA1"/>
<mask id="mask0_10044_19481" style="mask-type:alpha" maskUnits="userSpaceOnUse" x="350" y="450" width="104" height="123">
<path d="M401.608 450.433C429.886 450.433 452.898 477.69 452.898 511.434C452.898 545.177 429.886 572.436 401.608 572.436C373.331 572.436 350.318 545.177 350.318 511.434C350.318 477.69 373.331 450.433 401.608 450.433Z" fill="#FCD53F" stroke="black" stroke-width="0.636014"/>
</mask>
<g mask="url(#mask0_10044_19481)">
<ellipse cx="401.608" cy="511.434" rx="51.6083" ry="61.3196" fill="white"/>
<ellipse cx="401.839" cy="534.728" rx="41.1607" ry="43.7658" fill="#313234"/>
</g>
<mask id="mask1_10044_19481" style="mask-type:alpha" maskUnits="userSpaceOnUse" x="626" y="450" width="105" height="123">
<path d="M678.608 450.433C706.886 450.433 729.898 477.69 729.898 511.434C729.898 545.177 706.886 572.436 678.608 572.436C650.331 572.436 627.318 545.177 627.318 511.434C627.318 477.69 650.331 450.433 678.608 450.433Z" fill="#FCD53F" stroke="black" stroke-width="0.636014"/>
</mask>
<g mask="url(#mask1_10044_19481)">
<ellipse cx="678.608" cy="511.434" rx="51.6083" ry="61.3196" fill="white"/>
<ellipse cx="678.839" cy="534.728" rx="41.1607" ry="43.7658" fill="#313234"/>
</g>
<path d="M349.632 689.917C349.632 715.791 328.674 736.752 302.816 736.752C276.958 736.752 256 715.791 256 689.917C256 664.072 276.958 643.114 302.816 643.114C328.674 643.114 349.632 664.072 349.632 689.917Z" fill="#FFBDA1"/>
<path d="M824.128 689.917C824.128 715.791 803.171 736.752 777.312 736.752C751.454 736.752 730.496 715.791 730.496 689.917C730.496 664.072 751.454 643.114 777.312 643.114C803.171 643.114 824.128 664.072 824.128 689.917Z" fill="#FFBDA1"/>
<path d="M540.829 656.114C540.415 669.616 542.501 697.114 575.62 699.114C579.001 699.114 588.001 696.614 593.001 687.614" stroke="#313234" stroke-width="20" stroke-linecap="round"/>
<path d="M539.172 656.114C539.586 669.616 537.5 697.114 504.381 699.114C501 699.114 492 696.614 487 687.614" stroke="#313234" stroke-width="20" stroke-linecap="round"/>
<path d="M540.5 539.119C587.078 538.854 653.719 549.633 633.169 596.171C607.556 654.174 565.403 667.835 540.5 667.385C515.597 667.835 473.444 654.173 447.831 596.171C427.28 549.633 493.922 538.854 540.5 539.119Z" fill="#313234"/>
<path d="M214.213 649.459L52.0002 677.67" stroke="#313234" stroke-width="20" stroke-linecap="round"/>
<path d="M228.048 694.093L78.0001 761.876" stroke="#313234" stroke-width="20" stroke-linecap="round"/>
<path d="M864.835 649.459L1027.05 677.67" stroke="#313234" stroke-width="20" stroke-linecap="round"/>
<path d="M851 694.093L1001.05 761.876" stroke="#313234" stroke-width="20" stroke-linecap="round"/>
</svg>
