<svg width="1080" height="1080" viewBox="0 0 1080 1080" fill="none" xmlns="http://www.w3.org/2000/svg">
<path d="M297.445 544.288C319.549 623.088 273.423 704.83 194.467 726.862C115.511 748.904 33.6023 702.888 11.5229 624.086C-10.5566 545.288 35.5448 463.549 114.501 441.512C193.457 419.475 275.365 465.488 297.445 544.288Z" fill="#EA8F5E"/>
<path d="M250.436 575.277C261.866 616.083 237.97 658.404 197.117 669.821C156.213 681.231 113.796 657.407 102.365 616.599C90.9339 575.789 114.805 533.475 155.708 522.07C196.587 510.655 239.005 534.467 250.436 575.277Z" fill="#FCDC7E"/>
<path d="M782.532 544.288C760.427 623.088 806.554 704.83 885.51 726.862C964.466 748.904 1046.37 702.888 1068.45 624.086C1090.53 545.288 1044.43 463.549 965.476 441.512C886.52 419.475 804.611 465.488 782.532 544.288Z" fill="#EA8F5E"/>
<path d="M829.541 575.277C818.11 616.083 842.007 658.404 882.86 669.821C923.764 681.231 966.181 657.407 977.612 616.599C989.043 575.789 965.172 533.475 924.268 522.07C883.39 510.655 840.972 534.467 829.541 575.277Z" fill="#FCDC7E"/>
<path d="M539.543 213.259C765.905 213.259 811.991 346.285 915.815 566.392C1019.63 786.478 771.946 917.924 539.607 917.949C539.585 917.949 539.564 917.949 539.543 917.949C307.203 917.925 59.5168 786.478 163.334 566.392C267.148 346.306 313.236 213.284 539.543 213.259Z" fill="#EA8F5E"/>
<path d="M554.193 143.669C560.698 125.797 580.46 116.581 598.332 123.086C616.204 129.591 625.42 149.353 618.915 167.226L593.002 238.419C587.43 253.727 572.133 262.682 556.627 260.849C554.083 262.698 551.241 264.229 548.138 265.358C530.265 271.863 510.504 262.649 503.999 244.776L478.086 173.583C471.581 155.711 480.797 135.949 498.669 129.444C516.541 122.939 536.303 132.154 542.808 150.026L547.343 162.488L554.193 143.669Z" fill="#EA8F5E"/>
<path d="M696.375 413.289C788.263 413.289 862.753 497.918 862.753 602.312C862.753 643.144 851.357 680.951 831.982 711.854C857.732 736.601 873.963 770.642 875.994 807.191C805.016 897.968 681.936 958.001 541.989 958.001C402.448 958.001 279.678 898.315 208.605 807.981C210.549 769.04 228.621 732.88 257.178 707.692C239.349 677.584 228.942 641.329 228.942 602.312C228.942 497.918 303.431 413.289 395.319 413.289C461.826 413.289 519.216 457.624 545.847 521.698C572.478 457.624 629.869 413.289 696.375 413.289Z" fill="#FCDC7E"/>
<mask id="mask0_10035_5411" style="mask-type:alpha" maskUnits="userSpaceOnUse" x="356" y="590" width="104" height="123">
<path d="M407.609 590.318C435.886 590.318 458.899 617.576 458.899 651.319C458.899 685.063 435.886 712.321 407.609 712.321C379.331 712.321 356.319 685.063 356.319 651.319C356.319 617.576 379.331 590.318 407.609 590.318Z" fill="#FCD53F" stroke="black" stroke-width="0.636014"/>
</mask>
<g mask="url(#mask0_10035_5411)">
<ellipse cx="407.609" cy="651.32" rx="51.6083" ry="61.3196" fill="white"/>
<ellipse cx="407.839" cy="674.614" rx="41.1607" ry="43.7658" fill="#313234"/>
</g>
<mask id="mask1_10035_5411" style="mask-type:alpha" maskUnits="userSpaceOnUse" x="627" y="590" width="104" height="123">
<path d="M678.609 590.318C706.886 590.318 729.899 617.576 729.899 651.319C729.899 685.063 706.886 712.321 678.609 712.321C650.331 712.321 627.319 685.063 627.319 651.319C627.319 617.576 650.331 590.318 678.609 590.318Z" fill="#FCD53F" stroke="black" stroke-width="0.636014"/>
</mask>
<g mask="url(#mask1_10035_5411)">
<ellipse cx="678.609" cy="651.32" rx="51.6083" ry="61.3196" fill="white"/>
<ellipse cx="678.839" cy="674.614" rx="41.1607" ry="43.7658" fill="#313234"/>
</g>
<path d="M379.108 771.486C379.108 793.316 361.401 811 339.554 811C317.707 811 300 793.316 300 771.486C300 749.682 317.707 732 339.554 732C361.401 732 379.108 749.682 379.108 771.486Z" fill="#EA8F5E"/>
<path d="M780 771.486C780 793.316 762.293 811 740.446 811C718.599 811 700.892 793.316 700.892 771.486C700.892 749.682 718.599 732 740.446 732C762.293 732 780 749.682 780 771.486Z" fill="#EA8F5E"/>
<path d="M575.291 747.719L578.725 743.867C594.532 726.131 578.394 698.534 555.186 703.614C547.828 705.223 540.209 705.223 532.851 703.614C509.643 698.535 493.504 726.131 509.311 743.867L512.745 747.719C529.402 766.412 558.631 766.412 575.291 747.719Z" fill="#313234"/>
<path d="M577 786C577 806.08 560.658 822.358 540.5 822.358C520.342 822.358 504 806.08 504 786" stroke="#313234" stroke-width="20" stroke-linecap="round"/>
</svg>
