<svg width="1080" height="1080" viewBox="0 0 1080 1080" fill="none" xmlns="http://www.w3.org/2000/svg">
<path d="M126.383 399.742C192.383 390.542 289.55 366.576 329.883 355.742C320.883 404.576 280.383 507.942 190.383 530.742C77.8828 559.242 38.3829 505.742 28.8829 475.242C19.3829 444.742 43.8829 411.242 126.383 399.742Z" fill="#EA8F5E"/>
<path d="M154.599 429.571C198.173 424.798 262.324 412.363 288.953 406.742C283.011 432.079 256.272 485.71 196.853 497.54C122.578 512.326 96.4993 484.568 90.2272 468.744C83.9551 452.919 100.13 435.538 154.599 429.571Z" fill="#FFBDA1"/>
<path d="M954.453 399.742C888.453 390.542 791.286 366.576 750.953 355.742C759.953 404.576 800.453 507.942 890.453 530.742C1002.95 559.242 1042.45 505.742 1051.95 475.242C1061.45 444.742 1036.95 411.242 954.453 399.742Z" fill="#EA8F5E"/>
<path d="M926.237 429.571C882.663 424.798 818.512 412.363 791.883 406.742C797.825 432.079 824.564 485.71 883.983 497.54C958.258 512.326 984.337 484.568 990.609 468.744C996.881 452.919 980.705 435.538 926.237 429.571Z" fill="#FFBDA1"/>
<path d="M327.036 350.484L352.744 301.07C260.342 285.083 248.104 239.907 253.535 219.318C260.415 202.24 270.046 165.906 253.535 157.186C237.024 148.466 223.743 165.179 220.586 178.26C216.845 193.762 205.234 218.518 188.723 208.054C172.213 197.59 188.844 160.819 199.224 141.926C207.31 122.547 216.531 81.974 188.723 74.7071C160.916 67.4403 152.999 98.3244 152.516 114.675C151.671 137.081 145.347 175.062 123.912 168.086C97.1183 159.366 111.239 112.131 115.222 83.7907C119.205 55.45 111.239 24.2025 73.9455 20.2057C36.6517 16.2089 28.6859 70.7104 26.1514 161.183C23.6169 251.655 53.0455 290.589 103.636 310.153C151.061 328.494 260.777 343.46 327.036 350.484Z" fill="#FCDC7E"/>
<path d="M752.917 350.484L727.209 301.07C819.611 285.083 831.849 239.907 826.418 219.318C819.539 202.24 809.907 165.906 826.418 157.186C842.929 148.466 856.21 165.179 859.367 178.26C863.108 193.762 874.719 218.518 891.23 208.054C907.74 197.59 891.109 160.819 880.729 141.926C872.643 122.547 863.422 81.974 891.23 74.7071C919.037 67.4403 926.954 98.3244 927.437 114.675C928.282 137.081 934.606 175.062 956.041 168.086C982.835 159.366 968.714 112.131 964.731 83.7907C960.748 55.45 968.714 24.2025 1006.01 20.2057C1043.3 16.2089 1051.27 70.7104 1053.8 161.183C1056.34 251.655 1026.91 290.589 976.317 310.153C928.893 328.494 819.177 343.46 752.917 350.484Z" fill="#FCDC7E"/>
<path d="M544.423 182.742C760.003 182.742 803.894 335.648 902.772 588.648C1001.64 841.623 765.756 992.714 544.484 992.741C544.463 992.741 544.443 992.742 544.423 992.742C323.15 992.714 87.2623 841.623 186.135 588.648C285.003 335.672 328.895 182.771 544.423 182.742Z" fill="#EA8F5E"/>
<path d="M309.632 695.545C309.632 721.419 288.674 742.38 262.816 742.38C236.958 742.38 216 721.419 216 695.545C216 669.7 236.958 648.742 262.816 648.742C288.674 648.742 309.632 669.7 309.632 695.545Z" fill="#FFBDA1"/>
<path d="M863.632 695.545C863.632 721.419 842.674 742.38 816.816 742.38C790.958 742.38 770 721.419 770 695.545C770 669.7 790.958 648.742 816.816 648.742C842.674 648.742 863.632 669.7 863.632 695.545Z" fill="#FFBDA1"/>
<mask id="mask0_10044_20838" style="mask-type:alpha" maskUnits="userSpaceOnUse" x="364" y="464" width="104" height="124">
<path d="M415.608 465.061C443.886 465.061 466.898 492.318 466.898 526.062C466.898 559.805 443.886 587.063 415.608 587.063C387.331 587.063 364.318 559.805 364.318 526.062C364.318 492.318 387.331 465.061 415.608 465.061Z" fill="#FCD53F" stroke="black" stroke-width="0.636014"/>
</mask>
<g mask="url(#mask0_10044_20838)">
<ellipse cx="415.608" cy="526.062" rx="51.6083" ry="61.3196" fill="white"/>
<ellipse cx="416.161" cy="556.508" rx="41.1607" ry="43.7658" fill="#313234"/>
</g>
<mask id="mask1_10044_20838" style="mask-type:alpha" maskUnits="userSpaceOnUse" x="616" y="464" width="104" height="124">
<path d="M667.608 465.061C695.886 465.061 718.898 492.318 718.898 526.062C718.898 559.805 695.886 587.063 667.608 587.063C639.331 587.063 616.318 559.805 616.318 526.062C616.318 492.318 639.331 465.061 667.608 465.061Z" fill="#FCD53F" stroke="black" stroke-width="0.636014"/>
</mask>
<g mask="url(#mask1_10044_20838)">
<ellipse cx="667.608" cy="526.062" rx="51.6083" ry="61.3196" fill="white"/>
<ellipse cx="668.161" cy="556.508" rx="41.1607" ry="43.7658" fill="#313234"/>
</g>
<path d="M546.691 542.743C551.466 542.711 556.343 543.802 561.286 546.254C565.838 548.393 570.246 551.42 574.468 555.096C606.19 581.683 625.992 637.825 632.382 665.318C635.382 677.818 647.782 705.018 673.382 713.818C705.382 724.818 798.882 751.818 816.382 825.818C833.882 899.818 782.382 950.818 693.882 991.318C681.076 1013.41 635.49 1056.53 553.227 1059.2C552.328 1059.27 551.419 1059.31 550.499 1059.32C549.222 1059.33 547.952 1059.33 546.691 1059.32C545.43 1059.33 544.16 1059.33 542.882 1059.32C541.962 1059.31 541.053 1059.27 540.154 1059.2C457.891 1056.53 412.305 1013.41 399.499 991.318C311 950.818 259.499 899.818 276.999 825.818C294.5 751.818 387.999 724.818 419.999 713.818C445.599 705.018 457.999 677.818 460.999 665.318C467.39 637.825 487.191 581.683 518.912 555.096C523.135 551.42 527.542 548.393 532.095 546.254C537.038 543.802 541.915 542.711 546.691 542.743Z" fill="#FFBDA1"/>
<path d="M477.272 880.962C503.204 860.665 507.773 823.19 487.477 797.259C485.088 794.207 481.586 792.229 477.739 791.76C473.893 791.291 470.017 792.37 466.966 794.758C441.033 815.055 436.465 852.53 456.76 878.462C459.151 881.513 462.653 883.491 466.499 883.96C470.346 884.429 474.221 883.35 477.272 880.962Z" fill="#313234"/>
<path d="M636.955 880.962C611.022 860.665 606.454 823.19 626.749 797.259C629.138 794.207 632.64 792.229 636.487 791.76C640.334 791.291 644.21 792.37 647.261 794.758C673.193 815.055 677.762 852.53 657.466 878.462C655.076 881.513 651.574 883.491 647.727 883.96C643.881 884.429 640.006 883.35 636.955 880.962Z" fill="#313234"/>
</svg>
