<svg width="1080" height="1080" viewBox="0 0 1080 1080" fill="none" xmlns="http://www.w3.org/2000/svg">
<path d="M233.492 123.875C84.1569 139.767 41.625 341.411 115.421 452.186C157.657 515.589 240.926 549.422 311.968 513.595C320.207 509.414 322.771 502.52 321.642 495.903C349.867 477.048 372.228 445.375 385.139 413.95C391.276 416.968 398.777 416.055 402.474 407.887C431.316 344.263 433.893 267.875 396.003 207.102C361.632 151.978 298.913 116.926 233.492 123.875Z" fill="#B5D2F2"/>
<path d="M358.694 297.804C349.612 267.764 332.5 239.606 310.802 217.042C290.126 195.529 263.239 179.055 233.01 176.702C208.118 174.764 182.369 183.375 164.994 201.288C146.308 216.239 136.59 240.659 131.899 264.414C126.163 293.485 125.361 322.999 129.548 352.32C137.713 409.41 170.332 469.49 225.575 492.802C255.448 505.428 290.46 503.075 316.832 483.361C342.515 464.147 357.328 434.494 362.818 403.319C365.894 385.848 366.776 368.073 366.306 350.382C365.841 332.69 363.833 314.804 358.694 297.804Z" fill="white"/>
<path d="M866.244 139.934C801.81 126.644 735.985 155.438 696.42 206.964C652.807 263.749 647.953 340.027 670.48 406.17C673.368 414.643 680.741 416.276 687.144 413.867C696.94 446.427 716.121 480.122 742.382 501.607C740.615 508.086 742.498 515.201 750.295 520.157C817.517 562.739 903.676 537.157 951.869 478.184C1036.08 375.106 1013.33 170.279 866.244 139.934Z" fill="#B5D2F2"/>
<path d="M917.719 211.919C900.345 194.006 874.595 185.395 849.703 187.333C819.474 189.687 792.588 206.133 771.911 227.646C750.214 250.238 733.102 278.395 724.019 308.436C718.88 325.408 716.872 343.293 716.408 361.013C715.937 378.705 716.82 396.48 719.895 413.922C725.385 445.125 740.201 474.778 765.882 493.993C792.253 513.706 827.265 516.059 857.138 503.434C912.381 480.122 945.001 420.041 953.165 362.923C957.355 333.631 956.551 304.089 950.814 275.045C946.124 251.29 936.405 226.87 917.719 211.919Z" fill="white"/>
<path d="M540.466 182C778.65 182 827.143 328.11 936.388 569.865C1045.63 811.597 785.006 955.973 540.534 955.999C540.511 955.999 540.489 956 540.466 956C295.994 955.973 35.373 811.597 144.612 569.865C253.847 328.133 302.341 182.028 540.466 182Z" fill="#B5D2F2"/>
<path d="M259.632 695.802C259.632 721.677 238.674 742.638 212.816 742.638C186.958 742.638 166 721.677 166 695.802C166 669.958 186.958 649 212.816 649C238.674 649 259.632 669.958 259.632 695.802Z" fill="#EA8F5E"/>
<path d="M913.632 695.802C913.632 721.677 892.674 742.638 866.816 742.638C840.958 742.638 820 721.677 820 695.802C820 669.958 840.958 649 866.816 649C892.674 649 913.632 669.958 913.632 695.802Z" fill="#EA8F5E"/>
<path d="M528.087 714C561.348 714 582 665.511 582 655.026C582 644.542 572.957 631 528.087 631C477.217 631 472 642.795 472 655.026C472 663.982 494.826 714 528.087 714Z" fill="#313234"/>
<path d="M564 743C564 763.08 547.658 779.358 527.5 779.358C507.342 779.358 491 763.08 491 743" stroke="#313234" stroke-width="20" stroke-linecap="round"/>
<path d="M438.929 670.691L296 670.69" stroke="#313234" stroke-width="20" stroke-linecap="round"/>
<path d="M446.528 695.908L296.479 763.691" stroke="#313234" stroke-width="20" stroke-linecap="round"/>
<path d="M615.099 670.691L758.027 670.69" stroke="#313234" stroke-width="20" stroke-linecap="round"/>
<path d="M607.5 695.908L757.548 763.691" stroke="#313234" stroke-width="20" stroke-linecap="round"/>
<mask id="mask0_10035_2835" style="mask-type:alpha" maskUnits="userSpaceOnUse" x="311" y="518" width="104" height="123">
<path d="M362.608 518.318C390.886 518.318 413.898 545.576 413.898 579.319C413.898 613.063 390.886 640.321 362.608 640.321C334.331 640.321 311.318 613.063 311.318 579.319C311.318 545.576 334.331 518.318 362.608 518.318Z" fill="#FCD53F" stroke="black" stroke-width="0.636014"/>
</mask>
<g mask="url(#mask0_10035_2835)">
<ellipse cx="362.608" cy="579.32" rx="51.6083" ry="61.3196" fill="white"/>
<ellipse cx="362.839" cy="602.614" rx="41.1607" ry="43.7658" fill="#313234"/>
</g>
<mask id="mask1_10035_2835" style="mask-type:alpha" maskUnits="userSpaceOnUse" x="640" y="518" width="104" height="123">
<path d="M691.608 518.318C719.886 518.318 742.898 545.576 742.898 579.319C742.898 613.063 719.886 640.321 691.608 640.321C663.331 640.321 640.318 613.063 640.318 579.319C640.318 545.576 663.331 518.318 691.608 518.318Z" fill="#FCD53F" stroke="black" stroke-width="0.636014"/>
</mask>
<g mask="url(#mask1_10035_2835)">
<ellipse cx="691.608" cy="579.32" rx="51.6083" ry="61.3196" fill="white"/>
<ellipse cx="691.839" cy="602.614" rx="41.1607" ry="43.7658" fill="#313234"/>
</g>
</svg>
