<svg width="1080" height="1080" viewBox="0 0 1080 1080" fill="none" xmlns="http://www.w3.org/2000/svg">
<g clip-path="url(#clip0_10044_21301)">
<path d="M1045.68 704.402C1064.12 704.402 1079.07 689.45 1079.07 671.008C1079.07 652.567 1064.12 637.617 1045.68 637.617C1027.23 637.617 1012.28 652.567 1012.28 671.008C1012.28 689.45 1027.23 704.402 1045.68 704.402Z" fill="#EA8F5E"/>
<path d="M1003.93 771.189C1022.37 771.189 1037.32 756.237 1037.32 737.795C1037.32 719.353 1022.37 704.403 1003.93 704.403C985.491 704.403 970.541 719.353 970.541 737.795C970.541 756.237 985.491 771.189 1003.93 771.189Z" fill="#EA8F5E"/>
<path d="M951.062 828.93C969.503 828.93 984.453 813.98 984.453 795.536C984.453 777.094 969.503 762.145 951.062 762.145C932.618 762.145 917.668 777.094 917.668 795.536C917.668 813.98 932.618 828.93 951.062 828.93Z" fill="#EA8F5E"/>
<path d="M33.3926 704.402C51.8348 704.402 66.7853 689.45 66.7853 671.008C66.7853 652.567 51.8348 637.617 33.3926 637.617C14.9504 637.617 0 652.567 0 671.008C0 689.45 14.9504 704.402 33.3926 704.402Z" fill="#EA8F5E"/>
<path d="M75.1339 771.189C93.576 771.189 108.527 756.237 108.527 737.795C108.527 719.353 93.576 704.403 75.1339 704.403C56.6917 704.403 41.7412 719.353 41.7412 737.795C41.7412 756.237 56.6917 771.189 75.1339 771.189Z" fill="#EA8F5E"/>
<path d="M128.01 828.93C146.452 828.93 161.402 813.98 161.402 795.536C161.402 777.094 146.452 762.145 128.01 762.145C109.568 762.145 94.6172 777.094 94.6172 795.536C94.6172 813.98 109.568 828.93 128.01 828.93Z" fill="#EA8F5E"/>
<path d="M327.121 917.831C216.801 886.768 125.199 820.632 65.0953 731.094C36.1496 687.948 14.5196 639.38 1.626 586.687C-6.16256 554.81 14.8412 523.046 47.2669 517.904C47.6078 517.846 47.9485 517.791 48.3083 517.753C73.8508 513.686 98.656 527.754 108.79 551.556C149.078 646.183 226.728 713.718 327.121 736.103V917.831Z" fill="#FFBDA1"/>
<path d="M751.95 917.831C862.27 886.768 953.872 820.632 1013.97 731.094C1042.92 687.948 1064.55 639.38 1077.44 586.687C1085.23 554.81 1064.23 523.046 1031.8 517.904C1031.46 517.842 1031.11 517.791 1030.76 517.753C1005.22 513.686 980.417 527.754 970.283 551.556C929.995 646.183 852.346 713.718 751.952 736.103L751.95 917.831Z" fill="#FFBDA1"/>
<path d="M327.121 856.919C216.801 825.857 125.199 759.721 65.0953 670.183C36.1496 627.037 14.5196 578.468 1.626 525.776C-6.16256 493.899 14.8412 462.137 47.2669 456.992C47.6078 456.935 47.9485 456.88 48.3083 456.841C73.8508 452.775 98.656 466.842 108.79 490.647C149.078 585.274 226.728 652.808 327.121 675.194V856.919Z" fill="#EA8F5E"/>
<path d="M751.95 856.919C862.27 825.857 953.872 759.721 1013.97 670.183C1042.92 627.037 1064.55 578.468 1077.44 525.776C1085.23 493.899 1064.23 462.137 1031.8 456.992C1031.46 456.93 1031.11 456.882 1030.76 456.841C1005.22 452.775 980.417 466.842 970.283 490.647C929.995 585.274 852.346 652.808 751.952 675.194L751.95 856.919Z" fill="#EA8F5E"/>
<path d="M63.6407 1065.13C82.0829 1065.13 97.0334 1050.18 97.0334 1031.73C97.0334 1013.29 82.0829 998.342 63.6407 998.342C45.1985 998.342 30.248 1013.29 30.248 1031.73C30.248 1050.18 45.1985 1065.13 63.6407 1065.13Z" fill="#EA8F5E"/>
<path d="M318.962 1083.18C337.404 1083.18 352.354 1068.23 352.354 1049.79C352.354 1031.35 337.404 1016.4 318.962 1016.4C300.518 1016.4 285.568 1031.35 285.568 1049.79C285.568 1068.23 300.518 1083.18 318.962 1083.18Z" fill="#EA8F5E"/>
<path d="M385.749 1041.44C404.191 1041.44 419.141 1026.49 419.141 1008.05C419.141 989.604 404.191 974.652 385.749 974.652C367.305 974.652 352.355 989.604 352.355 1008.05C352.355 1026.49 367.305 1041.44 385.749 1041.44Z" fill="#EA8F5E"/>
<path d="M443.49 988.568C461.934 988.568 476.884 973.618 476.884 955.174C476.884 936.732 461.934 921.782 443.49 921.782C425.048 921.782 410.099 936.732 410.099 955.174C410.099 973.618 425.048 988.568 443.49 988.568Z" fill="#EA8F5E"/>
<path d="M491.492 917.605C509.936 917.605 524.886 902.655 524.886 884.214C524.886 865.77 509.936 850.82 491.492 850.82C473.05 850.82 458.101 865.77 458.101 884.214C458.101 902.655 473.05 917.605 491.492 917.605Z" fill="#EA8F5E"/>
<path d="M147.123 1049.79C165.565 1049.79 180.516 1034.84 180.516 1016.39C180.516 997.952 165.565 983 147.123 983C128.681 983 113.73 997.952 113.73 1016.39C113.73 1034.84 128.681 1049.79 147.123 1049.79Z" fill="#EA8F5E"/>
<path d="M213.911 1013.71C232.353 1013.71 247.303 998.756 247.303 980.315C247.303 961.871 232.353 946.921 213.911 946.921C195.468 946.921 180.518 961.871 180.518 980.315C180.518 998.756 195.468 1013.71 213.911 1013.71Z" fill="#EA8F5E"/>
<path d="M1012.22 1065.13C1030.66 1065.13 1045.62 1050.18 1045.62 1031.73C1045.62 1013.29 1030.66 998.342 1012.22 998.342C993.78 998.342 978.83 1013.29 978.83 1031.73C978.83 1050.18 993.78 1065.13 1012.22 1065.13Z" fill="#EA8F5E"/>
<path d="M756.9 1083.18C775.342 1083.18 790.294 1068.23 790.294 1049.79C790.294 1031.35 775.342 1016.4 756.9 1016.4C738.459 1016.4 723.509 1031.35 723.509 1049.79C723.509 1068.23 738.459 1083.18 756.9 1083.18Z" fill="#EA8F5E"/>
<path d="M690.113 1041.44C708.555 1041.44 723.507 1026.49 723.507 1008.05C723.507 989.604 708.555 974.652 690.113 974.652C671.672 974.652 656.722 989.604 656.722 1008.05C656.722 1026.49 671.672 1041.44 690.113 1041.44Z" fill="#EA8F5E"/>
<path d="M632.37 988.568C650.812 988.568 665.764 973.618 665.764 955.174C665.764 936.732 650.812 921.782 632.37 921.782C613.928 921.782 598.979 936.732 598.979 955.174C598.979 973.618 613.928 988.568 632.37 988.568Z" fill="#EA8F5E"/>
<path d="M584.371 917.605C602.813 917.605 617.763 902.655 617.763 884.214C617.763 865.77 602.813 850.82 584.371 850.82C565.927 850.82 550.978 865.77 550.978 884.214C550.978 902.655 565.927 917.605 584.371 917.605Z" fill="#EA8F5E"/>
<path d="M928.741 1049.79C947.183 1049.79 962.133 1034.84 962.133 1016.39C962.133 997.952 947.183 983 928.741 983C910.297 983 895.348 997.952 895.348 1016.39C895.348 1034.84 910.297 1049.79 928.741 1049.79Z" fill="#EA8F5E"/>
<path d="M861.952 1013.71C880.394 1013.71 895.344 998.756 895.344 980.315C895.344 961.871 880.394 946.921 861.952 946.921C843.511 946.921 828.559 961.871 828.559 980.315C828.559 998.756 843.511 1013.71 861.952 1013.71Z" fill="#EA8F5E"/>
<path d="M448.142 680.185C413.849 801.967 340.844 903.088 241.999 969.436C194.371 1001.39 140.754 1025.27 82.5881 1039.5C47.4003 1048.1 12.3357 1024.91 6.65984 989.117C6.59808 988.739 6.53418 988.366 6.49373 987.969C2.00629 959.773 17.5344 932.391 43.8114 921.203C148.27 876.727 222.821 791.01 247.532 680.185H448.142Z" fill="url(#paint0_linear_10044_21301)"/>
<path d="M448.142 680.185C413.849 801.967 340.844 903.088 241.999 969.436C194.371 1001.39 140.754 1025.27 82.5881 1039.5C47.4003 1048.1 12.3357 1024.91 6.65984 989.117C6.59808 988.739 6.53418 988.366 6.49373 987.969C2.00629 959.773 17.5344 932.391 43.8114 921.203C148.27 876.727 222.821 791.01 247.532 680.185H448.142Z" fill="#FFBDA1"/>
<path d="M1069.37 987.967C1069.32 988.363 1069.26 988.739 1069.2 989.114C1063.52 1024.91 1028.46 1048.09 993.273 1039.5C935.105 1025.26 881.488 1001.39 833.861 969.434C735.016 903.085 662.011 801.964 627.718 680.183H828.33C853.041 791.007 927.593 876.724 1032.05 921.2C1058.33 932.389 1073.85 959.77 1069.37 987.967Z" fill="url(#paint1_linear_10044_21301)"/>
<path d="M1069.37 987.967C1069.32 988.363 1069.26 988.739 1069.2 989.114C1063.52 1024.91 1028.46 1048.09 993.273 1039.5C935.105 1025.26 881.488 1001.39 833.861 969.434C735.016 903.085 662.011 801.964 627.718 680.183H828.33C853.041 791.007 927.593 876.724 1032.05 921.2C1058.33 932.389 1073.85 959.77 1069.37 987.967Z" fill="#FFBDA1"/>
<path d="M559.427 680.185C555.817 716.271 548.574 751.396 537.928 785.082C502.594 896.929 429.692 993.164 326.547 1057.47C297.793 1075.41 260.439 1066.87 242.184 1039.33C240.921 1037.42 241.123 1034.87 240.052 1032.79C239.865 1032.44 239.562 1032.12 239.394 1031.77C228.876 1011.31 257.044 987.846 269.442 969.436C272.425 964.992 248.595 960.878 252.768 957.204C334.163 885.806 378.014 787.21 372.233 680.185H559.427Z" fill="#FFBDA1"/>
<path d="M833.44 1032.3C833.274 1032.65 833.104 1032.99 832.918 1033.34C831.883 1035.36 835.016 1037.29 833.802 1039.13C815.594 1066.83 778.134 1075.45 749.312 1057.47C646.167 993.165 573.265 896.929 537.93 785.082C527.285 751.396 520.044 716.273 516.432 680.185H703.624C697.841 787.21 741.691 885.806 823.089 957.204C827.19 960.802 830.811 964.911 833.86 969.436C846.257 987.844 843.958 1011.84 833.44 1032.3Z" fill="#FFBDA1"/>
<path d="M1032.09 921.222C1029.86 920.273 1027.64 919.304 1025.44 918.315C898.361 861.397 833.878 718.742 871.313 584.626C893.302 505.84 908.23 390.384 893.091 302.607C862.897 127.512 715.611 -3 537.934 -3H537.927C360.25 -3 212.964 127.512 182.769 302.607C167.633 390.384 182.559 505.84 204.548 584.626C241.983 718.742 177.5 861.397 50.4256 918.315C48.231 919.3 46.0275 920.263 43.8148 921.205C17.5377 932.389 2.01593 959.771 6.48417 987.979L6.66521 989.117C7.03152 991.435 7.52775 993.697 8.13474 995.905C18.3712 998.754 29.1694 998.918 39.487 996.378C187.845 960.093 306.518 860.979 371.72 725.295C364.783 814.712 322.598 895.962 252.768 957.216C231.297 976.05 225.103 1006.91 238.156 1032.31L238.682 1033.33C239.743 1035.39 240.916 1037.39 242.197 1039.32C252.813 1038.84 263.121 1035.62 272.131 1029.98C375.18 965.742 448.035 869.634 483.406 757.923C490.835 734.456 512.879 718.852 537.494 718.865H538.373C562.988 718.852 585.034 734.456 592.461 757.923C627.832 869.637 700.685 965.742 803.736 1029.98C812.746 1035.62 823.054 1038.84 833.67 1039.32C834.951 1037.39 836.124 1035.4 837.185 1033.33L837.711 1032.31C850.764 1006.91 844.57 976.05 823.099 957.216C753.267 895.959 711.078 814.706 704.145 725.283C769.345 860.973 888.021 960.093 1036.38 996.378C1046.7 998.92 1057.5 998.756 1067.74 995.905C1068.35 993.671 1068.84 991.406 1069.21 989.117L1069.39 987.979C1073.85 959.785 1058.35 932.397 1032.09 921.222Z" fill="#EA8F5E"/>
<path d="M537.928 673.019C597.817 673.019 646.366 624.469 646.366 564.581C646.366 504.692 597.817 456.145 537.928 456.145C478.04 456.145 429.49 504.692 429.49 564.581C429.49 624.469 478.04 673.019 537.928 673.019Z" fill="#EA8F5E"/>
<path d="M507.695 593.509L363.127 616.913C393.655 747.825 350.012 871.913 252.765 957.214C231.294 976.048 225.099 1006.9 238.152 1032.31L238.679 1033.33C239.739 1035.39 240.912 1037.39 242.196 1039.32C252.809 1038.83 263.118 1035.62 272.127 1029.98C423.119 935.851 509.297 773.314 507.695 593.509Z" fill="#EA8F5E"/>
<path d="M568.166 593.509L712.734 616.913C682.206 747.825 725.849 871.913 823.096 957.214C844.567 976.048 850.762 1006.9 837.708 1032.31L837.182 1033.33C836.121 1035.39 834.948 1037.39 833.667 1039.32C823.051 1038.83 812.743 1035.62 803.735 1029.98C652.739 935.851 566.562 773.314 568.166 593.509Z" fill="#EA8F5E"/>
<mask id="mask0_10044_21301" style="mask-type:alpha" maskUnits="userSpaceOnUse" x="361" y="333" width="104" height="123">
<path d="M412.608 333.409C440.886 333.409 463.898 360.666 463.898 394.41C463.898 428.154 440.886 455.412 412.608 455.412C384.331 455.412 361.318 428.154 361.318 394.41C361.318 360.666 384.331 333.409 412.608 333.409Z" fill="#FCD53F" stroke="black" stroke-width="0.636014"/>
</mask>
<g mask="url(#mask0_10044_21301)">
<ellipse cx="412.608" cy="394.41" rx="51.6083" ry="61.3196" fill="white"/>
<ellipse cx="427.839" cy="371.705" rx="43.8393" ry="46.614" fill="#313234"/>
</g>
<mask id="mask1_10044_21301" style="mask-type:alpha" maskUnits="userSpaceOnUse" x="614" y="333" width="104" height="123">
<path d="M665.608 333.409C693.886 333.409 716.898 360.666 716.898 394.41C716.898 428.154 693.886 455.412 665.608 455.412C637.331 455.412 614.318 428.154 614.318 394.41C614.318 360.666 637.331 333.409 665.608 333.409Z" fill="#FCD53F" stroke="black" stroke-width="0.636014"/>
</mask>
<g mask="url(#mask1_10044_21301)">
<ellipse cx="665.608" cy="394.41" rx="51.6083" ry="61.3196" fill="white"/>
<ellipse cx="680.839" cy="371.705" rx="43.8393" ry="46.614" fill="#313234"/>
</g>
<path d="M576 472.091C576 492.171 559.658 508.449 539.5 508.449C519.342 508.449 503 492.171 503 472.091" stroke="#313234" stroke-width="20" stroke-linecap="round"/>
<path d="M348.632 539.893C348.632 565.768 327.674 586.729 301.816 586.729C275.958 586.729 255 565.768 255 539.893C255 514.049 275.958 493.091 301.816 493.091C327.674 493.091 348.632 514.049 348.632 539.893Z" fill="#FFBDA1"/>
<path d="M823.265 539.893C823.265 565.768 802.307 586.729 776.449 586.729C750.591 586.729 729.633 565.768 729.633 539.893C729.633 514.049 750.591 493.091 776.449 493.091C802.307 493.091 823.265 514.049 823.265 539.893Z" fill="#FFBDA1"/>
</g>
<defs>
<linearGradient id="paint0_linear_10044_21301" x1="255.479" y1="891.269" x2="288.098" y2="952.882" gradientUnits="userSpaceOnUse">
<stop stop-color="white"/>
<stop offset="1" stop-color="#E1D3CE"/>
</linearGradient>
<linearGradient id="paint1_linear_10044_21301" x1="819.66" y1="894.258" x2="794.29" y2="943.794" gradientUnits="userSpaceOnUse">
<stop stop-color="white"/>
<stop offset="1" stop-color="#E1D3CE"/>
</linearGradient>
<clipPath id="clip0_10044_21301">
<rect width="1080" height="1080" fill="white"/>
</clipPath>
</defs>
</svg>
