<svg width="1080" height="1080" viewBox="0 0 1080 1080" fill="none" xmlns="http://www.w3.org/2000/svg">
<circle cx="229.09" cy="450.09" r="111.09" fill="#716E6E"/>
<circle cx="229.09" cy="450.09" r="79.3502" fill="#FFBDA1"/>
<circle cx="850.271" cy="450.09" r="111.09" fill="#716E6E"/>
<circle cx="850.269" cy="450.09" r="79.3502" fill="#FFBDA1"/>
<path d="M539.466 179C777.65 179 826.143 331.906 935.388 584.906C1044.63 837.881 784.006 988.971 539.534 988.999C539.511 988.999 539.489 989 539.466 989C294.994 988.972 34.373 837.881 143.612 584.906C252.847 331.93 301.341 179.029 539.466 179Z" fill="#716E6E"/>
<mask id="mask0_10044_21303" style="mask-type:alpha" maskUnits="userSpaceOnUse" x="118" y="179" width="843" height="810">
<path d="M539.466 179C777.65 179 826.143 331.906 935.388 584.906C1044.63 837.881 784.006 988.971 539.534 988.999C539.511 988.999 539.489 989 539.466 989C294.994 988.972 34.373 837.881 143.612 584.906C252.847 331.93 301.341 179.029 539.466 179Z" fill="#EA8F5E"/>
</mask>
<g mask="url(#mask0_10044_21303)">
<path d="M777.954 616C866.559 616 945.326 656.641 995.327 719.657C927.133 890.903 749.521 1013 541.153 1013C339.005 1013 165.803 898.084 93.375 734.859C142.309 663.253 226.412 616.001 321.952 616.001C376.109 616.001 426.591 631.185 469.075 657.38C515.181 685.808 584.724 685.807 630.829 657.379C673.314 631.183 723.796 616 777.954 616Z" fill="#FEFAEE"/>
</g>
<path d="M493.215 129.255C492.838 108.037 506.715 90.4658 524.209 90.0091C541.704 89.5523 556.191 106.383 556.568 127.601L557.102 157.712L565.517 129.673C571.501 109.73 589.683 99.4474 606.126 106.706C622.57 113.965 631.048 136.016 625.063 155.959L596.165 252.253C590.181 272.196 571.999 282.479 555.556 275.22C550.291 272.896 545.843 269.055 542.425 264.253C537.985 267.335 532.865 269.153 527.391 269.296C522.906 269.413 518.618 268.394 514.715 266.456C511.795 277.293 504.945 286.452 495.427 290.654C478.983 297.913 460.802 287.63 454.817 267.687L425.919 171.394C419.935 151.451 428.413 129.399 444.856 122.141C461.299 114.882 479.481 125.165 485.466 145.108L494.001 173.548L493.215 129.255Z" fill="#716E6E"/>
<path d="M309.632 706.802C309.632 732.677 288.674 753.638 262.816 753.638C236.958 753.638 216 732.677 216 706.802C216 680.958 236.958 660 262.816 660C288.674 660 309.632 680.958 309.632 706.802Z" fill="#FFBDA1"/>
<path d="M863.632 706.802C863.632 732.677 842.674 753.638 816.816 753.638C790.958 753.638 770 732.677 770 706.802C770 680.958 790.958 660 816.816 660C842.674 660 863.632 680.958 863.632 706.802Z" fill="#FFBDA1"/>
<path d="M525.913 642C492.652 642 472 690.489 472 700.974C472 711.458 481.043 725 525.913 725C576.783 725 582 713.205 582 700.974C582 692.018 559.174 642 525.913 642Z" fill="#313234"/>
<path d="M564 754C564 774.08 547.658 790.358 527.5 790.358C507.342 790.358 491 774.08 491 754" stroke="#313234" stroke-width="20" stroke-linecap="round"/>
<path d="M157.929 702.38L15.0006 702.379" stroke="#313234" stroke-width="20" stroke-linecap="round"/>
<path d="M165.528 727.597L15.4793 795.38" stroke="#313234" stroke-width="20" stroke-linecap="round"/>
<path d="M921.598 702.38L1064.53 702.379" stroke="#313234" stroke-width="20" stroke-linecap="round"/>
<path d="M913.999 727.597L1064.05 795.38" stroke="#313234" stroke-width="20" stroke-linecap="round"/>
<mask id="mask1_10044_21303" style="mask-type:alpha" maskUnits="userSpaceOnUse" x="311" y="529" width="104" height="123">
<path d="M362.608 529.318C390.886 529.318 413.898 556.576 413.898 590.319C413.898 624.063 390.886 651.321 362.608 651.321C334.331 651.321 311.318 624.063 311.318 590.319C311.318 556.576 334.331 529.318 362.608 529.318Z" fill="#FCD53F" stroke="black" stroke-width="0.636014"/>
</mask>
<g mask="url(#mask1_10044_21303)">
<ellipse cx="362.608" cy="590.32" rx="51.6083" ry="61.3196" fill="white"/>
<ellipse cx="362.839" cy="613.614" rx="41.1607" ry="43.7658" fill="#313234"/>
</g>
<mask id="mask2_10044_21303" style="mask-type:alpha" maskUnits="userSpaceOnUse" x="640" y="529" width="104" height="123">
<path d="M691.608 529.318C719.886 529.318 742.898 556.576 742.898 590.319C742.898 624.063 719.886 651.321 691.608 651.321C663.331 651.321 640.318 624.063 640.318 590.319C640.318 556.576 663.331 529.318 691.608 529.318Z" fill="#FCD53F" stroke="black" stroke-width="0.636014"/>
</mask>
<g mask="url(#mask2_10044_21303)">
<ellipse cx="691.608" cy="590.32" rx="51.6083" ry="61.3196" fill="white"/>
<ellipse cx="691.839" cy="613.614" rx="41.1607" ry="43.7658" fill="#313234"/>
</g>
</svg>
