<svg width="1080" height="1080" viewBox="0 0 1080 1080" fill="none" xmlns="http://www.w3.org/2000/svg">
<path d="M913.058 248.496C868.045 277.274 816.777 294.783 767.006 313.208C758.922 316.202 760.119 326.828 766.208 329.433C766.274 341.959 773.327 353.074 781.179 362.869C790.195 374.08 799.909 384.767 809.956 395.057C818.972 404.292 828.421 413.119 838.169 421.582C843.026 425.817 847.983 429.959 853.007 434.005C858.23 438.187 863.487 443.417 870.241 444.568C883.615 446.844 891.865 430.685 897.92 421.319C904.175 411.705 909.598 401.564 914.189 391.051C932.853 347.981 938.243 300.11 927.996 254.198C926.565 247.854 918.248 245.176 913.058 248.496Z" fill="#FCDC7E"/>
<path d="M314.012 306.79C266.97 282.227 218.297 258.383 177.309 224.156C172.585 220.207 164.001 221.81 161.772 227.925C145.77 272.173 145.071 320.34 158.179 365.427C161.407 376.432 165.498 387.178 170.489 397.502C175.313 407.559 181.468 424.629 195.008 424.061C201.862 423.771 207.75 419.25 213.44 415.76C218.929 412.383 224.385 408.896 229.742 405.313C240.487 398.144 250.967 390.585 261.081 382.561C272.359 373.621 283.338 364.249 293.685 354.262C302.701 345.539 311.118 335.405 312.781 322.985C319.103 321.169 321.664 310.779 314.012 306.79Z" fill="#FCDC7E"/>
<path d="M539.542 200.259C765.905 200.259 811.991 333.285 915.815 553.392C1019.63 773.478 771.946 904.924 539.606 904.949C539.585 904.949 539.564 904.949 539.542 904.949C307.203 904.925 59.5165 773.478 163.334 553.392C267.148 333.306 313.235 200.284 539.542 200.259Z" fill="#EA8F5E"/>
<path d="M716.738 345.921C617.929 416.831 579.802 454.788 540.944 504.805C490.375 430.648 462.728 396.278 328.054 309.282C253.431 261.085 168.694 377.989 121.518 472.833C113.201 489.584 103.154 505.56 95.868 522.461C63.6301 597.021 69.2195 679.296 109.342 743.049C150.097 807.768 213.541 814.602 280.878 821.685C437.576 838.159 536.053 673.773 536.053 673.773C536.053 673.773 588.153 906.019 841.831 832.597C935.084 805.619 1005.68 712.655 1004.45 636.618C1002.65 526.287 956.31 489.731 934.685 424.906C909.567 349.581 877.096 230.853 716.738 345.921Z" fill="#FCDC7E"/>
<mask id="mask0_10035_3711" style="mask-type:alpha" maskUnits="userSpaceOnUse" x="319" y="492" width="104" height="123">
<path d="M370.608 492.318C398.886 492.318 421.898 519.576 421.898 553.319C421.898 587.063 398.886 614.321 370.608 614.321C342.331 614.321 319.318 587.063 319.318 553.319C319.318 519.576 342.331 492.318 370.608 492.318Z" fill="#FCD53F" stroke="black" stroke-width="0.636014"/>
</mask>
<g mask="url(#mask0_10035_3711)">
<ellipse cx="370.608" cy="553.32" rx="51.6083" ry="61.3196" fill="white"/>
<ellipse cx="370.839" cy="576.614" rx="41.1607" ry="43.7658" fill="#313234"/>
</g>
<mask id="mask1_10035_3711" style="mask-type:alpha" maskUnits="userSpaceOnUse" x="658" y="492" width="104" height="123">
<path d="M709.608 492.318C737.886 492.318 760.898 519.576 760.898 553.319C760.898 587.063 737.886 614.321 709.608 614.321C681.331 614.321 658.318 587.063 658.318 553.319C658.318 519.576 681.331 492.318 709.608 492.318Z" fill="#FCD53F" stroke="black" stroke-width="0.636014"/>
</mask>
<g mask="url(#mask1_10035_3711)">
<ellipse cx="709.608" cy="553.32" rx="51.6083" ry="61.3196" fill="white"/>
<ellipse cx="709.839" cy="576.614" rx="41.1607" ry="43.7658" fill="#313234"/>
</g>
<path d="M553.325 548.065C547.769 539.974 541.149 536.947 534.162 543.787C521.686 556.043 511.572 568.15 503.455 576.184C499.296 580.3 499.462 587.034 500.992 592.08C506.216 609.331 511.605 620.825 519.424 633.228C523.117 639.09 527.109 644.28 531.301 648.641C533.963 651.426 536.99 653.595 539.884 652.62C540.483 652.591 541.115 652.308 541.747 651.692C553.292 640.84 565.169 626.644 574.418 608.156C578.942 599.107 583.234 590.8 578.543 580.945C575.083 573.659 561.842 560.428 553.325 548.065Z" fill="#EA8F5E"/>
<path d="M349.632 661.802C349.632 687.677 328.674 708.638 302.816 708.638C276.958 708.638 256 687.677 256 661.802C256 635.958 276.958 615 302.816 615C328.674 615 349.632 635.958 349.632 661.802Z" fill="#EA8F5E"/>
<path d="M824.128 661.802C824.128 687.677 803.171 708.638 777.312 708.638C751.454 708.638 730.496 687.677 730.496 661.802C730.496 635.958 751.454 615 777.312 615C803.171 615 824.128 635.958 824.128 661.802Z" fill="#EA8F5E"/>
</svg>
