<svg width="1080" height="1080" viewBox="0 0 1080 1080" fill="none" xmlns="http://www.w3.org/2000/svg">
<path d="M316.129 279.063C316.129 356.424 253.44 419.129 176.055 419.129C98.7011 419.129 36 356.424 36 279.063C36 201.709 98.7011 139 176.055 139C253.44 139 316.129 201.709 316.129 279.063Z" fill="#313234"/>
<path d="M265.511 295.333C265.511 335.389 233.046 367.861 192.987 367.861C152.928 367.861 120.44 335.389 120.44 295.333C120.44 255.274 152.928 222.809 192.987 222.809C233.046 222.809 265.511 255.274 265.511 295.333Z" fill="#FFBDA1"/>
<path d="M763 279.063C763 356.424 825.69 419.129 903.074 419.129C980.428 419.129 1043.13 356.424 1043.13 279.063C1043.13 201.709 980.428 139 903.074 139C825.69 139 763 201.709 763 279.063Z" fill="#313234"/>
<path d="M813.618 295.333C813.618 335.389 846.083 367.861 886.142 367.861C926.201 367.861 958.689 335.389 958.689 295.333C958.689 255.274 926.201 222.809 886.142 222.809C846.083 222.809 813.618 255.274 813.618 295.333Z" fill="#FFBDA1"/>
<path d="M84 623C84 370.041 288.137 165 539.625 165C791.121 165 995.25 369.71 995.25 623C995.25 748.571 945.126 826.639 865.063 874.394C783.502 923.043 669.096 941.25 539.625 941.25C410.154 941.25 295.748 923.043 214.187 874.394C134.124 826.639 84 748.571 84 623Z" fill="#FEFAEE"/>
<path d="M214.609 657.776C270.84 714.075 362.263 714.075 418.494 657.776C474.724 601.478 474.724 509.945 418.494 453.647C362.263 397.348 296.086 422.625 239.855 478.924C183.624 535.222 158.378 601.478 214.609 657.776Z" fill="#716E6E"/>
<path d="M865.391 657.776C921.622 601.478 896.376 535.222 840.145 478.924C783.914 422.625 717.737 397.348 661.507 453.647C605.276 509.945 605.276 601.478 661.507 657.776C717.737 714.075 809.16 714.075 865.391 657.776Z" fill="#716E6E"/>
<mask id="mask0_10044_20869" style="mask-type:alpha" maskUnits="userSpaceOnUse" x="301" y="506" width="104" height="123">
<path d="M352.608 506.318C380.886 506.318 403.898 533.576 403.898 567.319C403.898 601.063 380.886 628.321 352.608 628.321C324.331 628.321 301.318 601.063 301.318 567.319C301.318 533.576 324.331 506.318 352.608 506.318Z" fill="#FCD53F" stroke="black" stroke-width="0.636014"/>
</mask>
<g mask="url(#mask0_10044_20869)">
<ellipse cx="352.608" cy="567.32" rx="51.6083" ry="61.3196" fill="white"/>
<ellipse cx="372.161" cy="566.766" rx="41.1607" ry="43.7658" fill="#313234"/>
</g>
<mask id="mask1_10044_20869" style="mask-type:alpha" maskUnits="userSpaceOnUse" x="680" y="506" width="104" height="123">
<path d="M731.608 506.318C759.886 506.318 782.898 533.576 782.898 567.319C782.898 601.063 759.886 628.321 731.608 628.321C703.331 628.321 680.318 601.063 680.318 567.319C680.318 533.576 703.331 506.318 731.608 506.318Z" fill="#FCD53F" stroke="black" stroke-width="0.636014"/>
</mask>
<g mask="url(#mask1_10044_20869)">
<ellipse cx="731.608" cy="567.32" rx="51.6083" ry="61.3196" fill="white"/>
<ellipse cx="751.161" cy="566.766" rx="41.1607" ry="43.7658" fill="#313234"/>
</g>
<path d="M541.881 678C541.197 700.294 544.641 745.698 599.326 749C604.909 749 619.769 744.872 628.025 730.012" stroke="#313234" stroke-width="20" stroke-linecap="round"/>
<path d="M539.144 678C539.828 700.294 536.384 745.698 481.699 749C476.116 749 461.256 744.872 453 730.012" stroke="#313234" stroke-width="20" stroke-linecap="round"/>
<path d="M542.087 685C575.348 685 596 636.511 596 626.026C596 615.542 586.957 602 542.087 602C491.217 602 486 613.795 486 626.026C486 634.982 508.826 685 542.087 685Z" fill="#313234"/>
<path d="M279.632 736.802C279.632 762.677 258.674 783.638 232.816 783.638C206.958 783.638 186 762.677 186 736.802C186 710.958 206.958 690 232.816 690C258.674 690 279.632 710.958 279.632 736.802Z" fill="#FFBDA1"/>
<path d="M895.632 736.802C895.632 762.677 874.674 783.638 848.816 783.638C822.958 783.638 802 762.677 802 736.802C802 710.958 822.958 690 848.816 690C874.674 690 895.632 710.958 895.632 736.802Z" fill="#FFBDA1"/>
</svg>
