<svg width="1080" height="1080" viewBox="0 0 1080 1080" fill="none" xmlns="http://www.w3.org/2000/svg">
<path d="M601.686 79.0345C620.885 87.5055 631.422 111.112 625.223 131.761L594.534 233.977C588.618 253.68 569.602 263.571 551.193 257.077C546.789 264.429 540.355 270.479 532.453 273.965C513.255 282.437 492.666 272.564 486.466 251.915L455.777 149.699C449.578 129.05 460.115 105.444 479.314 96.9728C498.512 88.5018 519.101 98.3739 525.301 119.023L537.807 160.678L555.699 101.085C561.899 80.4356 582.488 70.5635 601.686 79.0345Z" fill="#6AAA7D"/>
<ellipse cx="535" cy="589.5" rx="435" ry="413.5" fill="#6AAA7D"/>
<ellipse cx="444" cy="774" rx="401" ry="217" fill="#6AAA7D"/>
<ellipse cx="637" cy="774" rx="401" ry="217" fill="#6AAA7D"/>
<ellipse cx="371" cy="623" rx="127" ry="123" fill="#FCDC7E"/>
<ellipse cx="703.5" cy="623" rx="127.5" ry="123" fill="#FCDC7E"/>
<path d="M313.359 706.562C313.359 737.612 288.209 762.765 257.179 762.765C226.15 762.765 201 737.612 201 706.562C201 675.549 226.15 650.399 257.179 650.399C288.209 650.399 313.359 675.549 313.359 706.562Z" fill="#EA8F5E"/>
<path d="M882.753 706.562C882.753 737.612 857.604 762.765 826.574 762.765C795.544 762.765 770.395 737.612 770.395 706.562C770.395 675.549 795.544 650.399 826.574 650.399C857.604 650.399 882.753 675.549 882.753 706.562Z" fill="#EA8F5E"/>
<mask id="mask0_10045_2334" style="mask-type:alpha" maskUnits="userSpaceOnUse" x="336" y="555" width="125" height="148">
<path d="M398.328 555.918C432.306 555.918 459.94 588.666 459.94 629.183C459.94 669.7 432.306 702.448 398.328 702.448C364.35 702.448 336.717 669.699 336.717 629.183C336.717 588.666 364.35 555.918 398.328 555.918Z" fill="#FCD53F" stroke="black" stroke-width="0.636014"/>
</mask>
<g mask="url(#mask0_10045_2334)">
<ellipse cx="398.328" cy="629.183" rx="61.93" ry="73.5835" fill="white"/>
<ellipse cx="398.606" cy="657.136" rx="49.3928" ry="52.5189" fill="#313234"/>
</g>
<mask id="mask1_10045_2334" style="mask-type:alpha" maskUnits="userSpaceOnUse" x="620" y="555" width="125" height="148">
<path d="M682.729 555.918C716.707 555.918 744.341 588.666 744.341 629.183C744.341 669.7 716.707 702.448 682.729 702.448C648.75 702.448 621.117 669.699 621.117 629.183C621.117 588.666 648.751 555.918 682.729 555.918Z" fill="#FCD53F" stroke="black" stroke-width="0.636014"/>
</mask>
<g mask="url(#mask1_10045_2334)">
<ellipse cx="682.729" cy="629.183" rx="61.93" ry="73.5835" fill="white"/>
<ellipse cx="683.006" cy="657.136" rx="49.3928" ry="52.5189" fill="#313234"/>
</g>
<path d="M586.723 855.114L639.535 771.71C651.545 752.747 637.914 728 615.468 728H467.531C445.082 728 431.457 752.747 443.464 771.71L496.279 855.114C517.288 888.295 565.711 888.295 586.723 855.114Z" fill="#EA8F5E"/>
<path d="M489.217 636.817L428.161 733.387C414.278 755.343 430.034 784 455.987 784H627.013C652.966 784 668.722 755.346 654.839 733.387L593.782 636.817C569.486 598.394 513.514 598.394 489.217 636.817Z" fill="#EA8F5E"/>
</svg>
