<svg width="1080" height="1080" viewBox="0 0 1080 1080" fill="none" xmlns="http://www.w3.org/2000/svg">
<path d="M540.638 138C737.603 138 897.274 287.33 897.274 471.538C897.274 478.77 897.028 485.949 896.543 493.066C941.073 521.631 967 555.867 967 592.671C967 663.919 869.841 725.54 728.642 755.019C674.057 786.749 609.636 805.076 540.638 805.076C471.703 805.076 407.337 786.783 352.785 755.107C211.355 725.664 114 663.99 114 592.671C114 555.794 140.029 521.496 184.72 492.898C184.242 485.836 184 478.713 184 471.538C184 287.33 343.672 138 540.638 138Z" fill="#FEFAEE"/>
<path d="M591.929 18.5363C607.91 25.6165 616.681 45.3472 611.521 62.606L585.976 148.041C581.052 164.509 565.223 172.776 549.901 167.348C546.235 173.493 540.879 178.55 534.302 181.464C518.322 188.544 501.184 180.293 496.024 163.034L470.479 77.5992C465.319 60.3404 474.09 40.6097 490.07 33.5295C506.051 26.4492 523.188 34.7006 528.349 51.9594L538.759 86.7755L553.651 36.9662C558.812 19.7074 575.949 11.4561 591.929 18.5363Z" fill="#FEFAEE"/>
<mask id="mask0_10045_2302" style="mask-type:alpha" maskUnits="userSpaceOnUse" x="319" y="321" width="104" height="123">
<path d="M370.608 321.318C398.886 321.318 421.898 348.576 421.898 382.319C421.898 416.063 398.886 443.321 370.608 443.321C342.331 443.321 319.318 416.063 319.318 382.319C319.318 348.576 342.331 321.318 370.608 321.318Z" fill="#FCD53F" stroke="black" stroke-width="0.636014"/>
</mask>
<g mask="url(#mask0_10045_2302)">
<ellipse cx="370.608" cy="382.32" rx="51.6083" ry="61.3196" fill="white"/>
<ellipse cx="370.839" cy="405.614" rx="41.1607" ry="43.7658" fill="#313234"/>
</g>
<mask id="mask1_10045_2302" style="mask-type:alpha" maskUnits="userSpaceOnUse" x="658" y="321" width="104" height="123">
<path d="M709.608 321.318C737.886 321.318 760.898 348.576 760.898 382.319C760.898 416.063 737.886 443.321 709.608 443.321C681.331 443.321 658.318 416.063 658.318 382.319C658.318 348.576 681.331 321.318 709.608 321.318Z" fill="#FCD53F" stroke="black" stroke-width="0.636014"/>
</mask>
<g mask="url(#mask1_10045_2302)">
<ellipse cx="709.608" cy="382.32" rx="51.6083" ry="61.3196" fill="white"/>
<ellipse cx="709.838" cy="405.614" rx="41.1607" ry="43.7658" fill="#313234"/>
</g>
<path d="M821.115 609C800.37 630 758.012 679.3 754.538 708.5C750.196 745 751.16 1058 552.876 1063.5C550.349 1063.57 547.879 1063.57 545.465 1063.52C543.051 1063.57 540.581 1063.57 538.054 1063.5C339.77 1058 340.735 745 336.393 708.5C332.919 679.3 290.561 630 269.815 609L428.057 617L545.465 676.855L662.874 617L821.115 609Z" fill="#EA8F5E"/>
<path d="M541.966 401.5C629.288 398 647.621 471.5 660.646 494C673.672 516.5 690.076 533.5 755.688 540.5C821.301 547.5 820.818 568.5 829.984 594.5C837.317 615.3 803.128 618.167 785.117 617C743.627 621.5 654.375 653.8 629.288 747C606.857 830.332 565.013 847.389 541 845.42C516.987 847.389 475.143 830.333 452.712 747C427.625 653.8 338.372 621.5 296.882 617C278.871 618.167 244.682 615.3 252.015 594.5C261.181 568.5 260.699 547.5 326.312 540.5C391.924 533.5 408.327 516.5 421.353 494C434.379 471.5 452.712 398 540.034 401.5C540.358 401.513 540.68 401.534 541 401.56C541.32 401.534 541.642 401.513 541.966 401.5Z" fill="#FCDC7E"/>
<path d="M238.632 608.802C238.632 634.677 217.674 655.638 191.816 655.638C165.958 655.638 145 634.677 145 608.802C145 582.958 165.958 562 191.816 562C217.674 562 238.632 582.958 238.632 608.802Z" fill="#FFBDA1"/>
<path d="M935.632 608.802C935.632 634.677 914.674 655.638 888.816 655.638C862.958 655.638 842 634.677 842 608.802C842 582.958 862.958 562 888.816 562C914.674 562 935.632 582.958 935.632 608.802Z" fill="#FFBDA1"/>
</svg>
