<svg width="1080" height="1080" viewBox="0 0 1080 1080" fill="none" xmlns="http://www.w3.org/2000/svg">
<path d="M958.513 641.648C958.513 891.793 767.783 1029 532.511 1029C297.248 1029 106.513 891.793 106.513 641.648C106.513 391.503 297.248 123 532.511 123C767.783 123 958.513 391.503 958.513 641.648Z" fill="#313234"/>
<path d="M569.889 456.653C570.555 399.39 604.389 290.203 734.389 311.559C864.388 332.914 875.552 516.069 890.389 605.623C908.863 717.135 864.088 917.341 550.889 908.73C544.104 908.544 537.543 908.218 531.201 907.766C524.86 908.218 518.299 908.544 511.515 908.73C198.315 917.341 153.54 717.135 172.015 605.623C186.851 516.069 198.015 332.914 328.015 311.559C458.014 290.203 491.848 399.39 492.515 456.653H569.889Z" fill="#FEFAEE"/>
<path d="M28.0126 818.968C-5.18743 765.768 107.179 566.134 167.513 472.968V764.968C134.846 805.134 61.2126 872.168 28.0126 818.968Z" fill="#313234"/>
<path d="M1051.01 818.968C1084.21 765.768 971.846 566.134 911.513 472.968V764.968C944.179 805.134 1017.81 872.168 1051.01 818.968Z" fill="#313234"/>
<path d="M540.627 73.3555C547.042 55.7301 566.531 46.6426 584.156 53.0576C601.782 59.4728 610.87 78.9614 604.455 96.5869L578.9 166.799C573.405 181.896 558.318 190.728 543.026 188.92C540.517 190.744 537.715 192.253 534.654 193.367C517.029 199.782 497.54 190.694 491.125 173.068L465.57 102.857C459.155 85.2318 468.243 65.7424 485.868 59.3271C503.494 52.9119 522.983 62.0003 529.398 79.626L533.871 91.915L540.627 73.3555Z" fill="#313234"/>
<path d="M317.72 542.564C317.72 570.51 295.067 593.16 267.121 593.16C239.178 593.16 216.513 570.51 216.513 542.564C216.513 514.617 239.178 491.967 267.121 491.967C295.067 491.967 317.72 514.617 317.72 542.564Z" fill="#FFBDA1"/>
<path d="M835.708 542.564C835.708 570.51 813.061 593.16 785.112 593.16C757.166 593.16 734.513 570.51 734.513 542.564C734.513 514.617 757.166 491.967 785.112 491.967C813.061 491.967 835.708 514.617 835.708 542.564Z" fill="#FFBDA1"/>
<path d="M632.513 481.503C632.513 528.668 554.311 572.176 534.014 571.967C519.713 571.827 435.513 528.668 435.513 481.503C435.513 449.073 479.613 441.967 534.014 441.967C588.416 441.967 632.513 449.073 632.513 481.503Z" fill="#FCDC7E"/>
<mask id="mask0_10045_2303" style="mask-type:alpha" maskUnits="userSpaceOnUse" x="315" y="406" width="104" height="124">
<path d="M367.121 407.286C395.399 407.286 418.411 434.543 418.411 468.287C418.411 502.03 395.399 529.289 367.121 529.289C338.843 529.289 315.831 502.03 315.831 468.287C315.831 434.543 338.843 407.286 367.121 407.286Z" fill="#FCD53F" stroke="black" stroke-width="0.636014"/>
</mask>
<g mask="url(#mask0_10045_2303)">
<ellipse cx="367.121" cy="468.287" rx="51.6083" ry="61.3196" fill="white"/>
<ellipse cx="367.351" cy="453.581" rx="43.8393" ry="46.614" fill="#313234"/>
</g>
<mask id="mask1_10045_2303" style="mask-type:alpha" maskUnits="userSpaceOnUse" x="645" y="406" width="104" height="124">
<path d="M697.338 407.286C725.615 407.286 748.628 434.543 748.628 468.287C748.628 502.03 725.616 529.289 697.338 529.289C669.06 529.289 646.048 502.03 646.048 468.287C646.048 434.543 669.06 407.286 697.338 407.286Z" fill="#FCD53F" stroke="black" stroke-width="0.636014"/>
</mask>
<g mask="url(#mask1_10045_2303)">
<ellipse cx="697.338" cy="468.287" rx="51.6083" ry="61.3196" fill="white"/>
<ellipse cx="697.568" cy="453.581" rx="43.8393" ry="46.614" fill="#313234"/>
</g>
</svg>
