<svg width="1080" height="1080" viewBox="0 0 1080 1080" fill="none" xmlns="http://www.w3.org/2000/svg">
<path d="M539.464 154C794.035 154 845.864 317.477 962.626 587.968C1079.38 858.433 800.829 1019.97 539.536 1020C539.512 1020 539.488 1020 539.464 1020C278.171 1019.97 -0.380692 858.433 116.374 587.968C233.125 317.503 284.955 154.031 539.464 154Z" fill="#FFBDA1"/>
<path d="M268.935 116.435L141.553 187.478C109.426 205.329 95.3195 247.529 110.254 281.11L169.419 414.144C193.736 468.822 268.817 460.932 288.544 401.917L356.651 198.169C376.378 139.155 321.134 87.701 268.935 116.435Z" fill="#EA8F5E"/>
<path d="M810.952 116.435L938.334 187.478C970.461 205.329 984.568 247.529 969.633 281.11L910.468 414.144C886.151 468.822 811.07 460.932 791.343 401.917L723.236 198.169C703.509 139.155 758.753 87.701 810.952 116.435Z" fill="#EA8F5E"/>
<mask id="mask0_10044_21025" style="mask-type:alpha" maskUnits="userSpaceOnUse" x="293" y="459" width="104" height="123">
<path d="M344.608 459.318C372.886 459.318 395.898 486.576 395.898 520.319C395.898 554.063 372.886 581.321 344.608 581.321C316.331 581.321 293.318 554.063 293.318 520.319C293.318 486.576 316.331 459.318 344.608 459.318Z" fill="#FCD53F" stroke="black" stroke-width="0.636014"/>
</mask>
<g mask="url(#mask0_10044_21025)">
<ellipse cx="344.608" cy="520.32" rx="51.6083" ry="61.3196" fill="white"/>
<ellipse cx="344.839" cy="543.614" rx="41.1607" ry="43.7658" fill="#313234"/>
</g>
<mask id="mask1_10044_21025" style="mask-type:alpha" maskUnits="userSpaceOnUse" x="681" y="459" width="105" height="123">
<path d="M733.608 459.318C761.886 459.318 784.898 486.576 784.898 520.319C784.898 554.063 761.886 581.321 733.608 581.321C705.33 581.321 682.318 554.063 682.318 520.319C682.318 486.576 705.331 459.318 733.608 459.318Z" fill="#FCD53F" stroke="black" stroke-width="0.636014"/>
</mask>
<g mask="url(#mask1_10044_21025)">
<ellipse cx="733.608" cy="520.32" rx="51.6083" ry="61.3196" fill="white"/>
<ellipse cx="733.839" cy="543.614" rx="41.1607" ry="43.7658" fill="#313234"/>
</g>
<path d="M277.108 639.486C277.108 661.316 259.401 679 237.554 679C215.707 679 198 661.316 198 639.486C198 617.682 215.707 600 237.554 600C259.401 600 277.108 617.682 277.108 639.486Z" fill="#EA8F5E"/>
<path d="M881.108 639.486C881.108 661.316 863.401 679 841.554 679C819.707 679 802 661.316 802 639.486C802 617.682 819.707 600 841.554 600C863.401 600 881.108 617.682 881.108 639.486Z" fill="#EA8F5E"/>
<path d="M583 719C583 738.882 563.748 755 540 755C516.252 755 497 738.882 497 719" stroke="#313234" stroke-width="20" stroke-linecap="round"/>
<path d="M680 582.5C680 645.179 617.318 696 540 696C462.683 696 400 645.179 400 582.5C400 519.813 462.683 469 540 469C617.318 469 680 519.813 680 582.5Z" fill="#EA8F5E"/>
<path d="M507.977 584.789C507.977 592.424 502.208 598.606 495.126 598.606C488.018 598.606 482.275 592.424 482.275 584.789C482.275 577.156 488.018 570.979 495.126 570.979C502.208 570.979 507.977 577.156 507.977 584.789Z" fill="#313234"/>
<path d="M590.027 582.643C590.027 590.276 584.258 596.455 577.175 596.455C570.093 596.455 564.324 590.276 564.324 582.643C564.324 575.021 570.093 568.842 577.175 568.842C584.258 568.842 590.027 575.021 590.027 582.643Z" fill="#313234"/>
</svg>
