<svg width="1080" height="1080" viewBox="0 0 1080 1080" fill="none" xmlns="http://www.w3.org/2000/svg">
<circle cx="221" cy="271" r="160" fill="#FEFAEE"/>
<circle cx="221" cy="271" r="94" fill="#FFBDA1"/>
<circle cx="859" cy="271" r="160" fill="#FEFAEE"/>
<circle cx="859" cy="271" r="94" fill="#FFBDA1"/>
<path d="M1015.57 643.387C1015.57 643.387 1015.57 643.05 1015.55 642.48C1015.48 624.213 1013.75 606.347 1010.51 588.987C1000.09 519.082 968.128 394.734 870.021 294.096C729.199 149.625 543.047 159.096 543.047 159.096C543.047 159.096 356.874 149.625 216.052 294.096C117.966 394.734 85.9877 519.082 75.5674 588.987C72.3189 606.347 70.5893 624.234 70.526 642.523C70.526 643.071 70.5049 643.366 70.5049 643.366C70.5049 759.255 137.604 859.451 235.057 907.27C235.057 907.27 340.526 969.075 543.026 969.075C745.526 969.075 850.995 907.27 850.995 907.27C948.469 859.472 1015.57 759.276 1015.57 643.387Z" fill="#FEFAEE"/>
<path d="M266.632 650.802C266.632 676.677 245.674 697.638 219.816 697.638C193.958 697.638 173 676.677 173 650.802C173 624.958 193.958 604 219.816 604C245.674 604 266.632 624.958 266.632 650.802Z" fill="#FFBDA1"/>
<path d="M920.632 650.802C920.632 676.677 899.674 697.638 873.816 697.638C847.958 697.638 827 676.677 827 650.802C827 624.958 847.958 604 873.816 604C899.674 604 920.632 624.958 920.632 650.802Z" fill="#FFBDA1"/>
<path d="M610.521 612.765C594.285 592.862 571.588 581 543.5 581C515.412 581 492.715 592.862 476.481 612.765C421.393 640.033 398.196 702.526 417.96 772.364C422.68 789.04 430.899 806.044 441.092 822.148C446.538 830.749 457.894 833.312 466.549 827.963C470.229 825.699 474.027 823.631 477.925 821.77C499.275 861.411 527.54 892 543.5 892C559.46 892 587.725 861.411 609.075 821.772C613.025 823.664 616.825 825.726 620.451 827.965C629.106 833.314 640.464 830.751 645.908 822.15C656.101 806.046 664.32 789.042 669.039 772.366C688.804 702.526 665.607 640.033 610.521 612.765Z" fill="white"/>
<path d="M554.509 825H533.491C459.857 825 404.383 757.883 418.089 685.381L428.597 629.798C439.104 574.228 487.561 534 544 534C600.438 534 648.897 574.228 659.402 629.798L669.91 685.381C683.62 757.883 628.144 825 554.509 825Z" fill="white"/>
<mask id="mask0_10035_2703" style="mask-type:alpha" maskUnits="userSpaceOnUse" x="331" y="473" width="104" height="123">
<path d="M382.608 473.318C410.886 473.318 433.898 500.576 433.898 534.319C433.898 568.063 410.886 595.321 382.608 595.321C354.331 595.321 331.318 568.063 331.318 534.319C331.318 500.576 354.331 473.318 382.608 473.318Z" fill="#FCD53F" stroke="black" stroke-width="0.636014"/>
</mask>
<g mask="url(#mask0_10035_2703)">
<ellipse cx="382.608" cy="534.32" rx="51.6083" ry="61.3196" fill="white"/>
<ellipse cx="382.839" cy="557.614" rx="41.1607" ry="43.7658" fill="#313234"/>
</g>
<mask id="mask1_10035_2703" style="mask-type:alpha" maskUnits="userSpaceOnUse" x="660" y="473" width="104" height="123">
<path d="M711.608 473.318C739.886 473.318 762.898 500.576 762.898 534.319C762.898 568.063 739.886 595.321 711.608 595.321C683.331 595.321 660.318 568.063 660.318 534.319C660.318 500.576 683.331 473.318 711.608 473.318Z" fill="#FCD53F" stroke="black" stroke-width="0.636014"/>
</mask>
<g mask="url(#mask1_10035_2703)">
<ellipse cx="711.608" cy="534.32" rx="51.6083" ry="61.3196" fill="white"/>
<ellipse cx="711.839" cy="557.614" rx="41.1607" ry="43.7658" fill="#313234"/>
</g>
<path d="M501.128 606.919C512.778 620.971 528.661 629.533 545.851 628.046C575.377 625.53 590.296 604.713 598.515 585.203C603.09 574.369 605.525 561.673 599.054 551.052C593.45 541.836 582.926 537.195 572.648 535.578C560.54 533.682 548.187 533.649 536.03 534.663C524.233 535.659 509.543 536.575 500.147 540.561C488.252 545.611 479.02 553.83 484.739 576.64C487.533 587.784 493.922 598.209 501.128 606.919Z" fill="#313234"/>
<path d="M543.829 628C543.415 641.502 545.501 669 578.62 671C582.001 671 591.001 668.5 596.001 659.5" stroke="#313234" stroke-width="20" stroke-linecap="round"/>
<path d="M542.172 628C542.586 641.502 540.5 669 507.381 671C504 671 495 668.5 490 659.5" stroke="#313234" stroke-width="20" stroke-linecap="round"/>
</svg>
