<svg width="1080" height="1080" viewBox="0 0 1080 1080" fill="none" xmlns="http://www.w3.org/2000/svg">
<path d="M462.144 148.437V355.031L320.056 414.169L280.569 167.501C270.106 102.916 313.306 43 370.681 43C421.306 43 462.144 90.0769 462.144 148.437Z" fill="#FFBDA1"/>
<path d="M366.479 393.102C368.504 405.552 377.616 414.5 388.754 414.5C401.579 414.5 411.704 402.439 411.704 388.433V158.106C411.704 132.039 392.804 109.862 370.191 109.862C353.654 109.862 343.529 120.367 338.804 126.592C334.416 132.817 326.991 146.434 330.029 165.498L366.479 393.102Z" fill="white"/>
<path d="M613 148.437V355.031L755.087 414.169L794.575 167.501C805.037 102.916 761.837 43 704.462 43C653.837 43 613 90.0769 613 148.437Z" fill="#FFBDA1"/>
<path d="M708.665 393.102C706.64 405.552 697.527 414.5 686.39 414.5C673.565 414.5 663.44 402.439 663.44 388.433V158.106C663.44 132.039 682.34 109.862 704.952 109.862C721.49 109.862 731.615 120.367 736.34 126.592C740.727 132.817 748.152 146.434 745.115 165.498L708.665 393.102Z" fill="white"/>
<path d="M539.466 338.5C777.65 338.5 826.143 470.641 935.388 689.283C1044.63 907.903 784.006 1038.48 539.534 1038.5C539.511 1038.5 539.489 1038.5 539.466 1038.5C294.994 1038.48 34.373 907.903 143.612 689.283C252.847 470.661 301.341 338.525 539.466 338.5Z" fill="#FFBDA1"/>
<path d="M204.213 724.345L42.0002 752.556" stroke="#313234" stroke-width="20" stroke-linecap="round"/>
<path d="M218.049 768.978L68.0003 836.761" stroke="#313234" stroke-width="20" stroke-linecap="round"/>
<path d="M874.835 724.345L1037.05 752.556" stroke="#313234" stroke-width="20" stroke-linecap="round"/>
<path d="M861 768.978L1011.05 836.761" stroke="#313234" stroke-width="20" stroke-linecap="round"/>
<mask id="mask0_10038_1962" style="mask-type:alpha" maskUnits="userSpaceOnUse" x="318" y="615" width="104" height="123">
<path d="M369.608 615.318C397.886 615.318 420.898 642.576 420.898 676.319C420.898 710.063 397.886 737.321 369.608 737.321C341.331 737.321 318.318 710.063 318.318 676.319C318.318 642.576 341.331 615.318 369.608 615.318Z" fill="#FCD53F" stroke="black" stroke-width="0.636014"/>
</mask>
<g mask="url(#mask0_10038_1962)">
<ellipse cx="369.608" cy="676.32" rx="51.6083" ry="61.3196" fill="white"/>
<ellipse cx="369.839" cy="699.614" rx="41.1607" ry="43.7658" fill="#313234"/>
</g>
<mask id="mask1_10038_1962" style="mask-type:alpha" maskUnits="userSpaceOnUse" x="657" y="615" width="104" height="123">
<path d="M708.608 615.318C736.886 615.318 759.898 642.576 759.898 676.319C759.898 710.063 736.886 737.321 708.608 737.321C680.331 737.321 657.318 710.063 657.318 676.319C657.318 642.576 680.331 615.318 708.608 615.318Z" fill="#FCD53F" stroke="black" stroke-width="0.636014"/>
</mask>
<g mask="url(#mask1_10038_1962)">
<ellipse cx="708.608" cy="676.32" rx="51.6083" ry="61.3196" fill="white"/>
<ellipse cx="708.839" cy="699.614" rx="41.1607" ry="43.7658" fill="#313234"/>
</g>
<path d="M348.632 784.802C348.632 810.677 327.674 831.638 301.816 831.638C275.958 831.638 255 810.677 255 784.802C255 758.958 275.958 738 301.816 738C327.674 738 348.632 758.958 348.632 784.802Z" fill="#EA8F5E"/>
<path d="M823.128 784.802C823.128 810.677 802.171 831.638 776.312 831.638C750.454 831.638 729.496 810.677 729.496 784.802C729.496 758.958 750.454 738 776.312 738C802.171 738 823.128 758.958 823.128 784.802Z" fill="#EA8F5E"/>
<path d="M539.457 842L507.724 859.312C505.857 860.248 504.69 862.353 504.69 864.459V882.706C504.69 888.321 509.357 893 514.957 893H564.424C570.024 893 574.69 888.321 574.69 882.706V864.459C574.69 862.353 573.524 860.248 571.657 859.312L539.457 842Z" fill="#F4F4F4"/>
<path d="M539.829 820C539.414 833.502 541.5 861 574.62 863C578 863 587 860.5 592 851.5" stroke="#313234" stroke-width="20" stroke-linecap="round"/>
<path d="M538.172 820C538.586 833.502 536.5 861 503.381 863C500 863 491 860.5 486 851.5" stroke="#313234" stroke-width="20" stroke-linecap="round"/>
<path d="M541.087 821C574.348 821 595 772.511 595 762.026C595 751.542 585.957 738 541.087 738C490.217 738 485 749.795 485 762.026C485 770.982 507.826 821 541.087 821Z" fill="#EA8F5E"/>
</svg>
