<svg width="1080" height="1080" viewBox="0 0 1080 1080" fill="none" xmlns="http://www.w3.org/2000/svg">
<path d="M462.143 147.437V354.031L320.056 413.169L280.568 166.501C270.106 101.916 313.306 42 370.681 42C421.306 42 462.143 89.0769 462.143 147.437Z" fill="#FFBDA1"/>
<path d="M366.478 392.102C368.503 404.552 377.616 413.5 388.753 413.5C401.578 413.5 411.703 401.439 411.703 387.433V157.106C411.703 131.039 392.803 108.862 370.191 108.862C353.653 108.862 343.528 119.367 338.803 125.592C334.416 131.817 326.991 145.434 330.028 164.498L366.478 392.102Z" fill="white"/>
<path d="M613 147.437V354.031L755.087 413.169L794.575 166.501C805.037 101.916 761.837 42 704.462 42C653.837 42 613 89.0769 613 147.437Z" fill="#FFBDA1"/>
<path d="M708.665 392.102C706.64 404.552 697.527 413.5 686.39 413.5C673.565 413.5 663.44 401.439 663.44 387.433V157.106C663.44 131.039 682.34 108.862 704.952 108.862C721.49 108.862 731.615 119.367 736.34 125.592C740.727 131.817 748.152 145.434 745.115 164.498L708.665 392.102Z" fill="white"/>
<path d="M539.466 337.5C777.649 337.5 826.142 469.641 935.388 688.283C1044.63 906.903 784.006 1037.48 539.534 1037.5C539.511 1037.5 539.488 1037.5 539.466 1037.5C294.994 1037.48 34.3728 906.903 143.612 688.283C252.847 469.661 301.341 337.525 539.466 337.5Z" fill="#FFBDA1"/>
<path d="M204.213 723.345L41.9999 751.556" stroke="#313234" stroke-width="20" stroke-linecap="round"/>
<path d="M218.048 767.978L68 835.761" stroke="#313234" stroke-width="20" stroke-linecap="round"/>
<path d="M874.835 723.345L1037.05 751.556" stroke="#313234" stroke-width="20" stroke-linecap="round"/>
<path d="M861 767.978L1011.05 835.761" stroke="#313234" stroke-width="20" stroke-linecap="round"/>
<mask id="mask0_10044_20562" style="mask-type:alpha" maskUnits="userSpaceOnUse" x="317" y="614" width="105" height="123">
<path d="M369.608 614.318C397.886 614.318 420.898 641.576 420.898 675.319C420.898 709.063 397.886 736.321 369.608 736.321C341.33 736.321 318.318 709.063 318.318 675.319C318.318 641.576 341.331 614.318 369.608 614.318Z" fill="#FCD53F" stroke="black" stroke-width="0.636014"/>
</mask>
<g mask="url(#mask0_10044_20562)">
<ellipse cx="369.608" cy="675.32" rx="51.6083" ry="61.3196" fill="white"/>
<ellipse cx="369.839" cy="698.614" rx="41.1607" ry="43.7658" fill="#313234"/>
</g>
<mask id="mask1_10044_20562" style="mask-type:alpha" maskUnits="userSpaceOnUse" x="656" y="614" width="105" height="123">
<path d="M708.608 614.318C736.886 614.318 759.898 641.576 759.898 675.319C759.898 709.063 736.886 736.321 708.608 736.321C680.33 736.321 657.318 709.063 657.318 675.319C657.318 641.576 680.33 614.318 708.608 614.318Z" fill="#FCD53F" stroke="black" stroke-width="0.636014"/>
</mask>
<g mask="url(#mask1_10044_20562)">
<ellipse cx="708.608" cy="675.32" rx="51.6083" ry="61.3196" fill="white"/>
<ellipse cx="708.839" cy="698.614" rx="41.1607" ry="43.7658" fill="#313234"/>
</g>
<path d="M348.632 783.802C348.632 809.677 327.674 830.638 301.816 830.638C275.958 830.638 255 809.677 255 783.802C255 757.958 275.958 737 301.816 737C327.674 737 348.632 757.958 348.632 783.802Z" fill="#EA8F5E"/>
<path d="M823.128 783.802C823.128 809.677 802.17 830.638 776.312 830.638C750.454 830.638 729.496 809.677 729.496 783.802C729.496 757.958 750.454 737 776.312 737C802.17 737 823.128 757.958 823.128 783.802Z" fill="#EA8F5E"/>
<path d="M539.457 841L507.724 858.312C505.857 859.248 504.69 861.353 504.69 863.459V881.706C504.69 887.321 509.357 892 514.957 892H564.424C570.024 892 574.69 887.321 574.69 881.706V863.459C574.69 861.353 573.524 859.248 571.657 858.312L539.457 841Z" fill="#F4F4F4"/>
<path d="M539.829 819C539.414 832.502 541.5 860 574.62 862C578 862 587 859.5 592 850.5" stroke="#313234" stroke-width="20" stroke-linecap="round"/>
<path d="M538.172 819C538.586 832.502 536.5 860 503.381 862C500 862 491 859.5 486 850.5" stroke="#313234" stroke-width="20" stroke-linecap="round"/>
<path d="M541.087 820C574.348 820 595 771.511 595 761.026C595 750.542 585.956 737 541.087 737C490.217 737 485 748.795 485 761.026C485 769.982 507.826 820 541.087 820Z" fill="#EA8F5E"/>
</svg>
