<svg width="1080" height="1080" viewBox="0 0 1080 1080" fill="none" xmlns="http://www.w3.org/2000/svg">
<path d="M540.384 151C778.567 151 827.06 303.906 986.305 556.906C1095.54 809.881 784.923 960.971 540.451 960.999C540.429 960.999 540.406 961 540.384 961C295.911 960.972 -14.7097 809.881 94.5293 556.906C253.764 303.93 302.258 151.029 540.384 151Z" fill="#716E6E"/>
<mask id="mask0_10044_20803" style="mask-type:alpha" maskUnits="userSpaceOnUse" x="72" y="151" width="937" height="810">
<path d="M540.384 151C778.567 151 827.06 303.906 986.305 556.906C1095.54 809.881 784.923 960.971 540.451 960.999C540.429 960.999 540.406 961 540.384 961C295.911 960.972 -14.7097 809.881 94.5293 556.906C253.764 303.93 302.258 151.029 540.384 151Z" fill="#716E6E"/>
</mask>
<g mask="url(#mask0_10044_20803)">
<path d="M373.767 479H370.558C326.04 479 284.33 498.634 255.453 532.292L151.578 651.697C102.247 708.595 80.5896 783.123 91.8194 857.25C194.187 972.694 340.416 1048.44 504.773 1058.77C506.817 1058.94 508.87 1059.09 510.931 1059.2C513.365 1059.29 515.799 1059.38 518.229 1059.46C519.405 1059.51 520.582 1059.56 521.759 1059.6C528.944 1059.84 536.069 1060 543.016 1060C550.265 1060 557.708 1059.81 565.075 1059.55V1059.6C567.892 1059.5 570.705 1059.38 573.513 1059.24C573.909 1059.23 574.305 1059.21 574.7 1059.2C575.661 1059.15 576.62 1059.09 577.577 1059.03C743.757 1049.81 891.717 973.742 995.015 857.25C1006.24 783.123 984.587 708.595 935.256 651.697L831.381 532.292C802.504 498.634 760.793 479 716.275 479H713.067C631.651 480.603 565.476 548.72 565.075 631.262V715.407H521.759V631.262C521.358 548.72 455.183 480.603 373.767 479Z" fill="#D3D3D3"/>
<path d="M304.952 599.833C320.983 580.619 345.431 568.609 372.684 569.01C419.575 569.81 456.848 609.44 456.848 656.676V742.125C383.897 752.078 327.395 814.548 327.395 890.455C327.395 992.05 405.957 1076.47 507.113 1083.95C490.16 1082.96 473.396 1081.27 456.848 1078.92V1079C387.656 1069.23 321.993 1047.48 262.506 1016.07C255.462 1012.36 248.501 1008.52 241.627 1004.54V1004.29C144.12 942.933 124.15 807.68 200.748 719.524L304.952 599.833Z" fill="#636363"/>
<path d="M513.555 1084.3C522.91 1084.75 532.322 1084.98 541.784 1085C532.582 1084.97 523.081 1084.65 513.555 1084.3Z" fill="#636363"/>
<path d="M544.3 1085C553.465 1084.98 562.588 1084.75 571.663 1084.32C562.611 1084.66 553.319 1084.97 544.3 1085Z" fill="#636363"/>
<path d="M579.961 1083.86C596.819 1082.83 613.505 1081.09 629.986 1078.71V1079C703.73 1068.59 773.466 1044.57 835.988 1009.74C941.394 951.299 965.04 810.392 886.086 719.524L781.882 599.833C765.851 580.619 741.403 568.609 714.15 569.01C667.259 569.81 629.986 609.44 629.986 656.676V742.289C702.643 752.78 758.237 815.3 758.237 890.455C758.237 991.961 680.42 1076.07 579.961 1083.86Z" fill="#636363"/>
</g>
<path d="M173.917 163.225V204.737C173.917 262.709 196.293 318.506 235.976 360.496L413.759 177.59C372.087 139.45 317.413 118 260.654 118H219.142C194.167 118 173.917 138.25 173.917 163.225Z" fill="#716E6E"/>
<path d="M375.78 216.565C345.372 192.498 307.458 179 268.317 179H247.392C240.979 179 235.917 184.063 235.917 190.475V211.4C235.917 253.258 251.354 293.713 278.902 325.086L333.455 259.999C334.467 258.649 335.564 257.299 336.661 255.949C337.758 254.599 338.855 253.249 339.868 251.899C350.926 239.225 362.933 227.409 375.78 216.565Z" fill="#313234"/>
<path d="M890.759 163.225V204.737C890.759 262.709 868.383 318.506 828.7 360.496L650.917 177.59C692.589 139.45 747.263 118 804.021 118H845.534C870.509 118 890.759 138.25 890.759 163.225Z" fill="#716E6E"/>
<path d="M688.895 216.565C719.304 192.498 757.218 179 796.359 179H817.284C823.696 179 828.759 184.063 828.759 190.475V211.4C828.759 253.258 813.321 293.713 785.774 325.086L731.221 259.999C730.208 258.649 729.111 257.299 728.015 255.949C726.918 254.599 725.821 253.249 724.808 251.899C713.75 239.225 701.743 227.409 688.895 216.565Z" fill="#313234"/>
<path d="M349.632 757.802C349.632 783.677 328.674 804.638 302.816 804.638C276.958 804.638 256 783.677 256 757.802C256 731.958 276.958 711 302.816 711C328.674 711 349.632 731.958 349.632 757.802Z" fill="#FFBDA1"/>
<path d="M825.632 757.802C825.632 783.677 804.674 804.638 778.816 804.638C752.958 804.638 732 783.677 732 757.802C732 731.958 752.958 711 778.816 711C804.674 711 825.632 731.958 825.632 757.802Z" fill="#FFBDA1"/>
<mask id="mask1_10044_20803" style="mask-type:alpha" maskUnits="userSpaceOnUse" x="333" y="602" width="104" height="123">
<path d="M384.608 602.318C412.886 602.318 435.898 629.576 435.898 663.319C435.898 697.063 412.886 724.321 384.608 724.321C356.331 724.321 333.318 697.063 333.318 663.319C333.318 629.576 356.331 602.318 384.608 602.318Z" fill="#FCD53F" stroke="black" stroke-width="0.636014"/>
</mask>
<g mask="url(#mask1_10044_20803)">
<ellipse cx="384.608" cy="663.32" rx="51.6083" ry="61.3196" fill="white"/>
<ellipse cx="384.839" cy="686.614" rx="41.1607" ry="43.7658" fill="#313234"/>
</g>
<mask id="mask2_10044_20803" style="mask-type:alpha" maskUnits="userSpaceOnUse" x="644" y="602" width="104" height="123">
<path d="M695.608 602.318C723.886 602.318 746.898 629.576 746.898 663.319C746.898 697.063 723.886 724.321 695.608 724.321C667.331 724.321 644.318 697.063 644.318 663.319C644.318 629.576 667.331 602.318 695.608 602.318Z" fill="#FCD53F" stroke="black" stroke-width="0.636014"/>
</mask>
<g mask="url(#mask2_10044_20803)">
<ellipse cx="695.608" cy="663.32" rx="51.6083" ry="61.3196" fill="white"/>
<ellipse cx="695.839" cy="686.614" rx="41.1607" ry="43.7658" fill="#313234"/>
</g>
<path d="M497.706 736.389C508.966 750.756 524.607 759.752 541.831 758.737C571.416 757.033 586.901 736.633 595.653 717.356C600.524 706.653 603.307 694.028 597.13 683.233C591.781 673.867 581.389 668.939 571.159 667.04C559.108 664.812 546.76 664.44 534.58 665.119C522.759 665.791 508.05 666.303 498.549 670.03C486.519 674.75 477.064 682.713 482.155 705.672C484.642 716.889 490.742 727.485 497.706 736.389Z" fill="#313234"/>
<path d="M541.1 758.63C540.685 772.132 542.771 799.63 575.891 801.63C579.271 801.63 588.271 799.13 593.271 790.13" stroke="#313234" stroke-width="20" stroke-linecap="round"/>
<path d="M539.443 758.63C539.857 772.132 537.771 799.63 504.652 801.63C501.271 801.63 492.271 799.13 487.271 790.13" stroke="#313234" stroke-width="20" stroke-linecap="round"/>
</svg>
