<svg width="1080" height="1080" viewBox="0 0 1080 1080" fill="none" xmlns="http://www.w3.org/2000/svg">
<path d="M79.3446 148.689C5.25133 206.475 90.5992 400.482 120.522 462.441C124.766 471.229 136.743 471.819 142.311 463.804C212.285 363.092 266.894 312.693 369.46 252.504C377.572 247.744 378.248 236.328 370.421 231.111C317.402 195.778 150.607 93.1099 79.3446 148.689Z" fill="#EA8F5E"/>
<path d="M139.031 228.691C86.6177 269.569 169.066 425.668 169.066 425.668C216.421 355.449 249.865 324.6 320.991 284.15C320.991 284.15 189.506 189.325 139.031 228.691Z" fill="#F7F0E6"/>
<path d="M995.637 148.688C1069.73 206.475 984.382 400.482 954.459 462.441C950.215 471.229 938.238 471.818 932.67 463.804C862.696 363.092 808.087 312.693 705.521 252.504C697.409 247.744 696.734 236.327 704.56 231.111C757.58 195.778 924.375 93.1098 995.637 148.688Z" fill="#EA8F5E"/>
<path d="M935.95 228.691C988.364 269.569 905.916 425.668 905.916 425.668C858.561 355.449 825.116 324.6 753.99 284.15C753.99 284.15 885.475 189.325 935.95 228.691Z" fill="#F7F0E6"/>
<path d="M539.959 200C827.588 200 886.147 344.6 1018.07 583.856C1149.99 823.09 835.264 965.973 540.041 965.999C540.014 965.999 539.986 966 539.959 966C244.736 965.974 -69.9873 823.09 61.9288 583.856C193.84 344.622 252.401 200.027 539.959 200Z" fill="#EA8F5E"/>
<path d="M296 509.185C308.4 524.785 342.167 520.018 356.5 515.685C389.5 509.185 409.5 484.185 395.5 456.185C381.5 428.185 340.5 429.685 311 444.185C281.5 458.685 280.5 489.685 296 509.185Z" fill="#FEFAEE"/>
<path d="M777.026 509.185C764.626 524.785 730.86 520.018 716.526 515.685C683.526 509.185 663.527 484.185 677.527 456.185C691.527 428.185 732.526 429.685 762.026 444.185C791.526 458.685 792.526 489.685 777.026 509.185Z" fill="#FEFAEE"/>
<path d="M112.551 665.674C191.468 580.481 310.344 666.183 359.918 719.684L584.25 963.748C501.794 968.164 314.05 967.722 222.714 930.628C108.545 884.261 13.9045 772.165 112.551 665.674Z" fill="#FEFAEE"/>
<path d="M963.03 665.674C884.266 580.481 765.622 666.183 716.145 719.684L492.25 963.748C574.545 968.164 761.924 967.722 853.081 930.628C967.028 884.261 1061.48 772.165 963.03 665.674Z" fill="#FEFAEE"/>
<path d="M542.315 633.929C592.466 633.929 699.994 688.661 702.969 814.03C704.484 877.885 648.324 904.105 588.925 913.965C587.825 914.505 586.706 915.033 585.564 915.542C558.804 919.54 530.231 921.159 503.104 919.114C500.029 919.034 497.052 918.936 494.186 918.816C493.687 918.594 493.193 918.368 492.702 918.14C429.119 910.971 376.119 882.073 377.734 814.03C380.709 688.661 488.237 633.929 538.388 633.929C539.034 633.929 539.692 633.968 540.36 634.043C541.022 633.968 541.674 633.929 542.315 633.929Z" fill="#FCDC7E"/>
<path d="M249.632 726.802C249.632 752.677 228.674 773.638 202.816 773.638C176.958 773.638 156 752.677 156 726.802C156 700.958 176.958 680 202.816 680C228.674 680 249.632 700.958 249.632 726.802Z" fill="#FFBDA1"/>
<path d="M903.632 726.802C903.632 752.677 882.674 773.638 856.816 773.638C830.958 773.638 810 752.677 810 726.802C810 700.958 830.958 680 856.816 680C882.674 680 903.632 700.958 903.632 726.802Z" fill="#FFBDA1"/>
<mask id="mask0_10035_3917" style="mask-type:alpha" maskUnits="userSpaceOnUse" x="316" y="556" width="104" height="123">
<path d="M367.608 556.318C395.886 556.318 418.898 583.576 418.898 617.319C418.898 651.063 395.886 678.321 367.608 678.321C339.331 678.321 316.318 651.063 316.318 617.319C316.318 583.576 339.331 556.318 367.608 556.318Z" fill="#FCD53F" stroke="black" stroke-width="0.636014"/>
</mask>
<g mask="url(#mask0_10035_3917)">
<ellipse cx="367.608" cy="617.32" rx="51.6083" ry="61.3196" fill="white"/>
<ellipse cx="367.839" cy="640.614" rx="41.1607" ry="43.7658" fill="#313234"/>
</g>
<mask id="mask1_10035_3917" style="mask-type:alpha" maskUnits="userSpaceOnUse" x="644" y="556" width="105" height="123">
<path d="M696.608 556.318C724.886 556.318 747.898 583.576 747.898 617.319C747.898 651.063 724.886 678.321 696.608 678.321C668.33 678.321 645.318 651.063 645.318 617.319C645.318 583.576 668.331 556.318 696.608 556.318Z" fill="#FCD53F" stroke="black" stroke-width="0.636014"/>
</mask>
<g mask="url(#mask1_10035_3917)">
<ellipse cx="696.608" cy="617.32" rx="51.6083" ry="61.3196" fill="white"/>
<ellipse cx="696.839" cy="640.614" rx="41.1607" ry="43.7658" fill="#313234"/>
</g>
<path d="M489.128 693.919C500.778 707.971 516.661 716.533 533.851 715.046C563.377 712.53 578.296 691.713 586.515 672.203C591.09 661.369 593.525 648.673 587.054 638.052C581.45 628.836 570.926 624.195 560.648 622.578C548.54 620.682 536.187 620.649 524.03 621.663C512.233 622.659 497.543 623.575 488.147 627.561C476.252 632.611 467.02 640.83 472.739 663.64C475.533 674.784 481.922 685.209 489.128 693.919Z" fill="#313234"/>
<path d="M531.829 715C531.415 728.502 533.501 756 566.62 758C570.001 758 579.001 755.5 584.001 746.5" stroke="#313234" stroke-width="20" stroke-linecap="round"/>
<path d="M530.172 715C530.586 728.502 528.5 756 495.381 758C492 758 483 755.5 478 746.5" stroke="#313234" stroke-width="20" stroke-linecap="round"/>
</svg>
