<svg width="1080" height="1080" viewBox="0 0 1080 1080" fill="none" xmlns="http://www.w3.org/2000/svg">
<path d="M930.905 103.194L925.151 75.468C920.397 52.5556 892.09 44.0957 875.544 60.6428L628.15 308.036L835.452 255.66C902.966 238.602 945.052 171.377 930.905 103.194Z" fill="#716E6E"/>
<path d="M152.735 103.193L158.488 75.4677C163.242 52.5536 191.548 44.0937 208.093 60.6408L455.488 308.036L248.189 255.66C180.673 238.601 138.586 171.377 152.735 103.193Z" fill="#716E6E"/>
<path d="M540.466 117C780.345 117 829.183 271.038 939.206 525.912C1049.22 780.762 786.746 932.971 540.534 932.999C540.511 932.999 540.489 933 540.466 933C294.254 932.972 31.7778 780.762 141.794 525.912C251.807 271.062 300.646 117.029 540.466 117Z" fill="#716E6E"/>
<path d="M257.632 651.802C257.632 677.677 236.674 698.638 210.816 698.638C184.958 698.638 164 677.677 164 651.802C164 625.958 184.958 605 210.816 605C236.674 605 257.632 625.958 257.632 651.802Z" fill="#FFBDA1"/>
<path d="M911.632 651.802C911.632 677.677 890.674 698.638 864.816 698.638C838.958 698.638 818 677.677 818 651.802C818 625.958 838.958 605 864.816 605C890.674 605 911.632 625.958 911.632 651.802Z" fill="#FFBDA1"/>
<path d="M686.549 960C651.572 1001.09 599.467 1027.16 541.274 1027.16C483.081 1027.16 430.977 1001.09 396 960H686.549Z" fill="#EA8F5E"/>
<path d="M725.338 998.493L667.445 991.693C583.034 981.777 497.752 981.777 413.34 991.693L355.448 998.493C242.888 1011.71 144 923.763 144 810.429C144 689.687 255.487 599.785 373.487 625.375L484.06 649.356C521.183 657.406 559.6 657.406 596.723 649.356L707.295 625.375C825.295 599.785 936.783 689.687 936.783 810.429C936.786 923.763 837.898 1011.71 725.338 998.493Z" fill="#716E6E"/>
<path d="M732 722.75C732 741.39 716.89 756.5 698.25 756.5C679.61 756.5 664.5 741.39 664.5 722.75C664.5 704.11 679.61 689 698.25 689C716.89 689 732 704.11 732 722.75Z" fill="#313234"/>
<path d="M375.75 756.5C394.39 756.5 409.5 741.39 409.5 722.75C409.5 704.11 394.39 689 375.75 689C357.11 689 342 704.11 342 722.75C342 741.39 357.11 756.5 375.75 756.5Z" fill="#313234"/>
<path d="M508.817 388.345L431.844 526.635C385.842 609.283 445.512 711 540 711C634.488 711 694.159 609.283 648.155 526.635L571.184 388.345C557.566 363.885 522.431 363.885 508.817 388.345Z" fill="white"/>
<mask id="mask0_10044_20730" style="mask-type:alpha" maskUnits="userSpaceOnUse" x="299" y="464" width="104" height="123">
<path d="M350.608 464.318C378.886 464.318 401.898 491.576 401.898 525.319C401.898 559.063 378.886 586.321 350.608 586.321C322.331 586.321 299.318 559.063 299.318 525.319C299.318 491.576 322.331 464.318 350.608 464.318Z" fill="#FCD53F" stroke="black" stroke-width="0.636014"/>
</mask>
<g mask="url(#mask0_10044_20730)">
<ellipse cx="350.608" cy="525.32" rx="51.6083" ry="61.3196" fill="white"/>
<ellipse cx="350.839" cy="548.614" rx="41.1607" ry="43.7658" fill="#313234"/>
</g>
<mask id="mask1_10044_20730" style="mask-type:alpha" maskUnits="userSpaceOnUse" x="677" y="464" width="104" height="123">
<path d="M728.825 464.318C757.103 464.318 780.115 491.576 780.115 525.319C780.115 559.063 757.103 586.321 728.825 586.321C700.548 586.321 677.535 559.063 677.535 525.319C677.535 491.576 700.548 464.318 728.825 464.318Z" fill="#FCD53F" stroke="black" stroke-width="0.636014"/>
</mask>
<g mask="url(#mask1_10044_20730)">
<ellipse cx="728.825" cy="525.32" rx="51.6083" ry="61.3196" fill="white"/>
<ellipse cx="729.056" cy="548.614" rx="41.1607" ry="43.7658" fill="#313234"/>
</g>
</svg>
