<svg width="1080" height="1080" viewBox="0 0 1080 1080" fill="none" xmlns="http://www.w3.org/2000/svg">
<path d="M539.63 136C799.381 136 852.265 288.589 971.403 541.064C1090.53 793.516 806.313 944.293 539.704 944.32C539.679 944.32 539.655 944.321 539.63 944.321C273.021 944.294 -11.1995 793.516 107.931 541.064C227.057 288.613 279.943 136.029 539.63 136Z" fill="#B5D2F2"/>
<mask id="mask0_10044_21420" style="mask-type:alpha" maskUnits="userSpaceOnUse" x="80" y="136" width="920" height="809">
<path d="M539.63 136C799.381 136 852.265 288.589 971.403 541.064C1090.53 793.516 806.313 944.293 539.704 944.32C539.679 944.32 539.655 944.321 539.63 944.321C273.021 944.294 -11.1995 793.516 107.931 541.064C227.057 288.613 279.943 136.029 539.63 136Z" fill="#B5D2F2"/>
</mask>
<g mask="url(#mask0_10044_21420)">
<path d="M272.154 943.051C272.154 964.95 289.868 982.703 311.72 982.703H778.589C800.44 982.703 818.154 964.95 818.154 943.051C818.154 797.056 700.061 678.703 554.386 678.703H535.922C390.247 678.703 272.154 797.056 272.154 943.051Z" fill="white"/>
</g>
<path d="M423.933 491.703C423.933 482.314 416.372 474.703 407.044 474.703C397.717 474.703 390.155 482.314 390.155 491.703C390.155 538.647 427.962 576.703 474.6 576.703C502.223 576.703 526.749 563.352 542.155 542.711C557.562 563.352 582.087 576.703 609.711 576.703C636.386 576.703 660.179 564.234 675.627 544.836C687.214 530.287 694.155 511.788 694.155 491.703C694.155 482.314 686.594 474.703 677.266 474.703C667.939 474.703 660.378 482.314 660.378 491.703C660.378 503.78 656.228 514.836 649.272 523.57C639.959 535.264 625.704 542.703 609.711 542.703C581.728 542.703 559.044 519.87 559.044 491.703C559.044 482.314 551.483 474.703 542.155 474.703C532.828 474.703 525.266 482.314 525.266 491.703C525.266 519.87 502.582 542.703 474.6 542.703C446.617 542.703 423.933 519.87 423.933 491.703Z" fill="#313234"/>
<mask id="mask1_10044_21420" style="mask-type:alpha" maskUnits="userSpaceOnUse" x="362" y="316" width="104" height="124">
<path d="M413.764 317.021C442.041 317.022 465.054 344.279 465.054 378.022C465.054 411.766 442.041 439.024 413.764 439.024C385.486 439.024 362.474 411.766 362.474 378.022C362.474 344.279 385.486 317.021 413.764 317.021Z" fill="#FCD53F" stroke="black" stroke-width="0.636014"/>
</mask>
<g mask="url(#mask1_10044_21420)">
<ellipse cx="413.764" cy="378.023" rx="51.6083" ry="61.3196" fill="white"/>
<ellipse cx="428.995" cy="355.317" rx="43.8393" ry="46.614" fill="#313234"/>
</g>
<mask id="mask2_10044_21420" style="mask-type:alpha" maskUnits="userSpaceOnUse" x="615" y="316" width="104" height="124">
<path d="M666.764 317.021C695.041 317.022 718.054 344.279 718.054 378.022C718.054 411.766 695.041 439.024 666.764 439.024C638.486 439.024 615.474 411.766 615.474 378.022C615.474 344.279 638.486 317.021 666.764 317.021Z" fill="#FCD53F" stroke="black" stroke-width="0.636014"/>
</mask>
<g mask="url(#mask2_10044_21420)">
<ellipse cx="666.764" cy="378.023" rx="51.6083" ry="61.3196" fill="white"/>
<ellipse cx="681.995" cy="355.317" rx="43.8393" ry="46.614" fill="#313234"/>
</g>
<path d="M604.155 457.698C604.155 485.322 575.475 507.703 540.137 507.703C504.8 507.703 476.155 485.322 476.155 457.698C476.155 430.084 504.8 407.703 540.137 407.703C575.475 407.703 604.155 430.084 604.155 457.698Z" fill="#313234"/>
<path d="M906.295 446.766C940.981 442.043 960.658 440.842 996.309 442.265" stroke="#313234" stroke-width="33.8304" stroke-linecap="round" stroke-linejoin="round"/>
<path d="M891.974 482.16C920.01 512.326 941.122 523.118 982.448 539.159" stroke="#313234" stroke-width="33.8304" stroke-linecap="round" stroke-linejoin="round"/>
<path d="M180.174 446.766C145.487 442.043 125.811 440.842 90.1593 442.265" stroke="#313234" stroke-width="33.8304" stroke-linecap="round" stroke-linejoin="round"/>
<path d="M194.495 482.16C166.459 512.326 145.347 523.118 104.02 539.159" stroke="#313234" stroke-width="33.8304" stroke-linecap="round" stroke-linejoin="round"/>
<path d="M309.788 492.505C309.788 518.38 288.83 539.341 262.971 539.341C237.113 539.341 216.155 518.38 216.155 492.505C216.155 466.661 237.113 445.703 262.971 445.703C288.83 445.703 309.788 466.661 309.788 492.505Z" fill="#FFBDA1"/>
<path d="M863.787 492.505C863.787 518.38 842.83 539.341 816.971 539.341C791.113 539.341 770.155 518.38 770.155 492.505C770.155 466.661 791.113 445.703 816.971 445.703C842.83 445.703 863.787 466.661 863.787 492.505Z" fill="#FFBDA1"/>
</svg>
