<svg width="1080" height="1080" viewBox="0 0 1080 1080" fill="none" xmlns="http://www.w3.org/2000/svg">
<g clip-path="url(#clip0_10044_21385)">
<path d="M267.879 905.965C320.566 853.279 279.581 763.009 205.286 768.656C154.184 772.538 104.166 794.021 65.0807 833.106C15.2962 882.89 -5.92209 950.417 1.41332 1015.33C3.61626 1034.82 28.9565 1041.16 40.2318 1025.11C47.651 1014.56 55.9699 1004.67 65.0954 995.547C106.047 954.595 159.015 932.968 212.657 930.674C232.837 929.811 252.05 921.793 266.33 907.511L267.879 905.965Z" fill="#B5D2F2"/>
<path d="M812.414 905.965C759.728 853.279 800.712 763.009 875.007 768.656C926.11 772.538 976.126 794.021 1015.21 833.106C1065 882.89 1086.21 950.417 1078.88 1015.33C1076.68 1034.82 1051.34 1041.16 1040.06 1025.11C1032.64 1014.56 1024.32 1004.67 1015.2 995.547C974.246 954.595 921.278 932.968 867.635 930.674C847.456 929.811 828.242 921.793 813.962 907.511L812.414 905.965Z" fill="#B5D2F2"/>
<path d="M952.535 692.678C952.535 947.094 767.902 1052.04 540.148 1052.04C312.396 1052.04 127.763 947.094 127.763 692.678C127.763 438.263 312.394 232.02 540.148 232.02C767.904 232.02 952.535 438.263 952.535 692.678Z" fill="#FEFAEE"/>
<path d="M520.186 48.0765L470.904 197.513C441.451 286.823 479.654 396.737 540.151 396.737C600.649 396.737 638.854 286.823 609.399 197.513L560.115 48.0786C551.401 21.6454 528.902 21.6454 520.186 48.0765Z" fill="#B5D2F2"/>
<path d="M540.148 812.823C635.767 812.823 723.781 831.325 793.726 871.619C848.42 903.126 917.47 875.638 936.004 813.836C946.764 777.958 952.537 737.656 952.537 692.678C952.537 438.263 767.904 232.02 540.15 232.02C312.398 232.02 127.763 438.263 127.763 692.678C127.763 737.656 133.535 777.956 144.293 813.834C162.828 875.636 231.878 903.124 286.572 871.617C356.515 831.325 444.529 812.823 540.148 812.823Z" fill="#B5D2F2"/>
<path d="M354.234 701.785C317.221 738.799 247.658 729.248 198.863 680.455C150.067 631.66 140.518 562.098 177.532 525.083C214.545 488.07 284.108 497.62 332.905 546.414C381.699 595.207 391.249 664.772 354.234 701.785Z" fill="#FEFAEE"/>
<path d="M726.061 701.785C763.074 738.799 832.637 729.248 881.431 680.455C930.228 631.66 939.775 562.098 902.763 525.083C865.748 488.07 796.185 497.62 747.39 546.414C698.596 595.207 689.046 664.772 726.061 701.785Z" fill="#FEFAEE"/>
<mask id="mask0_10044_21385" style="mask-type:alpha" maskUnits="userSpaceOnUse" x="343" y="741" width="104" height="123">
<path d="M394.609 741.318C422.886 741.318 445.899 768.576 445.899 802.319C445.899 836.063 422.887 863.321 394.609 863.321C366.331 863.321 343.319 836.063 343.319 802.319C343.319 768.576 366.331 741.318 394.609 741.318Z" fill="#FCD53F" stroke="black" stroke-width="0.636014"/>
</mask>
<g mask="url(#mask0_10044_21385)">
<ellipse cx="394.609" cy="802.32" rx="51.6083" ry="61.3196" fill="white"/>
<ellipse cx="394.84" cy="825.614" rx="41.1607" ry="43.7658" fill="#313234"/>
</g>
<mask id="mask1_10044_21385" style="mask-type:alpha" maskUnits="userSpaceOnUse" x="632" y="741" width="104" height="123">
<path d="M683.608 741.318C711.886 741.318 734.898 768.576 734.898 802.319C734.898 836.063 711.886 863.321 683.608 863.321C655.331 863.321 632.318 836.063 632.318 802.319C632.318 768.576 655.331 741.318 683.608 741.318Z" fill="#FCD53F" stroke="black" stroke-width="0.636014"/>
</mask>
<g mask="url(#mask1_10044_21385)">
<ellipse cx="683.608" cy="802.32" rx="51.6083" ry="61.3196" fill="white"/>
<ellipse cx="683.839" cy="825.614" rx="41.1607" ry="43.7658" fill="#313234"/>
</g>
<path d="M309.632 867.802C309.632 893.677 288.674 914.638 262.816 914.638C236.958 914.638 216 893.677 216 867.802C216 841.958 236.958 821 262.816 821C288.674 821 309.632 841.958 309.632 867.802Z" fill="#FFBDA1"/>
<path d="M863.632 867.802C863.632 893.677 842.674 914.638 816.816 914.638C790.958 914.638 770 893.677 770 867.802C770 841.958 790.958 821 816.816 821C842.674 821 863.632 841.958 863.632 867.802Z" fill="#FFBDA1"/>
</g>
<defs>
<clipPath id="clip0_10044_21385">
<rect width="1080" height="1080" fill="white"/>
</clipPath>
</defs>
</svg>
