<svg width="1080" height="1080" viewBox="0 0 1080 1080" fill="none" xmlns="http://www.w3.org/2000/svg">
<g clip-path="url(#clip0_10044_21224)">
<path d="M233.017 238C321.434 238 393.11 309.676 393.11 398.093C393.11 486.511 321.434 558.188 233.017 558.188C144.6 558.187 72.9247 486.511 72.9247 398.093C72.9248 309.676 144.601 238 233.017 238ZM840.993 238C929.41 238 1001.09 309.676 1001.09 398.093C1001.09 486.511 929.41 558.188 840.993 558.188C752.576 558.187 680.9 486.511 680.9 398.093C680.9 309.676 752.577 238 840.993 238Z" fill="#FEFAEE"/>
<path d="M901.828 349.55C981.678 349.55 1046.41 414.281 1046.41 494.132C1046.41 539.655 1025.37 580.263 992.486 606.766C1004.1 627.581 1010.71 651.564 1010.71 677.091C1010.71 744.764 964.216 801.576 901.429 817.33C895.89 892.122 833.454 951.082 757.247 951.082C730.497 951.082 705.444 943.816 683.953 931.152C658.14 986.579 601.942 1025 536.768 1025C471.608 1025 415.417 986.594 389.598 931.185C368.119 943.828 343.087 951.082 316.36 951.082C240.153 951.082 177.717 892.122 172.179 817.33C109.391 801.576 62.8964 744.764 62.8964 677.091C62.8964 651.564 69.5109 627.581 81.121 606.766C48.2363 580.263 27.1972 539.655 27.1971 494.132C27.1971 414.281 91.9288 349.55 171.779 349.55C251.63 349.55 316.361 414.281 316.361 494.132C316.361 519.659 309.745 543.64 298.135 564.456C328.388 588.837 348.614 625.158 351.658 666.261C389.222 675.686 420.953 699.807 440.387 732.156C467.338 712.228 500.677 700.444 536.768 700.444C572.882 700.444 606.238 712.243 633.198 732.192C652.63 699.824 684.371 675.689 721.949 666.261C724.993 625.158 745.219 588.837 775.473 564.456C763.862 543.64 757.246 519.659 757.246 494.132C757.246 414.281 821.978 349.55 901.828 349.55Z" fill="#FEFAEE"/>
<path d="M537.472 183C737.052 183 777.686 301.549 911.122 497.702C1002.66 693.836 742.378 810.978 537.528 810.999C537.509 810.999 537.49 811 537.472 811C332.621 810.978 72.3435 693.836 163.878 497.702C297.305 301.568 337.94 183.022 537.472 183Z" fill="#FFBDA1"/>
<path d="M284.377 409.756C295.355 386.608 285.489 358.943 262.341 347.965C170.387 304.354 60.4889 343.544 16.878 435.498C5.90056 458.644 15.7638 486.311 38.9129 497.289C130.867 540.901 240.766 501.711 284.377 409.756Z" fill="#FFBDA1"/>
<path d="M794.878 409.756C783.9 386.608 793.766 358.943 816.914 347.965C908.868 304.354 1018.77 343.544 1062.38 435.498C1073.35 458.644 1063.49 486.311 1040.34 497.289C948.387 540.901 838.489 501.711 794.878 409.756Z" fill="#FFBDA1"/>
<path d="M346.633 624.802C346.633 650.677 325.675 671.638 299.816 671.638C273.958 671.638 253 650.677 253 624.802C253 598.958 273.958 578 299.816 578C325.675 578 346.633 598.958 346.633 624.802Z" fill="#EA8F5E"/>
<path d="M822.632 624.802C822.632 650.677 801.675 671.638 775.816 671.638C749.958 671.638 729 650.677 729 624.802C729 598.958 749.958 578 775.816 578C801.675 578 822.632 598.958 822.632 624.802Z" fill="#EA8F5E"/>
<mask id="mask0_10044_21224" style="mask-type:alpha" maskUnits="userSpaceOnUse" x="330" y="472" width="104" height="123">
<path d="M381.609 472.318C409.886 472.318 432.898 499.576 432.899 533.319C432.899 567.063 409.886 594.321 381.609 594.321C353.331 594.321 330.318 567.063 330.318 533.319C330.319 499.576 353.331 472.318 381.609 472.318Z" fill="#FCD53F" stroke="black" stroke-width="0.636014"/>
</mask>
<g mask="url(#mask0_10044_21224)">
<ellipse cx="381.608" cy="533.32" rx="51.6083" ry="61.3196" fill="#FEFAEE"/>
<ellipse cx="381.84" cy="556.614" rx="41.1607" ry="43.7658" fill="#313234"/>
</g>
<mask id="mask1_10044_21224" style="mask-type:alpha" maskUnits="userSpaceOnUse" x="641" y="472" width="104" height="123">
<path d="M692.608 472.318C720.886 472.318 743.898 499.576 743.898 533.319C743.898 567.063 720.886 594.321 692.608 594.321C664.331 594.321 641.318 567.063 641.318 533.319C641.318 499.576 664.331 472.318 692.608 472.318Z" fill="#FCD53F" stroke="black" stroke-width="0.636014"/>
</mask>
<g mask="url(#mask1_10044_21224)">
<ellipse cx="692.608" cy="533.32" rx="51.6083" ry="61.3196" fill="#FEFAEE"/>
<ellipse cx="692.839" cy="556.614" rx="41.1607" ry="43.7658" fill="#313234"/>
</g>
<path d="M538.1 652.63C537.686 666.132 539.772 693.63 572.891 695.63C576.272 695.63 585.272 693.13 590.272 684.13" stroke="#313234" stroke-width="20" stroke-linecap="round"/>
<path d="M536.443 652.63C536.858 666.132 534.771 693.63 501.652 695.63C498.271 695.63 489.271 693.13 484.271 684.13" stroke="#313234" stroke-width="20" stroke-linecap="round"/>
<path d="M483.864 622.704C497.628 640.265 516.747 651.26 537.8 650.02C573.961 647.937 592.888 623.002 603.586 599.44C609.54 586.357 612.941 570.926 605.391 557.731C598.853 546.283 586.151 540.259 573.647 537.938C558.917 535.215 543.824 534.76 528.936 535.59C514.488 536.412 496.509 537.037 484.895 541.593C470.191 547.363 458.635 557.095 464.857 585.158C467.896 598.868 475.352 611.821 483.864 622.704Z" fill="#FCDC7E"/>
<path d="M543.706 56C586.763 56 625.195 75.7116 650.524 106.591C658.767 116.64 672.461 120.214 684.516 115.354C700.853 108.766 718.737 105.208 737.477 105.391C810.015 106.097 870.306 163.733 874.063 236.176C878.189 315.814 814.839 381.68 736.105 381.68C695.392 381.68 658.819 364.054 633.544 336.032C607.638 357.181 574.553 369.867 538.503 369.867C502.252 369.867 468.998 357.04 443.028 335.679C417.744 363.907 381.031 381.68 340.15 381.68C262.784 381.68 200.273 318.087 202.036 240.322C203.732 165.531 265.813 105.132 340.623 105.385C361.409 105.456 381.104 110.129 398.761 118.43C411.315 124.331 426.172 120.283 434.693 109.338C459.965 76.8845 499.388 56.0001 543.706 56Z" fill="#FEFAEE"/>
</g>
<defs>
<clipPath id="clip0_10044_21224">
<rect width="1080" height="1080" fill="white"/>
</clipPath>
</defs>
</svg>
