<svg width="1080" height="1080" viewBox="0 0 1080 1080" fill="none" xmlns="http://www.w3.org/2000/svg">
<path d="M553.965 215.858C670.263 227.035 875.566 285.798 946.329 455C1041.76 683.196 1029.2 993.448 539.559 988.118C49.919 993.448 37.3542 683.196 132.79 455C203.552 285.799 408.854 227.035 525.152 215.858C525.551 215.238 525.949 214.618 526.347 214C530.563 214.15 534.973 214.375 539.559 214.681C544.145 214.375 548.555 214.15 552.771 214C553.169 214.618 553.566 215.238 553.965 215.858Z" fill="#EA8F5E"/>
<path d="M447.654 174.239C439.937 154.471 446.854 133.176 463.102 126.676C479.351 120.176 498.779 130.933 506.496 150.701L517.447 178.755L515.608 149.539C514.299 128.759 527.782 112.805 545.723 113.906C563.663 115.007 579.267 132.745 580.576 153.526L586.893 253.863C588.202 274.644 574.719 290.597 556.778 289.496C551.034 289.144 545.53 287.086 540.658 283.769C537.563 288.199 533.393 291.682 528.309 293.715C524.143 295.382 519.767 295.914 515.434 295.451C516.457 306.628 513.212 317.595 505.743 324.84C492.841 337.354 472.221 334.02 459.687 317.394L399.166 237.114C386.632 220.488 386.931 196.864 399.833 184.35C412.735 171.836 433.355 175.17 445.889 191.796L463.764 215.507L447.654 174.239Z" fill="#EA8F5E"/>
<path d="M538.216 401.62C601.842 376.524 738.326 347.044 820.293 414.499C926.011 501.499 982.036 710.999 846.601 822.999C768.803 887.335 659.725 911.18 578.126 917.415L578.165 917.999C567.051 918.886 553.531 919.363 538.216 919.192C522.901 919.363 509.382 918.886 498.268 917.999L498.306 917.415C416.707 911.18 307.63 887.334 229.832 822.999C94.3963 710.999 150.422 501.499 256.14 414.499C338.106 347.045 474.589 376.525 538.216 401.62Z" fill="#FCDC7E"/>
<mask id="mask0_10044_20963" style="mask-type:alpha" maskUnits="userSpaceOnUse" x="150" y="373" width="777" height="547">
<path d="M538.216 401.619C601.842 376.523 738.326 347.043 820.293 414.498C926.011 501.498 982.036 710.998 846.601 822.998C768.803 887.333 659.725 911.179 578.126 917.414L578.165 917.998C567.051 918.885 553.531 919.362 538.216 919.191C522.901 919.362 509.382 918.885 498.268 917.998L498.306 917.414C416.707 911.179 307.63 887.333 229.832 822.998C94.3963 710.998 150.422 501.498 256.14 414.498C338.106 347.044 474.589 376.523 538.216 401.619Z" fill="#FCDC7E"/>
</mask>
<g mask="url(#mask0_10044_20963)">
<path d="M400.746 572.5C330.246 459.501 199.579 565.834 144.746 627C113.146 699.4 171.579 771.167 204.746 798C300.579 765.834 471.245 685.5 400.746 572.5Z" fill="#EA8F5E"/>
<path d="M703.366 586.769C773.866 473.769 904.533 580.102 959.366 641.269C990.966 713.669 932.533 785.436 899.366 812.269C803.533 780.102 632.866 699.769 703.366 586.769Z" fill="#EA8F5E"/>
<path d="M398.378 806.803C398.378 832.678 377.42 853.638 351.562 853.638C325.704 853.638 304.746 832.678 304.746 806.803C304.746 780.958 325.704 760 351.562 760C377.42 760 398.378 780.958 398.378 806.803Z" fill="#FFBDA1"/>
<path d="M794.378 811.803C794.378 837.678 773.42 858.638 747.562 858.638C721.704 858.638 700.746 837.678 700.746 811.803C700.746 785.958 721.704 765 747.562 765C773.42 765 794.378 785.958 794.378 811.803Z" fill="#FFBDA1"/>
</g>
<path d="M585.746 750.944C585.746 771.024 569.404 787.302 549.246 787.302C529.087 787.302 512.746 771.024 512.746 750.944" stroke="#313234" stroke-width="20" stroke-linecap="round"/>
<path d="M583.618 644.295C571.968 630.242 556.085 621.68 538.895 623.167C509.368 625.683 494.45 646.501 486.231 666.011C481.656 676.844 479.221 689.541 485.692 700.162C491.296 709.377 501.819 714.018 512.097 715.636C524.205 717.531 536.558 717.564 548.716 716.551C560.513 715.554 575.203 714.639 584.598 710.652C596.494 705.603 605.726 697.384 600.007 674.573C597.213 663.429 590.824 653.004 583.618 644.295Z" fill="#313234"/>
<mask id="mask1_10044_20963" style="mask-type:alpha" maskUnits="userSpaceOnUse" x="270" y="579" width="109" height="120">
<path d="M352.867 585.039C377.97 598.055 385.853 632.846 370.32 662.802C354.788 692.758 321.811 706.364 296.707 693.348C271.604 680.331 263.722 645.539 279.254 615.583C294.787 585.627 327.763 572.022 352.867 585.039Z" fill="#FCD53F" stroke="black" stroke-width="0.636014"/>
</mask>
<g mask="url(#mask1_10044_20963)">
<ellipse cx="324.787" cy="639.193" rx="51.6083" ry="61.3196" transform="rotate(27.4073 324.787 639.193)" fill="white"/>
<ellipse cx="348.866" cy="642.673" rx="41.1607" ry="43.7658" transform="rotate(27.4073 348.866 642.673)" fill="#313234"/>
</g>
<mask id="mask2_10044_20963" style="mask-type:alpha" maskUnits="userSpaceOnUse" x="720" y="579" width="109" height="120">
<path d="M746.708 585.039C721.604 598.055 713.722 632.846 729.255 662.802C744.787 692.758 777.764 706.364 802.868 693.348C827.971 680.331 835.853 645.539 820.321 615.583C804.788 585.627 771.812 572.022 746.708 585.039Z" fill="#FCD53F" stroke="black" stroke-width="0.636014"/>
</mask>
<g mask="url(#mask2_10044_20963)">
<ellipse cx="51.6083" cy="61.3196" rx="51.6083" ry="61.3196" transform="matrix(-0.887756 0.460314 0.460314 0.887756 792.377 561)" fill="white"/>
<ellipse cx="41.1607" cy="43.7658" rx="41.1607" ry="43.7658" transform="matrix(-0.887756 0.460314 0.460314 0.887756 812.827 575.873)" fill="#313234"/>
</g>
</svg>
