<svg width="1080" height="1080" viewBox="0 0 1080 1080" fill="none" xmlns="http://www.w3.org/2000/svg">
<path d="M834.511 311.5C618.911 207.5 484.345 372.833 444.011 468.5C351.511 838 740.011 860 867.511 833.5C995.011 807 1104.01 441.5 834.511 311.5Z" fill="#EA8F5E"/>
<path d="M298.012 401C97.5121 396.707 120.713 598 139.512 712C194.012 1042.5 461.512 988.392 720.012 969.5C813.512 962.667 998.912 935.9 992.512 883.5C984.512 818 838.512 816 647.512 791.5C494.712 771.9 485.512 661 485.512 598C485.512 535 484.812 405 298.012 401Z" fill="#FCDC7E"/>
<path d="M170.831 333.489L220.381 323.593L285.241 536.494L196.052 554.307L170.831 333.489Z" fill="#FCDC7E"/>
<path d="M374.65 332.929L424.514 341.091L410.357 563.201L320.601 548.51L374.65 332.929Z" fill="#FCDC7E"/>
<ellipse cx="86.4786" cy="117.216" rx="86.4786" ry="117.216" transform="matrix(0.993776 -0.111399 0.115783 0.993275 78 115.267)" fill="#FCDC7E"/>
<ellipse cx="86.4786" cy="117.216" rx="86.4786" ry="117.216" transform="matrix(0.969469 0.245214 -0.240933 0.970542 364.494 96)" fill="#FCDC7E"/>
<mask id="mask0_10045_2362" style="mask-type:alpha" maskUnits="userSpaceOnUse" x="128" y="161" width="104" height="123">
<path d="M179.62 161.318C207.898 161.318 230.91 188.576 230.91 222.319C230.91 256.063 207.898 283.321 179.62 283.321C151.342 283.321 128.33 256.063 128.33 222.319C128.33 188.576 151.342 161.318 179.62 161.318Z" fill="#FCD53F" stroke="black" stroke-width="0.636014"/>
</mask>
<g mask="url(#mask0_10045_2362)">
<ellipse cx="179.62" cy="222.32" rx="51.6083" ry="61.3196" fill="white"/>
<ellipse cx="179.851" cy="245.614" rx="41.1607" ry="43.7658" fill="#313234"/>
</g>
<mask id="mask1_10045_2362" style="mask-type:alpha" maskUnits="userSpaceOnUse" x="367" y="170" width="105" height="123">
<path d="M424.441 170.509C452.63 172.744 473.416 201.735 470.749 235.373C468.082 269.011 442.987 294.365 414.798 292.13C386.609 289.895 365.823 260.904 368.49 227.265C371.157 193.627 396.252 168.274 424.441 170.509Z" fill="#FCD53F" stroke="black" stroke-width="0.636014"/>
</mask>
<g mask="url(#mask1_10045_2362)">
<ellipse cx="419.62" cy="231.32" rx="51.6083" ry="61.3196" transform="rotate(4.53339 419.62 231.32)" fill="white"/>
<ellipse cx="418.008" cy="254.559" rx="41.1607" ry="43.7658" transform="rotate(4.53339 418.008 254.559)" fill="#313234"/>
</g>
<path d="M355.012 505C355.012 518.255 333.745 529 307.512 529C281.278 529 260.012 518.255 260.012 505" stroke="#313234" stroke-width="20" stroke-linecap="round"/>
<path d="M237.644 515.802C237.644 541.677 216.686 562.638 190.828 562.638C164.97 562.638 144.012 541.677 144.012 515.802C144.012 489.958 164.97 469 190.828 469C216.686 469 237.644 489.958 237.644 515.802Z" fill="#FFBDA1"/>
<path d="M466.644 515.802C466.644 541.677 445.686 562.638 419.828 562.638C393.97 562.638 373.012 541.677 373.012 515.802C373.012 489.958 393.97 469 419.828 469C445.686 469 466.644 489.958 466.644 515.802Z" fill="#FFBDA1"/>
</svg>
