<svg width="1080" height="1080" viewBox="0 0 1080 1080" fill="none" xmlns="http://www.w3.org/2000/svg">
<path d="M446.211 212.398C480.917 203.749 520.471 200.597 565.282 204C1078.78 243 1045.49 720.884 977.256 826.884C878.118 980.884 488.283 966.5 343.783 948.5C343.68 948.333 343.578 948.164 343.475 947.997C248.97 939.988 158.815 909.263 105.782 826.883C40.3271 725.205 -3.52647 282.738 446.211 212.398Z" fill="#B5D2F2"/>
<path d="M517.085 198.006L501.313 156.249C490.506 127.635 453.762 119.721 432.134 141.35C410.504 162.979 418.418 199.723 447.032 210.531L488.789 226.302C506.467 232.981 523.763 215.686 517.085 198.006Z" fill="#B5D2F2"/>
<path d="M526.209 231.109L562.907 205.701C588.056 188.29 586.843 150.724 560.623 134.972C534.403 119.219 500.666 135.79 497.104 166.169L491.906 210.501C489.704 229.27 510.67 241.867 526.209 231.109Z" fill="#B5D2F2"/>
<mask id="mask0_10045_2337" style="mask-type:alpha" maskUnits="userSpaceOnUse" x="303" y="587" width="104" height="123">
<path d="M355.392 587.318C383.669 587.318 406.682 614.576 406.682 648.319C406.682 682.063 383.669 709.321 355.392 709.321C327.114 709.321 304.102 682.063 304.102 648.319C304.102 614.576 327.114 587.318 355.392 587.318Z" fill="#FCD53F" stroke="black" stroke-width="0.636014"/>
</mask>
<g mask="url(#mask0_10045_2337)">
<ellipse cx="355.392" cy="648.32" rx="51.6083" ry="61.3196" fill="white"/>
<ellipse cx="355.622" cy="671.614" rx="41.1607" ry="43.7658" fill="#313234"/>
</g>
<mask id="mask1_10045_2337" style="mask-type:alpha" maskUnits="userSpaceOnUse" x="683" y="587" width="104" height="123">
<path d="M735.392 587.318C763.669 587.318 786.682 614.576 786.682 648.319C786.682 682.063 763.669 709.321 735.392 709.321C707.114 709.321 684.102 682.063 684.102 648.319C684.102 614.576 707.114 587.318 735.392 587.318Z" fill="#FCD53F" stroke="black" stroke-width="0.636014"/>
</mask>
<g mask="url(#mask1_10045_2337)">
<ellipse cx="735.392" cy="648.32" rx="51.6083" ry="61.3196" fill="white"/>
<ellipse cx="735.622" cy="671.614" rx="41.1607" ry="43.7658" fill="#313234"/>
</g>
<path d="M598.749 776.955L647.176 723.181C658.188 710.956 645.689 695 625.107 695H489.456C468.872 695 456.378 710.956 467.388 723.181L515.817 776.955C535.081 798.348 579.482 798.348 598.749 776.955Z" fill="#FCDC7E"/>
<path d="M507.648 646.157L449.683 710.354C436.503 724.95 451.461 744 476.1 744H638.467C663.105 744 678.064 724.951 664.883 710.354L606.918 646.157C583.853 620.614 530.714 620.614 507.648 646.157Z" fill="#FCDC7E"/>
<path d="M303.416 738.802C303.416 764.677 282.458 785.638 256.599 785.638C230.741 785.638 209.783 764.677 209.783 738.802C209.783 712.958 230.741 692 256.599 692C282.458 692 303.416 712.958 303.416 738.802Z" fill="#FFBDA1"/>
<path d="M919.415 738.802C919.415 764.677 898.458 785.638 872.599 785.638C846.741 785.638 825.783 764.677 825.783 738.802C825.783 712.958 846.741 692 872.599 692C898.458 692 919.415 712.958 919.415 738.802Z" fill="#FFBDA1"/>
</svg>
