<svg width="1080" height="1080" viewBox="0 0 1080 1080" fill="none" xmlns="http://www.w3.org/2000/svg">
<path d="M543.446 270.249C562.971 338.274 504.811 320.232 436.81 339.798C368.783 359.353 316.653 409.128 297.138 341.076C277.612 273.051 327.11 134.848 363.355 123.588C423.969 104.769 523.904 202.186 543.446 270.249Z" fill="#EA8F5E"/>
<path d="M492.678 287.049C503.979 326.423 470.329 315.994 430.98 327.292C391.62 338.617 361.433 367.429 350.159 328.065C338.857 288.691 351.034 210.778 390.404 199.426C429.754 188.128 481.377 247.675 492.678 287.049Z" fill="#FCDC7E"/>
<path d="M518.625 286.231C508.242 356.238 563.514 330.682 633.501 341.108C703.513 351.52 761.754 393.985 772.122 323.953C782.505 253.947 715.211 123.479 677.797 117.099C615.231 106.439 529.018 216.186 518.625 286.231Z" fill="#EA8F5E"/>
<path d="M571.143 296.201C565.159 336.708 597.139 321.931 637.635 327.941C678.12 333.989 711.843 358.567 717.852 318.047C723.861 277.526 701.515 201.9 660.991 195.84C620.495 189.831 577.152 255.68 571.143 296.201Z" fill="#FCDC7E"/>
<path d="M539.549 279.259C765.912 279.259 811.998 412.285 915.822 632.392C1019.64 852.478 771.953 983.925 539.613 983.949C539.592 983.949 539.571 983.95 539.549 983.95C307.21 983.926 59.5234 852.478 163.341 632.392C267.155 412.306 313.242 279.284 539.549 279.259Z" fill="#FCDC7E"/>
<mask id="mask0_10044_20592" style="mask-type:alpha" maskUnits="userSpaceOnUse" x="139" y="279" width="802" height="705">
<path d="M539.549 279.259C765.912 279.259 811.998 412.285 915.822 632.392C1019.64 852.478 771.953 983.925 539.613 983.949C539.592 983.949 539.571 983.95 539.549 983.95C307.21 983.926 59.5234 852.478 163.341 632.392C267.155 412.306 313.242 279.284 539.549 279.259Z" fill="#FCDC7E"/>
</mask>
<g mask="url(#mask0_10044_20592)">
<path d="M755.86 341.482C727.7 315.83 690.431 298.296 654.584 287.942C635.755 282.498 616.465 278.73 597.23 275.105C562.787 268.613 506.046 267.991 480.432 275.105C461.546 280.351 441.916 282.498 423.074 287.942C387.237 298.296 349.966 315.83 321.796 341.482C265.65 392.612 237.33 458.353 215.007 527.142C246.993 510.099 295.198 491.233 362.978 504.698C400.051 512.064 455.214 546.842 478.57 603.727C490.499 632.788 495.418 664.287 498.993 695.72C499.939 704.041 505.411 712.505 514.468 711.977C531.819 710.965 549.169 708.295 566.446 706.274C572.617 705.552 579.99 701.947 581.117 694.532C586.106 661.835 593.627 629.194 607.743 599.417C619.772 574.035 636.273 550.25 658.612 533.859C682.633 516.244 710.424 507.171 739.138 502.513C766.762 498.036 796.345 497.378 824.024 501.673C835.388 503.432 846.512 506.09 857.007 510.206C835.48 447.617 807.394 388.399 755.86 341.482Z" fill="#EA8F5E"/>
</g>
<path d="M347.639 770.802C347.639 796.677 326.681 817.638 300.823 817.638C274.965 817.638 254.007 796.677 254.007 770.802C254.007 744.958 274.965 724 300.823 724C326.681 724 347.639 744.958 347.639 770.802Z" fill="#EA8F5E"/>
<path d="M822.135 770.802C822.135 796.677 801.177 817.638 775.319 817.638C749.461 817.638 728.503 796.677 728.503 770.802C728.503 744.958 749.461 724 775.319 724C801.177 724 822.135 744.958 822.135 770.802Z" fill="#EA8F5E"/>
<mask id="mask1_10044_20592" style="mask-type:alpha" maskUnits="userSpaceOnUse" x="331" y="601" width="104" height="123">
<path d="M382.615 601.318C410.893 601.318 433.905 628.576 433.905 662.319C433.905 696.063 410.893 723.321 382.615 723.321C354.338 723.321 331.325 696.063 331.325 662.319C331.325 628.576 354.338 601.318 382.615 601.318Z" fill="#FCD53F" stroke="black" stroke-width="0.636014"/>
</mask>
<g mask="url(#mask1_10044_20592)">
<ellipse cx="382.615" cy="662.32" rx="51.6083" ry="61.3196" fill="white"/>
<ellipse cx="393.168" cy="644.766" rx="41.1607" ry="43.7658" fill="#313234"/>
</g>
<mask id="mask2_10044_20592" style="mask-type:alpha" maskUnits="userSpaceOnUse" x="641" y="601" width="104" height="123">
<path d="M692.615 601.318C720.893 601.318 743.905 628.576 743.905 662.319C743.905 696.063 720.893 723.321 692.615 723.321C664.338 723.321 641.325 696.063 641.325 662.319C641.325 628.576 664.338 601.318 692.615 601.318Z" fill="#FCD53F" stroke="black" stroke-width="0.636014"/>
</mask>
<g mask="url(#mask2_10044_20592)">
<ellipse cx="692.615" cy="662.32" rx="51.6083" ry="61.3196" fill="white"/>
<ellipse cx="703.167" cy="644.766" rx="41.1607" ry="43.7658" fill="#313234"/>
</g>
<path d="M496.134 734.919C507.785 748.971 523.668 757.533 540.858 756.046C570.384 753.53 585.303 732.713 593.522 713.203C598.097 702.369 600.532 689.673 594.061 679.052C588.456 669.836 577.933 665.195 567.655 663.578C555.547 661.682 543.194 661.649 531.037 662.663C519.24 663.659 504.55 664.575 495.154 668.561C483.259 673.611 474.027 681.83 479.746 704.64C482.54 715.784 488.928 726.209 496.134 734.919Z" fill="#313234"/>
<path d="M575.007 782C575.007 802.08 558.665 818.358 538.507 818.358C518.348 818.358 502.007 802.08 502.007 782" stroke="#313234" stroke-width="20" stroke-linecap="round"/>
</svg>
