<svg width="1080" height="1080" viewBox="0 0 1080 1080" fill="none" xmlns="http://www.w3.org/2000/svg">
<path d="M590.5 660C542.5 775.5 444 910 567.5 1019.5" stroke="#FEFAEE" stroke-width="80" stroke-linecap="round"/>
<path d="M337 993C337 842.5 342.7 818.2 537.5 655" stroke="#FEFAEE" stroke-width="80" stroke-linecap="round"/>
<path d="M754.5 999.5C739 935.5 733.5 817 556 647" stroke="#FEFAEE" stroke-width="80" stroke-linecap="round"/>
<path d="M71 674C173.167 716.833 389.3 758.4 436.5 582" stroke="#FEFAEE" stroke-width="80" stroke-linecap="round"/>
<path d="M1008.5 736.5C909.548 779.219 771.5 818.5 738 674" stroke="#FEFAEE" stroke-width="80" stroke-linecap="round"/>
<path d="M556 60.167C583.759 58.6059 612.373 67.8818 639.229 94.5625C667.998 116.252 690.981 143.911 702.984 164.522C766.706 255.14 845.465 421.789 835.068 551.493C839.666 617.263 816.803 668.056 748.801 699.171C711.048 721.189 659.239 734.022 590.008 734.022C578.285 734.022 566.953 733.865 556 733.557C545.047 733.864 533.715 734.022 521.993 734.022C452.762 734.022 400.953 721.189 363.2 699.171C295.196 668.055 272.331 617.26 276.931 551.487C266.537 421.784 345.296 255.138 409.017 164.522C421.02 143.911 444.003 116.248 472.774 94.5586C499.629 67.8804 528.243 58.6061 556 60.167Z" fill="#FEFAEE"/>
<path d="M591.459 546C591.459 566.08 575.117 582.358 554.959 582.358C534.801 582.358 518.459 566.08 518.459 546" stroke="#313234" stroke-width="20" stroke-linecap="round"/>
<mask id="mask0_10044_21381" style="mask-type:alpha" maskUnits="userSpaceOnUse" x="374" y="412" width="102" height="123">
<path d="M424.828 412.318C452.634 412.319 475.272 439.57 475.272 473.319C475.272 507.068 452.634 534.321 424.828 534.321C397.022 534.321 374.384 507.068 374.384 473.319C374.384 439.57 397.022 412.318 424.828 412.318Z" fill="#FCD53F" stroke="black" stroke-width="0.636014"/>
</mask>
<g mask="url(#mask0_10044_21381)">
<ellipse cx="424.828" cy="473.32" rx="50.7623" ry="61.3196" fill="white"/>
<ellipse cx="439.809" cy="450.614" rx="43.1207" ry="46.614" fill="#313234"/>
</g>
<mask id="mask1_10044_21381" style="mask-type:alpha" maskUnits="userSpaceOnUse" x="622" y="412" width="103" height="123">
<path d="M673.681 412.318C701.486 412.319 724.125 439.57 724.125 473.319C724.125 507.068 701.487 534.321 673.681 534.321C645.875 534.321 623.236 507.068 623.236 473.319C623.236 439.57 645.875 412.318 673.681 412.318Z" fill="#FCD53F" stroke="black" stroke-width="0.636014"/>
</mask>
<g mask="url(#mask1_10044_21381)">
<ellipse cx="673.68" cy="473.32" rx="50.7623" ry="61.3196" fill="white"/>
<ellipse cx="688.662" cy="450.614" rx="43.1207" ry="46.614" fill="#313234"/>
</g>
<path d="M410.097 594.802C410.097 620.677 389.483 641.638 364.049 641.638C338.614 641.638 318 620.677 318 594.802C318 568.958 338.614 548 364.049 548C389.483 548 410.097 568.958 410.097 594.802Z" fill="#FFBDA1"/>
<path d="M761.245 594.802C761.245 620.677 740.631 641.638 715.196 641.638C689.762 641.638 669.147 620.677 669.147 594.802C669.147 568.958 689.762 548 715.196 548C740.631 548 761.245 568.958 761.245 594.802Z" fill="#FFBDA1"/>
</svg>
