<svg width="1080" height="1080" viewBox="0 0 1080 1080" fill="none" xmlns="http://www.w3.org/2000/svg">
<path d="M421.129 261.063C421.129 338.424 358.44 401.129 281.055 401.129C203.701 401.129 141 338.424 141 261.063C141 183.709 203.701 121 281.055 121C358.44 121 421.129 183.709 421.129 261.063Z" fill="#FCDC7E"/>
<path d="M342.071 249.653C342.071 289.709 309.606 322.181 269.547 322.181C229.488 322.181 197 289.709 197 249.653C197 209.594 229.488 177.129 269.547 177.129C309.606 177.129 342.071 209.594 342.071 249.653Z" fill="#313234"/>
<path d="M683 261.063C683 338.424 745.689 401.129 823.074 401.129C900.428 401.129 963.129 338.424 963.129 261.063C963.129 183.709 900.428 121 823.074 121C745.689 121 683 183.709 683 261.063Z" fill="#FCDC7E"/>
<path d="M762.058 249.653C762.058 289.709 794.523 322.181 834.582 322.181C874.641 322.181 907.129 289.709 907.129 249.653C907.129 209.594 874.641 177.129 834.582 177.129C794.523 177.129 762.058 209.594 762.058 249.653Z" fill="#313234"/>
<path d="M540.384 149C778.567 149 827.06 301.906 986.305 554.906C1095.54 807.881 784.923 958.971 540.451 958.999C540.429 958.999 540.406 959 540.384 959C295.911 958.972 -14.7097 807.881 94.5293 554.906C253.764 301.93 302.258 149.029 540.384 149Z" fill="#FCDC7E"/>
<mask id="mask0_10044_19553" style="mask-type:alpha" maskUnits="userSpaceOnUse" x="72" y="149" width="937" height="810">
<path d="M540.384 149C778.567 149 827.06 301.906 986.305 554.906C1095.54 807.881 784.923 958.971 540.451 958.999C540.429 958.999 540.406 959 540.384 959C295.911 958.972 -14.7097 807.881 94.5293 554.906C253.764 301.93 302.258 149.029 540.384 149Z" fill="#EA8F5E"/>
</mask>
<g mask="url(#mask0_10044_19553)">
<path d="M349.631 635.802C349.631 661.677 328.673 682.638 302.815 682.638C276.957 682.638 255.999 661.677 255.999 635.802C255.999 609.958 276.957 589 302.815 589C328.673 589 349.631 609.958 349.631 635.802Z" fill="#EA8F5E"/>
<path d="M824.127 635.802C824.127 661.677 803.17 682.638 777.311 682.638C751.453 682.638 730.495 661.677 730.495 635.802C730.495 609.958 751.453 589 777.311 589C803.17 589 824.127 609.958 824.127 635.802Z" fill="#EA8F5E"/>
<path d="M604.287 155.075C583.7 151.025 562.437 149 540.5 149C518.562 149 497.299 151.025 476.712 155.075L516.2 197.263C529.362 211.1 551.299 211.1 564.125 197.263L604.287 155.075Z" fill="#313234"/>
<path d="M636.687 267.125H444.312C431.487 267.125 426.087 282.987 435.874 291.087L526.999 363.988C535.099 370.4 546.237 370.4 553.999 363.988L645.124 291.087C654.912 282.987 649.512 267.125 636.687 267.125Z" fill="#313234"/>
<path d="M226.625 786.54L87.2375 693.728H213.8C236.413 693.728 245.525 664.365 226.625 651.54L79.8125 552.653C72.05 579.653 68 608.34 68 637.028V766.965C68 788.903 72.3875 809.49 80.4875 828.39H213.8C236.413 828.39 245.525 799.028 226.625 786.54Z" fill="#313234"/>
<path d="M1000.51 828.39C1008.61 809.49 1013 788.903 1013 766.965V637.028C1013 608.34 1008.95 579.99 1001.52 552.653L854.374 651.203C835.474 663.69 844.249 693.39 867.199 693.39H993.761L854.374 786.203C835.474 798.69 844.249 828.39 867.199 828.39H1000.51Z" fill="#313234"/>
<path d="M539.25 1003C408.638 1003 303 897.358 303 766.745V699.245H775.5V766.745C775.5 897.358 669.863 1003 539.25 1003Z" fill="white"/>
<path d="M674.25 598H404.25C348.225 598 303 643.225 303 699.25C303 755.275 348.225 800.5 404.25 800.5H454.875C489.975 800.5 521.025 782.613 539.25 755.275C557.475 782.613 588.525 800.5 623.625 800.5H674.25C730.275 800.5 775.5 755.275 775.5 699.25C775.5 643.225 730.275 598 674.25 598Z" fill="white"/>
</g>
<path d="M481.609 611.087L528.184 657.663C542.021 671.5 564.634 671.5 578.809 657.663L625.384 611.087C647.996 588.475 631.796 550 600.071 550H507.259C474.859 550 458.996 588.475 481.609 611.087Z" fill="#313234"/>
<mask id="mask1_10044_19553" style="mask-type:alpha" maskUnits="userSpaceOnUse" x="318" y="466" width="105" height="123">
<path d="M370.607 466.318C398.885 466.318 421.897 493.576 421.897 527.319C421.897 561.063 398.885 588.321 370.607 588.321C342.33 588.321 319.317 561.063 319.317 527.319C319.317 493.576 342.33 466.318 370.607 466.318Z" fill="#FCD53F" stroke="black" stroke-width="0.636014"/>
</mask>
<g mask="url(#mask1_10044_19553)">
<ellipse cx="370.607" cy="527.32" rx="51.6083" ry="61.3196" fill="white"/>
<ellipse cx="370.838" cy="550.614" rx="41.1607" ry="43.7658" fill="#313234"/>
</g>
<mask id="mask2_10044_19553" style="mask-type:alpha" maskUnits="userSpaceOnUse" x="657" y="466" width="105" height="123">
<path d="M709.607 466.318C737.885 466.318 760.897 493.576 760.897 527.319C760.897 561.063 737.885 588.321 709.607 588.321C681.33 588.321 658.317 561.063 658.317 527.319C658.317 493.576 681.33 466.318 709.607 466.318Z" fill="#FCD53F" stroke="black" stroke-width="0.636014"/>
</mask>
<g mask="url(#mask2_10044_19553)">
<ellipse cx="709.607" cy="527.32" rx="51.6083" ry="61.3196" fill="white"/>
<ellipse cx="709.838" cy="550.614" rx="41.1607" ry="43.7658" fill="#313234"/>
</g>
<path d="M589 724C589 744.08 572.658 760.358 552.5 760.358C532.342 760.358 516 744.08 516 724" stroke="#313234" stroke-width="20" stroke-linecap="round"/>
</svg>
