<svg width="1080" height="1080" viewBox="0 0 1080 1080" fill="none" xmlns="http://www.w3.org/2000/svg">
<g clip-path="url(#clip0_10035_3668)">
<path d="M1036.82 518.072C1036.82 747.31 44.8164 747.31 44.8164 518.072C44.8164 288.832 266.882 103 540.816 103C814.75 103 1036.82 288.834 1036.82 518.072Z" fill="#FCDC7E"/>
<path d="M1081 528.031C1081 490.479 1037.46 470.062 1008.26 493.703C906.402 576.173 734.917 630.317 540.5 630.317C346.083 630.317 174.598 576.173 72.7365 493.703C43.5369 470.062 0 490.477 0 528.031C0.0085612 568.46 16.074 607.233 44.6685 635.835C141.018 732.271 326.943 797.592 540.5 797.592C755.703 797.592 942.849 731.256 1038.55 633.597C1066.08 605.495 1081 567.405 1081 528.075V528.031Z" fill="url(#paint0_linear_10035_3668)"/>
<path fill-rule="evenodd" clip-rule="evenodd" d="M243.721 834.485C221.77 909.062 154.056 1036.06 58.8102 947.446C-36.436 858.831 100.143 730.1 180.339 676.811L243.721 834.485Z" fill="#6AAA7D"/>
<path fill-rule="evenodd" clip-rule="evenodd" d="M859.999 834.485C881.951 909.062 949.665 1036.06 1044.91 947.446C1140.16 858.831 1003.58 730.099 923.382 676.811L859.999 834.485Z" fill="#6AAA7D"/>
<path d="M540.508 193.505C542.208 193.451 543.943 193.447 545.713 193.493C761.328 199.105 997.523 397.399 966.186 670.52C945.899 847.333 796.947 896.006 658.071 900.461C387.957 900.461 139.698 887.401 114.814 670.519C83.4773 397.398 319.672 199.104 535.287 193.492C537.047 193.446 538.787 193.452 540.508 193.505Z" fill="#6AAA7D"/>
<path d="M619 552.592C619 596.053 583.631 631.286 540 631.286C496.37 631.286 461 596.053 461 552.592" stroke="#313234" stroke-width="43.2877" stroke-linecap="round"/>
<mask id="mask0_10035_3668" style="mask-type:alpha" maskUnits="userSpaceOnUse" x="263" y="461" width="104" height="124">
<path d="M314.608 461.91C342.886 461.91 365.898 489.167 365.898 522.911C365.898 556.655 342.886 583.913 314.608 583.913C286.331 583.913 263.318 556.655 263.318 522.911C263.318 489.167 286.331 461.91 314.608 461.91Z" fill="#FCD53F" stroke="black" stroke-width="0.636014"/>
</mask>
<g mask="url(#mask0_10035_3668)">
<ellipse cx="314.608" cy="522.911" rx="51.6083" ry="61.3196" fill="white"/>
<ellipse cx="314.839" cy="546.206" rx="41.1607" ry="43.7658" fill="#313234"/>
</g>
<mask id="mask1_10035_3668" style="mask-type:alpha" maskUnits="userSpaceOnUse" x="714" y="461" width="104" height="124">
<path d="M765.608 461.91C793.886 461.91 816.898 489.167 816.898 522.911C816.898 556.655 793.886 583.913 765.608 583.913C737.331 583.913 714.318 556.655 714.318 522.911C714.318 489.167 737.331 461.91 765.608 461.91Z" fill="#FCD53F" stroke="black" stroke-width="0.636014"/>
</mask>
<g mask="url(#mask1_10035_3668)">
<ellipse cx="765.608" cy="522.911" rx="51.6083" ry="61.3196" fill="white"/>
<ellipse cx="765.839" cy="546.206" rx="41.1607" ry="43.7658" fill="#313234"/>
</g>
<path d="M309.632 631.394C309.632 657.269 288.674 678.23 262.816 678.23C236.958 678.23 216 657.269 216 631.394C216 605.55 236.958 584.592 262.816 584.592C288.674 584.592 309.632 605.55 309.632 631.394Z" fill="#FFBDA1"/>
<path d="M863.632 631.394C863.632 657.269 842.674 678.23 816.816 678.23C790.958 678.23 770 657.269 770 631.394C770 605.55 790.958 584.592 816.816 584.592C842.674 584.592 863.632 605.55 863.632 631.394Z" fill="#FFBDA1"/>
</g>
<defs>
<linearGradient id="paint0_linear_10035_3668" x1="540.5" y1="563.036" x2="540.5" y2="803.157" gradientUnits="userSpaceOnUse">
<stop stop-color="#FFDFCF"/>
<stop offset="1" stop-color="#FFA78F"/>
</linearGradient>
<clipPath id="clip0_10035_3668">
<rect width="1080" height="1080" fill="white"/>
</clipPath>
</defs>
</svg>
