<svg width="1080" height="1080" viewBox="0 0 1080 1080" fill="none" xmlns="http://www.w3.org/2000/svg">
<path d="M539.702 1068.03C315.681 1068.03 138.523 878.275 153.935 654.789L180.338 350.477C193.481 159.883 351.923 12 543.007 12C736.477 12 896.053 163.52 906.047 356.715L925.86 661.438C937.301 882.519 761.101 1068.03 539.702 1068.03Z" fill="#EA8F5E"/>
<path d="M452.44 653.628L421.751 961.245C419.972 977.498 406.462 989.79 390.245 989.804C373.421 989.796 359.533 976.521 358.56 959.68L342.517 637.418" fill="white"/>
<path d="M619.881 653.627L650.579 961.243C652.358 977.496 665.869 989.788 682.086 989.802C698.91 989.796 712.798 976.521 713.771 959.68L729.805 637.421" fill="white"/>
<path d="M809.98 500.905C809.98 559.573 777.709 610.81 729.791 637.406C707.299 650.117 681.286 657.353 653.514 657.353C641.974 657.353 630.631 656.18 619.874 653.638C586.82 646.402 557.678 628.801 536.164 604.356C514.65 628.801 485.508 646.402 452.455 653.638C441.698 656.18 430.354 657.353 418.815 657.353C391.042 657.353 365.029 650.117 342.537 637.406C294.62 610.81 262.349 559.573 262.349 500.905C262.349 414.467 332.367 344.456 418.815 344.456C440.133 344.456 460.474 348.758 478.859 356.385C477.881 358.928 477.489 361.665 477.489 364.403C477.489 374.572 483.357 383.959 492.549 388.653L536.164 410.556L579.779 388.653C588.971 383.959 594.839 374.572 594.839 364.403C594.839 361.665 594.448 358.928 593.47 356.385C611.855 348.758 632.195 344.456 653.514 344.456C739.961 344.456 809.98 414.467 809.98 500.905Z" fill="#FFBDA1"/>
<path d="M594.839 364.401C594.839 374.57 588.971 383.957 579.779 388.651L536.164 410.554L492.549 388.651C483.357 383.957 477.489 374.57 477.489 364.401C477.489 361.663 477.88 358.926 478.858 356.383C481.988 345.236 492.354 337.023 504.675 337.023H567.653C579.975 337.023 590.34 345.236 593.47 356.383C594.448 358.926 594.839 361.663 594.839 364.401Z" fill="#313234"/>
<mask id="mask0_10045_2215" style="mask-type:alpha" maskUnits="userSpaceOnUse" x="343" y="195" width="105" height="123">
<path d="M395.395 195.318C423.672 195.318 446.684 222.576 446.685 256.319C446.685 290.063 423.672 317.321 395.395 317.321C367.117 317.321 344.104 290.063 344.104 256.319C344.105 222.576 367.117 195.318 395.395 195.318Z" fill="#FCD53F" stroke="black" stroke-width="0.636014"/>
</mask>
<g mask="url(#mask0_10045_2215)">
<ellipse cx="395.394" cy="256.32" rx="51.6083" ry="61.3196" fill="white"/>
<ellipse cx="395.626" cy="279.614" rx="41.1607" ry="43.7658" fill="#313234"/>
</g>
<mask id="mask1_10045_2215" style="mask-type:alpha" maskUnits="userSpaceOnUse" x="632" y="195" width="105" height="123">
<path d="M684.395 195.318C712.672 195.318 735.684 222.576 735.685 256.319C735.685 290.063 712.672 317.321 684.395 317.321C656.117 317.321 633.104 290.063 633.104 256.319C633.105 222.576 656.117 195.318 684.395 195.318Z" fill="#FCD53F" stroke="black" stroke-width="0.636014"/>
</mask>
<g mask="url(#mask1_10045_2215)">
<ellipse cx="684.394" cy="256.32" rx="51.6083" ry="61.3196" fill="white"/>
<ellipse cx="684.625" cy="279.614" rx="41.1607" ry="43.7658" fill="#313234"/>
</g>
<path d="M305.635 336.802C305.635 362.677 284.677 383.638 258.819 383.638C232.961 383.638 212.003 362.677 212.003 336.802C212.003 310.958 232.961 290 258.819 290C284.677 290 305.635 310.958 305.635 336.802Z" fill="#FFBDA1"/>
<path d="M859.635 336.802C859.635 362.677 838.677 383.638 812.819 383.638C786.961 383.638 766.003 362.677 766.003 336.802C766.003 310.958 786.961 290 812.819 290C838.677 290 859.635 310.958 859.635 336.802Z" fill="#FFBDA1"/>
</svg>
