<svg width="1080" height="1080" viewBox="0 0 1080 1080" fill="none" xmlns="http://www.w3.org/2000/svg">
<path d="M539.63 130C799.381 130 852.265 282.589 971.403 535.064C1090.53 787.516 806.313 938.293 539.704 938.32C539.679 938.32 539.655 938.321 539.63 938.321C273.021 938.294 -11.1995 787.516 107.931 535.064C227.057 282.613 279.943 130.029 539.63 130Z" fill="#716E6E"/>
<path d="M319.132 537.505C319.132 563.38 298.174 584.341 272.316 584.341C246.458 584.341 225.5 563.38 225.5 537.505C225.5 511.661 246.458 490.703 272.316 490.703C298.174 490.703 319.132 511.661 319.132 537.505Z" fill="#FFBDA1"/>
<path d="M873.132 537.505C873.132 563.38 852.174 584.341 826.316 584.341C800.458 584.341 779.5 563.38 779.5 537.505C779.5 511.661 800.458 490.703 826.316 490.703C852.174 490.703 873.132 511.661 873.132 537.505Z" fill="#FFBDA1"/>
<mask id="mask0_10044_21375" style="mask-type:alpha" maskUnits="userSpaceOnUse" x="360" y="410" width="104" height="124">
<path d="M412.108 411.021C440.386 411.022 463.398 438.279 463.398 472.022C463.398 505.766 440.386 533.024 412.108 533.024C383.831 533.024 360.818 505.766 360.818 472.022C360.818 438.279 383.831 411.021 412.108 411.021Z" fill="#FCD53F" stroke="black" stroke-width="0.636014"/>
</mask>
<g mask="url(#mask0_10044_21375)">
<ellipse cx="412.108" cy="472.023" rx="51.6083" ry="61.3196" fill="white"/>
<ellipse cx="427.339" cy="449.317" rx="43.8393" ry="46.614" fill="#313234"/>
</g>
<mask id="mask1_10044_21375" style="mask-type:alpha" maskUnits="userSpaceOnUse" x="613" y="410" width="104" height="124">
<path d="M665.108 411.021C693.386 411.022 716.398 438.279 716.398 472.022C716.398 505.766 693.386 533.024 665.108 533.024C636.831 533.024 613.818 505.766 613.818 472.022C613.818 438.279 636.831 411.021 665.108 411.021Z" fill="#FCD53F" stroke="black" stroke-width="0.636014"/>
</mask>
<g mask="url(#mask1_10044_21375)">
<ellipse cx="665.108" cy="472.023" rx="51.6083" ry="61.3196" fill="white"/>
<ellipse cx="680.339" cy="449.317" rx="43.8393" ry="46.614" fill="#313234"/>
</g>
<path d="M689.78 666.98L619.44 718.085C610.642 724.479 609.506 737.074 616.876 745.073C664.553 796.812 684.956 862.777 680.034 929.574C678.493 950.451 707.23 957.934 716.055 938.95C754.243 856.803 753.882 761.337 717.07 674.551C712.527 663.841 699.191 660.14 689.78 666.98Z" fill="white"/>
<path d="M387.381 666.98L457.721 718.085C466.52 724.479 467.655 737.074 460.285 745.073C412.608 796.812 392.205 862.777 397.127 929.574C398.668 950.451 369.931 957.934 361.106 938.95C322.918 856.803 323.278 761.337 360.092 674.551C364.634 663.841 377.972 660.14 387.381 666.98Z" fill="white"/>
<path d="M653.144 550.584H424.023C341.051 550.584 273.789 617.846 273.789 700.818C273.789 783.79 341.051 851.05 424.023 851.05C469.942 851.05 511.026 830.423 538.583 797.957C566.14 830.423 607.223 851.05 653.144 851.05C736.116 851.05 803.378 783.79 803.378 700.818C803.378 617.848 736.116 550.584 653.144 550.584Z" fill="#FFBDA1"/>
<path d="M613.5 583.698C613.5 611.322 584.82 633.703 549.482 633.703C514.144 633.703 485.5 611.322 485.5 583.698C485.5 556.084 514.144 533.703 549.482 533.703C584.82 533.703 613.5 556.084 613.5 583.698Z" fill="#313234"/>
<path d="M423.5 669.204C370.5 658.704 199 617.704 150 604.204" stroke="#313234" stroke-width="33.8304" stroke-linecap="round" stroke-linejoin="round"/>
<path d="M418.501 705.703C322.501 699.203 203.001 692.703 169.001 684.703" stroke="#313234" stroke-width="33.8304" stroke-linecap="round" stroke-linejoin="round"/>
<path d="M656.5 668.88C709.5 658.38 881 617.38 930 603.88" stroke="#313234" stroke-width="33.8304" stroke-linecap="round" stroke-linejoin="round"/>
<path d="M661.499 705.38C757.499 698.88 876.999 692.38 910.999 684.38" stroke="#313234" stroke-width="33.8304" stroke-linecap="round" stroke-linejoin="round"/>
</svg>
