<svg width="1080" height="1080" viewBox="0 0 1080 1080" fill="none" xmlns="http://www.w3.org/2000/svg">
<path d="M719.462 258.021C703.335 304.45 754.91 349.198 779.941 362.81C806.814 367.364 860.683 359.862 860.985 324.663C861.361 280.663 817.136 265.374 798.631 240.304C780.126 215.234 810.472 173.391 796.47 163.534C782.469 153.678 739.621 199.984 719.462 258.021Z" fill="#B5D2F2"/>
<path d="M917.032 471.383C869.502 483.899 828.844 429.041 817.194 403.04C814.715 375.896 826.33 322.762 861.448 325.163C905.347 328.165 917.197 373.433 940.772 393.808C964.348 414.182 1008.4 387.137 1017.15 401.854C1025.9 416.57 976.444 455.738 917.032 471.383Z" fill="#B5D2F2"/>
<path d="M221.417 746L305.917 558.5H786.417L881.417 731.5L537.917 849.5L221.417 746Z" fill="#FFBDA1"/>
<path d="M535.278 894C722.53 888.661 859.781 785.365 905 734.385L796.029 686C737.5 751.729 595.067 776.86 522.862 778.29C452.169 777.305 331.777 750.916 273.971 686L165 734.385C210.219 785.365 347.47 888.661 534.722 894H535.278Z" fill="#FEFAEE"/>
<path d="M244.361 705.645C226.567 646.251 181.34 663.168 160.951 679.051C149.273 696.226 117.132 736.339 81.989 759.387C38.0596 788.198 24.7139 848.588 23.0457 890.696C21.3775 932.803 65.863 908.425 81.989 890.696C98.1149 872.966 147.605 871.858 198.763 848.588C249.922 825.319 266.604 779.887 244.361 705.645Z" fill="#B5D2F2"/>
<path d="M835.639 712.812C853.433 653.18 898.66 670.165 919.049 686.111C930.727 703.355 962.868 743.628 998.011 766.769C1041.94 795.694 1055.29 856.327 1056.95 898.603C1058.62 940.878 1014.14 916.403 998.011 898.603C981.885 880.802 932.395 879.69 881.237 856.327C830.078 832.964 813.396 787.35 835.639 712.812Z" fill="#B5D2F2"/>
<path d="M541.72 209.065C720.648 235.222 818.028 327.755 866.93 433.394C916.446 540.36 916.207 660.647 900.755 738.779L900.657 739.275L900.239 739.298C862.709 741.336 777.456 744.193 736.846 739.297C699.114 734.747 595.282 713.795 537.916 701.774C480.55 713.795 376.719 734.747 338.987 739.297C298.378 744.193 213.124 741.336 175.594 739.298L175.176 739.275L175.079 738.779C159.626 660.647 159.387 540.36 208.903 433.394C257.805 327.755 355.184 235.222 534.112 209.065L534.118 208.742L534.131 208L534.735 208.081C535.798 208.224 536.858 208.373 537.916 208.521C538.974 208.373 540.035 208.224 541.098 208.081L541.702 208L541.72 209.065Z" fill="#B5D2F2"/>
<path d="M528.93 609.507C535.909 614.97 537.139 625.056 531.676 632.034C531.034 632.856 530.091 633.388 529.056 633.514C528.021 633.641 526.977 633.35 526.156 632.707C519.177 627.245 517.948 617.159 523.41 610.18C524.053 609.359 524.996 608.827 526.031 608.701C527.066 608.575 528.109 608.865 528.93 609.507Z" fill="#313234"/>
<path d="M571.905 609.507C564.926 614.97 563.696 625.056 569.158 632.034C569.801 632.856 570.744 633.388 571.779 633.514C572.814 633.641 573.858 633.35 574.679 632.707C581.658 627.245 582.887 617.159 577.425 610.18C576.782 609.359 575.839 608.827 574.804 608.701C573.769 608.575 572.726 608.865 571.905 609.507Z" fill="#313234"/>
<mask id="mask0_10045_2210" style="mask-type:alpha" maskUnits="userSpaceOnUse" x="371" y="541" width="104" height="123">
<path d="M422.924 541.318C451.201 541.318 474.214 568.576 474.214 602.319C474.214 636.063 451.201 663.321 422.924 663.321C394.646 663.321 371.634 636.063 371.634 602.319C371.634 568.576 394.646 541.318 422.924 541.318Z" fill="#FCD53F" stroke="black" stroke-width="0.636014"/>
</mask>
<g mask="url(#mask0_10045_2210)">
<ellipse cx="422.924" cy="602.32" rx="51.6083" ry="61.3196" fill="white"/>
<ellipse cx="438.155" cy="579.614" rx="43.8393" ry="46.614" fill="#313234"/>
</g>
<mask id="mask1_10045_2210" style="mask-type:alpha" maskUnits="userSpaceOnUse" x="624" y="541" width="104" height="123">
<path d="M676.141 541.318C704.418 541.318 727.431 568.576 727.431 602.319C727.431 636.063 704.418 663.321 676.141 663.321C647.863 663.321 624.851 636.063 624.851 602.319C624.851 568.576 647.863 541.318 676.141 541.318Z" fill="#FCD53F" stroke="black" stroke-width="0.636014"/>
</mask>
<g mask="url(#mask1_10045_2210)">
<ellipse cx="676.141" cy="602.32" rx="51.6083" ry="61.3196" fill="white"/>
<ellipse cx="691.372" cy="579.614" rx="43.8393" ry="46.614" fill="#313234"/>
</g>
<path d="M284.114 664.042C284.114 692.813 260.81 716.12 232.057 716.12C203.304 716.12 180 692.813 180 664.042C180 635.304 203.304 612 232.057 612C260.81 612 284.114 635.304 284.114 664.042Z" fill="#FFBDA1"/>
<path d="M900.131 664.042C900.131 692.813 876.828 716.12 848.075 716.12C819.322 716.12 796.018 692.813 796.018 664.042C796.018 635.304 819.322 612 848.075 612C876.828 612 900.131 635.304 900.131 664.042Z" fill="#FFBDA1"/>
</svg>
