<svg width="1080" height="1080" viewBox="0 0 1080 1080" fill="none" xmlns="http://www.w3.org/2000/svg">
<path d="M872.51 99.3837C878.053 98.8341 891.942 102.074 888.999 123.326C886.056 144.577 840.135 414.252 840.135 414.252L558.553 264.214C558.837 264.091 559.122 263.966 559.409 263.841C557.941 263.812 556.499 263.777 555.086 263.735L749.287 155.346C793.502 131.303 845.854 98.3016 872.51 99.3837Z" fill="#716E6E"/>
<path d="M795.536 379.623C794.193 389.318 783.526 394.996 774.628 390.357L637.762 318.254C627.907 313.141 627.511 298.776 637.51 293.006L795.731 203.498C805.339 195.629 819.791 204.444 817.41 216.721L795.536 379.623Z" fill="#FEFAEE"/>
<path d="M226.48 99.3837C220.937 98.8341 207.048 102.074 209.991 123.326C212.933 144.577 258.854 414.252 258.854 414.252L540.437 264.214C540.153 264.091 539.868 263.966 539.581 263.841C541.049 263.812 542.49 263.777 543.904 263.735L349.703 155.346C305.487 131.303 253.136 98.3016 226.48 99.3837Z" fill="#716E6E"/>
<path d="M303.454 379.623C304.797 389.318 315.464 394.996 324.362 390.357L461.228 318.254C471.083 313.141 471.479 298.776 461.48 293.006L303.259 203.498C293.651 195.629 279.198 204.444 281.58 216.721L303.454 379.623Z" fill="#FEFAEE"/>
<path d="M590.929 103.536C606.909 110.617 615.681 130.347 610.52 147.606L584.976 233.041C580.052 249.509 564.223 257.776 548.9 252.348C545.234 258.493 539.879 263.55 533.302 266.464C517.322 273.544 500.184 265.293 495.024 248.034L469.479 162.599C464.319 145.34 473.09 125.61 489.07 118.529C505.05 111.449 522.188 119.701 527.348 136.959L537.758 171.775L552.651 121.966C557.811 104.707 574.949 96.4561 590.929 103.536Z" fill="#716E6E"/>
<path d="M540.478 211.771C581.774 210.954 650.014 220.11 712.636 261.174C809.18 324.481 885.149 406.78 893.062 514.402C900.976 622.024 883.66 648.761 929.557 648.761C975.455 648.761 1002.36 632.934 1003.94 672.501C1005.5 711.525 873.584 817.767 540.478 797.903C207.372 817.767 75.453 711.525 77.0134 672.501C78.5961 632.934 105.502 648.761 151.399 648.761C197.297 648.761 179.981 622.024 187.894 514.402C195.808 406.78 271.777 324.481 368.32 261.174C430.942 220.11 499.182 210.954 540.478 211.771Z" fill="#716E6E"/>
<path d="M194.355 599.371C307.441 556.05 364.556 596.796 390.146 615.124C452.261 659.613 495.515 697.087 540.488 724.872C585.461 697.088 628.715 659.614 690.83 615.125C716.42 596.797 773.535 556.05 886.621 599.371C999.707 642.693 1076.79 664.635 1068.35 700.643C1059.91 736.65 982.829 713.02 998.019 754.091L998.108 754.333C1013.28 795.345 1030.47 841.815 936.132 819.354C875.556 812.416 799.568 811.591 780.214 863.802C756.147 928.725 709.883 1024.27 540.475 1021.94C371.089 1024.26 324.828 928.72 300.763 863.801C281.409 811.59 205.421 812.416 144.845 819.354C50.511 841.815 67.6987 795.344 82.8679 754.332L82.9578 754.091C98.1484 713.02 21.0699 736.649 12.6306 700.642C4.19164 664.634 81.2696 642.692 194.355 599.371Z" fill="#FEFAEE"/>
<path d="M541.911 728C541.073 755.317 545.293 810.953 612.302 815C619.142 815 637.351 809.942 647.468 791.733" stroke="#313234" stroke-width="20" stroke-linecap="round"/>
<path d="M538.557 728C539.395 755.317 535.175 810.953 468.166 815C461.326 815 443.117 809.942 433 791.733" stroke="#313234" stroke-width="20" stroke-linecap="round"/>
<path d="M541.403 747C584.34 747 611 684.489 611 670.974C611 657.458 599.326 640 541.403 640C475.735 640 469 655.205 469 670.974C469 682.518 498.466 747 541.403 747Z" fill="#313234"/>
<mask id="mask0_10044_20238" style="mask-type:alpha" maskUnits="userSpaceOnUse" x="362" y="472" width="104" height="123">
<path d="M413.608 472.318C441.886 472.318 464.898 499.576 464.898 533.319C464.898 567.063 441.886 594.321 413.608 594.321C385.331 594.321 362.318 567.063 362.318 533.319C362.318 499.576 385.331 472.318 413.608 472.318Z" fill="#FCD53F" stroke="black" stroke-width="0.636014"/>
</mask>
<g mask="url(#mask0_10044_20238)">
<ellipse cx="413.608" cy="533.32" rx="51.6083" ry="61.3196" fill="white"/>
<ellipse cx="413.839" cy="548.614" rx="43.8393" ry="46.614" fill="#313234"/>
</g>
<mask id="mask1_10044_20238" style="mask-type:alpha" maskUnits="userSpaceOnUse" x="615" y="472" width="104" height="123">
<path d="M666.608 472.318C694.886 472.318 717.898 499.576 717.898 533.319C717.898 567.063 694.886 594.321 666.608 594.321C638.331 594.321 615.318 567.063 615.318 533.319C615.318 499.576 638.331 472.318 666.608 472.318Z" fill="#FCD53F" stroke="black" stroke-width="0.636014"/>
</mask>
<g mask="url(#mask1_10044_20238)">
<ellipse cx="666.608" cy="533.32" rx="51.6083" ry="61.3196" fill="white"/>
<ellipse cx="666.839" cy="548.614" rx="43.8393" ry="46.614" fill="#313234"/>
</g>
<path d="M349.632 680.802C349.632 706.677 328.674 727.638 302.816 727.638C276.958 727.638 256 706.677 256 680.802C256 654.958 276.958 634 302.816 634C328.674 634 349.632 654.958 349.632 680.802Z" fill="#FFBDA1"/>
<path d="M824.264 680.802C824.264 706.677 803.307 727.638 777.449 727.638C751.59 727.638 730.632 706.677 730.632 680.802C730.632 654.958 751.59 634 777.449 634C803.307 634 824.264 654.958 824.264 680.802Z" fill="#FFBDA1"/>
</svg>
